STARTFONT 2.1
COMMENT
COMMENT Converted from OpenType font "malgun.ttf" by "otf2bdf.exe 3.0".
COMMENT
FONT -FreeType-Malgun Gothic-Medium-R-Normal--25-180-100-100-P-202-ISO10646-1
SIZE 18 100 100
FONTBOUNDINGBOX 32 29 -2 -6
STARTPROPERTIES 19
FOUNDRY "FreeType"
FAMILY_NAME "Malgun Gothic"
WEIGHT_NAME "Medium"
SLANT "R"
SETWIDTH_NAME "Normal"
ADD_STYLE_NAME ""
PIXEL_SIZE 25
POINT_SIZE 180
RESOLUTION_X 100
RESOLUTION_Y 100
SPACING "P"
AVERAGE_WIDTH 202
CHARSET_REGISTRY "ISO10646"
CHARSET_ENCODING "1"
FONT_ASCENT 27
FONT_DESCENT 6
COPYRIGHT "© 2008 Microsoft Corporation. All Rights Reserved."
_OTF_FONTFILE "malgun.ttf"
_OTF_PSNAME "MalgunGothicRegular"
ENDPROPERTIES
CHARS 12620
STARTCHAR 0000
ENCODING 0
SWIDTH 480 0
DWIDTH 12 0
BBX 0 0 0 0
BITMAP
ENDCHAR
STARTCHAR 000D
ENCODING 13
SWIDTH 80 0
DWIDTH 2 0
BBX 0 0 0 0
BITMAP
ENDCHAR
STARTCHAR 0020
ENCODING 32
SWIDTH 360 0
DWIDTH 9 0
BBX 0 0 0 0
BITMAP
ENDCHAR
STARTCHAR 0021
ENCODING 33
SWIDTH 280 0
DWIDTH 7 0
BBX 3 18 2 0
BITMAP
60
60
60
60
60
60
60
60
60
60
60
60
00
00
00
E0
E0
E0
ENDCHAR
STARTCHAR 0022
ENCODING 34
SWIDTH 400 0
DWIDTH 10 0
BBX 5 6 2 12
BITMAP
88
88
88
88
88
88
ENDCHAR
STARTCHAR 0023
ENCODING 35
SWIDTH 600 0
DWIDTH 15 0
BBX 14 16 0 2
BITMAP
0210
0210
0630
0630
0420
7FFC
0C20
0C60
0860
1840
FFF8
08C0
18C0
18C0
1180
3180
ENDCHAR
STARTCHAR 0024
ENCODING 36
SWIDTH 560 0
DWIDTH 14 0
BBX 10 22 2 -2
BITMAP
0800
0800
1F00
7F80
6880
C800
C800
C800
E800
7800
3800
1E00
0F80
0980
08C0
08C0
08C0
8B80
FF80
7E00
0800
0800
ENDCHAR
STARTCHAR 0025
ENCODING 37
SWIDTH 840 0
DWIDTH 21 0
BBX 19 18 1 0
BITMAP
3E0300
630600
C18C00
C18C00
C19800
C19800
C1B000
636000
3E6000
00CF80
00D8C0
01B060
033060
033060
063060
063060
0C18C0
180F80
ENDCHAR
STARTCHAR 0026
ENCODING 38
SWIDTH 800 0
DWIDTH 20 0
BBX 18 18 2 0
BITMAP
0F8000
1FC000
38E000
306000
306300
30E300
19C300
0F8300
1F8300
71C600
60E600
C03600
C03C00
C01800
C03C00
70FE00
7FE7C0
1F83C0
ENDCHAR
STARTCHAR 0027
ENCODING 39
SWIDTH 240 0
DWIDTH 6 0
BBX 1 6 2 12
BITMAP
80
80
80
80
80
80
ENDCHAR
STARTCHAR 0028
ENCODING 40
SWIDTH 320 0
DWIDTH 8 0
BBX 6 22 2 -4
BITMAP
0C
18
30
30
60
60
60
C0
C0
C0
C0
C0
C0
C0
C0
60
60
60
30
30
18
0C
ENDCHAR
STARTCHAR 0029
ENCODING 41
SWIDTH 320 0
DWIDTH 8 0
BBX 6 22 0 -4
BITMAP
C0
60
30
30
18
18
18
0C
0C
0C
0C
0C
0C
0C
0C
18
18
18
30
30
60
C0
ENDCHAR
STARTCHAR 002A
ENCODING 42
SWIDTH 440 0
DWIDTH 11 0
BBX 9 9 1 9
BITMAP
0C00
0C00
0800
C980
3E00
1C00
3600
6200
4100
ENDCHAR
STARTCHAR 002B
ENCODING 43
SWIDTH 720 0
DWIDTH 18 0
BBX 12 12 3 1
BITMAP
0600
0600
0600
0600
0600
FFF0
FFF0
0600
0600
0600
0600
0600
ENDCHAR
STARTCHAR 002C
ENCODING 44
SWIDTH 200 0
DWIDTH 5 0
BBX 3 6 0 -3
BITMAP
60
60
40
C0
C0
80
ENDCHAR
STARTCHAR 002D
ENCODING 45
SWIDTH 400 0
DWIDTH 10 0
BBX 6 2 2 6
BITMAP
FC
FC
ENDCHAR
STARTCHAR 002E
ENCODING 46
SWIDTH 200 0
DWIDTH 5 0
BBX 3 3 1 0
BITMAP
E0
E0
E0
ENDCHAR
STARTCHAR 002F
ENCODING 47
SWIDTH 400 0
DWIDTH 10 0
BBX 10 21 0 -3
BITMAP
00C0
0180
0180
0180
0300
0300
0300
0600
0600
0C00
0C00
0C00
1800
1800
3000
3000
3000
6000
6000
6000
C000
ENDCHAR
STARTCHAR 0030
ENCODING 48
SWIDTH 560 0
DWIDTH 14 0
BBX 12 18 1 0
BITMAP
0F80
3FC0
70E0
6060
6060
C030
C030
C030
C030
C030
C030
C030
C030
E060
6060
70E0
3FC0
1F00
ENDCHAR
STARTCHAR 0031
ENCODING 49
SWIDTH 560 0
DWIDTH 14 0
BBX 10 18 2 0
BITMAP
0C00
7C00
FC00
CC00
0C00
0C00
0C00
0C00
0C00
0C00
0C00
0C00
0C00
0C00
0C00
0C00
FFC0
FFC0
ENDCHAR
STARTCHAR 0032
ENCODING 50
SWIDTH 560 0
DWIDTH 14 0
BBX 11 18 1 0
BITMAP
1F00
3FC0
60E0
4060
0060
0060
0060
00C0
00C0
0180
0300
0600
0C00
1800
3000
6000
FFE0
FFE0
ENDCHAR
STARTCHAR 0033
ENCODING 51
SWIDTH 560 0
DWIDTH 14 0
BBX 11 18 1 0
BITMAP
3E00
7F80
41C0
00C0
00C0
00C0
00C0
0380
3E00
3F80
01C0
00E0
0060
0060
0060
81C0
FF80
7E00
ENDCHAR
STARTCHAR 0034
ENCODING 52
SWIDTH 560 0
DWIDTH 14 0
BBX 13 18 0 0
BITMAP
00E0
01E0
01E0
0360
0760
0660
0C60
1860
1860
3060
6060
6060
FFF8
FFF8
0060
0060
0060
0060
ENDCHAR
STARTCHAR 0035
ENCODING 53
SWIDTH 560 0
DWIDTH 14 0
BBX 10 18 2 0
BITMAP
7F80
7F80
6000
6000
6000
6000
6000
7E00
7F80
0380
01C0
00C0
00C0
00C0
01C0
8380
FF00
7E00
ENDCHAR
STARTCHAR 0036
ENCODING 54
SWIDTH 560 0
DWIDTH 14 0
BBX 12 18 1 0
BITMAP
07C0
1FE0
3820
3000
6000
6000
C000
CF80
DFE0
F0E0
E070
C030
C030
C030
6070
70E0
3FC0
0F80
ENDCHAR
STARTCHAR 0037
ENCODING 55
SWIDTH 560 0
DWIDTH 14 0
BBX 12 18 1 0
BITMAP
FFF0
FFF0
0020
0060
0040
00C0
0080
0180
0100
0300
0300
0600
0600
0C00
0C00
1800
1800
3000
ENDCHAR
STARTCHAR 0038
ENCODING 56
SWIDTH 560 0
DWIDTH 14 0
BBX 12 18 1 0
BITMAP
0F80
3FC0
70E0
6060
6060
6060
70C0
39C0
0F80
1F80
39E0
6060
C030
C030
C030
F070
7FE0
1F80
ENDCHAR
STARTCHAR 0039
ENCODING 57
SWIDTH 560 0
DWIDTH 14 0
BBX 12 18 1 0
BITMAP
1F80
3FC0
70E0
E060
C030
C030
C030
E070
70F0
3FF0
1F30
0030
0060
0060
00E0
41C0
7F80
3E00
ENDCHAR
STARTCHAR 003A
ENCODING 58
SWIDTH 200 0
DWIDTH 5 0
BBX 3 13 1 0
BITMAP
E0
E0
E0
00
00
00
00
00
00
00
E0
E0
E0
ENDCHAR
STARTCHAR 003B
ENCODING 59
SWIDTH 200 0
DWIDTH 5 0
BBX 4 16 0 -3
BITMAP
70
70
70
00
00
00
00
00
00
00
60
60
40
C0
C0
80
ENDCHAR
STARTCHAR 003C
ENCODING 60
SWIDTH 720 0
DWIDTH 18 0
BBX 11 11 3 2
BITMAP
0020
00E0
03C0
0E00
3800
E000
7800
1E00
0380
00E0
0020
ENDCHAR
STARTCHAR 003D
ENCODING 61
SWIDTH 720 0
DWIDTH 18 0
BBX 12 7 3 4
BITMAP
FFF0
FFF0
0000
0000
0000
FFF0
FFF0
ENDCHAR
STARTCHAR 003E
ENCODING 62
SWIDTH 720 0
DWIDTH 18 0
BBX 11 11 4 2
BITMAP
8000
E000
3800
0E00
0380
00E0
03C0
0F00
3800
E000
8000
ENDCHAR
STARTCHAR 003F
ENCODING 63
SWIDTH 480 0
DWIDTH 12 0
BBX 9 18 2 0
BITMAP
7E00
FF00
8380
0180
0180
0180
0300
0600
0C00
1C00
1800
1800
1800
0000
0000
3800
3800
3800
ENDCHAR
STARTCHAR 0040
ENCODING 64
SWIDTH 960 0
DWIDTH 24 0
BBX 20 20 2 -2
BITMAP
01FC00
060700
1C0180
3000C0
300060
60EC60
639830
C30830
C60830
C60830
C60830
C60830
C61860
C32CC0
61C780
600000
300000
180000
0E0200
03FC00
ENDCHAR
STARTCHAR 0041
ENCODING 65
SWIDTH 640 0
DWIDTH 16 0
BBX 16 18 0 0
BITMAP
0180
03C0
03C0
03C0
0660
0660
0C70
0C30
0C30
1818
1818
1FF8
3FFC
300C
6006
6006
6006
C003
ENDCHAR
STARTCHAR 0042
ENCODING 66
SWIDTH 600 0
DWIDTH 15 0
BBX 11 18 2 0
BITMAP
FE00
FF80
C1C0
C0C0
C0C0
C0C0
C0C0
C380
FF00
FF80
C1C0
C060
C060
C060
C060
C1C0
FF80
FF00
ENDCHAR
STARTCHAR 0043
ENCODING 67
SWIDTH 640 0
DWIDTH 16 0
BBX 14 18 1 0
BITMAP
03F8
0FFC
1C04
3800
7000
6000
C000
C000
C000
C000
C000
C000
E000
6000
7000
3C04
1FFC
03F8
ENDCHAR
STARTCHAR 0044
ENCODING 68
SWIDTH 720 0
DWIDTH 18 0
BBX 15 18 2 0
BITMAP
FF80
FFF0
C078
C01C
C00C
C00E
C006
C006
C006
C006
C006
C006
C00C
C01C
C038
C0F0
FFE0
FF00
ENDCHAR
STARTCHAR 0045
ENCODING 69
SWIDTH 520 0
DWIDTH 13 0
BBX 9 18 2 0
BITMAP
FF80
FF80
C000
C000
C000
C000
C000
C000
FF00
FF00
C000
C000
C000
C000
C000
C000
FF80
FF80
ENDCHAR
STARTCHAR 0046
ENCODING 70
SWIDTH 480 0
DWIDTH 12 0
BBX 9 18 2 0
BITMAP
FF80
FF80
C000
C000
C000
C000
C000
C000
FF00
FF00
C000
C000
C000
C000
C000
C000
C000
C000
ENDCHAR
STARTCHAR 0047
ENCODING 71
SWIDTH 720 0
DWIDTH 18 0
BBX 15 18 1 0
BITMAP
01FC
0FFE
1C06
3800
7000
6000
C000
C000
C000
C07E
C07E
C006
6006
6006
7006
3C0E
0FFE
03F8
ENDCHAR
STARTCHAR 0048
ENCODING 72
SWIDTH 720 0
DWIDTH 18 0
BBX 14 18 2 0
BITMAP
C00C
C00C
C00C
C00C
C00C
C00C
C00C
C00C
FFFC
FFFC
C00C
C00C
C00C
C00C
C00C
C00C
C00C
C00C
ENDCHAR
STARTCHAR 0049
ENCODING 73
SWIDTH 280 0
DWIDTH 7 0
BBX 6 18 0 0
BITMAP
FC
FC
30
30
30
30
30
30
30
30
30
30
30
30
30
30
FC
FC
ENDCHAR
STARTCHAR 004A
ENCODING 74
SWIDTH 360 0
DWIDTH 9 0
BBX 7 18 0 0
BITMAP
06
06
06
06
06
06
06
06
06
06
06
06
06
06
0E
0C
F8
F0
ENDCHAR
STARTCHAR 004B
ENCODING 75
SWIDTH 600 0
DWIDTH 15 0
BBX 13 18 2 0
BITMAP
C030
C060
C0C0
C180
C300
C700
CE00
DC00
F800
DC00
CE00
CE00
C700
C380
C1C0
C0E0
C070
C038
ENDCHAR
STARTCHAR 004C
ENCODING 76
SWIDTH 480 0
DWIDTH 12 0
BBX 10 18 2 0
BITMAP
C000
C000
C000
C000
C000
C000
C000
C000
C000
C000
C000
C000
C000
C000
C000
C000
FFC0
FFC0
ENDCHAR
STARTCHAR 004D
ENCODING 77
SWIDTH 920 0
DWIDTH 23 0
BBX 19 18 2 0
BITMAP
E00060
F000E0
F000E0
F801E0
D80160
D80360
CC0260
CC0660
C60460
C60C60
C30860
C31860
C31860
C1B060
C1B060
C0E060
C0E060
C04060
ENDCHAR
STARTCHAR 004E
ENCODING 78
SWIDTH 760 0
DWIDTH 19 0
BBX 15 18 2 0
BITMAP
E006
F006
F806
D806
DC06
CC06
C606
C306
C306
C186
C0C6
C0C6
C066
C036
C036
C01E
C00E
C00E
ENDCHAR
STARTCHAR 004F
ENCODING 79
SWIDTH 760 0
DWIDTH 19 0
BBX 17 18 1 0
BITMAP
03F000
1FFC00
3C1E00
300700
600300
600300
C00180
C00180
C00180
C00180
C00180
C00180
E00300
600300
700600
3C1E00
1FFC00
07F000
ENDCHAR
STARTCHAR 0050
ENCODING 80
SWIDTH 560 0
DWIDTH 14 0
BBX 11 18 2 0
BITMAP
FF00
FF80
C1C0
C0E0
C060
C060
C060
C0E0
C1C0
FF80
FE00
C000
C000
C000
C000
C000
C000
C000
ENDCHAR
STARTCHAR 0051
ENCODING 81
SWIDTH 760 0
DWIDTH 19 0
BBX 17 23 1 -5
BITMAP
03F000
1FFC00
3C1E00
300700
600300
600380
C00180
C00180
C00180
C00180
C00180
C00180
600300
600300
700600
3C1C00
1FF800
07E000
00E000
007000
003800
001F80
000F80
ENDCHAR
STARTCHAR 0052
ENCODING 82
SWIDTH 600 0
DWIDTH 15 0
BBX 13 18 2 0
BITMAP
FF00
FFC0
C0E0
C060
C060
C060
C0E0
C1C0
FF80
FE00
C380
C180
C0C0
C0C0
C060
C070
C030
C018
ENDCHAR
STARTCHAR 0053
ENCODING 83
SWIDTH 560 0
DWIDTH 14 0
BBX 11 18 2 0
BITMAP
1F80
7FC0
6040
C000
C000
C000
E000
7800
1E00
0F80
03C0
00C0
0060
0060
0060
80C0
FFC0
7F00
ENDCHAR
STARTCHAR 0054
ENCODING 84
SWIDTH 520 0
DWIDTH 13 0
BBX 12 18 1 0
BITMAP
FFF0
FFF0
0600
0600
0600
0600
0600
0600
0600
0600
0600
0600
0600
0600
0600
0600
0600
0600
ENDCHAR
STARTCHAR 0055
ENCODING 85
SWIDTH 720 0
DWIDTH 18 0
BBX 14 18 2 0
BITMAP
C00C
C00C
C00C
C00C
C00C
C00C
C00C
C00C
C00C
C00C
C00C
C00C
C00C
E00C
6018
7038
3FF0
0FC0
ENDCHAR
STARTCHAR 0056
ENCODING 86
SWIDTH 640 0
DWIDTH 16 0
BBX 16 18 0 0
BITMAP
C003
C003
6006
6006
300C
300C
300C
1818
1818
0C30
0C30
0C30
0660
0660
03C0
03C0
03C0
0180
ENDCHAR
STARTCHAR 0057
ENCODING 87
SWIDTH 960 0
DWIDTH 24 0
BBX 24 18 0 0
BITMAP
C01803
C01803
603C06
603C06
603C06
302604
30660C
30660C
18630C
184308
18C318
0CC198
0CC198
0C8190
0780F0
0780F0
0700E0
030060
ENDCHAR
STARTCHAR 0058
ENCODING 88
SWIDTH 600 0
DWIDTH 15 0
BBX 15 18 0 0
BITMAP
C006
600C
3018
1030
1870
0C60
04C0
0780
0380
0380
0680
0640
0C60
1830
1810
3018
600C
C006
ENDCHAR
STARTCHAR 0059
ENCODING 89
SWIDTH 560 0
DWIDTH 14 0
BBX 14 18 0 0
BITMAP
C00C
6018
6018
3030
3870
1860
0CC0
0CC0
0780
0780
0300
0300
0300
0300
0300
0300
0300
0300
ENDCHAR
STARTCHAR 005A
ENCODING 90
SWIDTH 600 0
DWIDTH 15 0
BBX 14 18 0 0
BITMAP
7FFC
7FF8
0018
0030
0060
00C0
00C0
0180
0300
0300
0600
0C00
0800
1800
3000
6000
7FFC
FFFC
ENDCHAR
STARTCHAR 005B
ENCODING 91
SWIDTH 320 0
DWIDTH 8 0
BBX 5 22 2 -4
BITMAP
F8
C0
C0
C0
C0
C0
C0
C0
C0
C0
C0
C0
C0
C0
C0
C0
C0
C0
C0
C0
C0
F8
ENDCHAR
STARTCHAR 005C
ENCODING 92
SWIDTH 760 0
DWIDTH 19 0
BBX 19 18 0 0
BITMAP
6060C0
6060C0
20E180
30E180
30F180
30F180
30B180
10B300
FFFFE0
FFFFE0
199300
191300
091A00
0F1E00
0F1E00
0E0E00
060C00
060C00
ENDCHAR
STARTCHAR 005D
ENCODING 93
SWIDTH 320 0
DWIDTH 8 0
BBX 5 22 1 -4
BITMAP
F8
18
18
18
18
18
18
18
18
18
18
18
18
18
18
18
18
18
18
18
18
F8
ENDCHAR
STARTCHAR 005E
ENCODING 94
SWIDTH 720 0
DWIDTH 18 0
BBX 12 10 3 8
BITMAP
0400
0E00
0E00
1B00
1980
3180
30C0
60C0
6060
C030
ENDCHAR
STARTCHAR 005F
ENCODING 95
SWIDTH 440 0
DWIDTH 11 0
BBX 11 2 0 -4
BITMAP
FFE0
FFE0
ENDCHAR
STARTCHAR 0060
ENCODING 96
SWIDTH 280 0
DWIDTH 7 0
BBX 5 4 1 15
BITMAP
C0
60
30
18
ENDCHAR
STARTCHAR 0061
ENCODING 97
SWIDTH 520 0
DWIDTH 13 0
BBX 10 13 1 0
BITMAP
3F00
7F80
41C0
00C0
00C0
0FC0
7FC0
F0C0
C0C0
C1C0
E3C0
7EC0
3CC0
ENDCHAR
STARTCHAR 0062
ENCODING 98
SWIDTH 600 0
DWIDTH 15 0
BBX 12 19 2 0
BITMAP
C000
C000
C000
C000
C000
C000
CF80
DFC0
F0E0
E070
C030
C030
C030
C030
C030
E060
F0E0
DFC0
CF80
ENDCHAR
STARTCHAR 0063
ENCODING 99
SWIDTH 480 0
DWIDTH 12 0
BBX 10 13 1 0
BITMAP
0F80
3FC0
7840
6000
C000
C000
C000
C000
C000
6000
7040
3FC0
0F80
ENDCHAR
STARTCHAR 0064
ENCODING 100
SWIDTH 600 0
DWIDTH 15 0
BBX 12 19 1 0
BITMAP
0030
0030
0030
0030
0030
0030
1F30
3FB0
70F0
6070
C030
C030
C030
C030
C030
E070
70F0
3FB0
1F30
ENDCHAR
STARTCHAR 0065
ENCODING 101
SWIDTH 520 0
DWIDTH 13 0
BBX 11 13 1 0
BITMAP
1F00
3FC0
70C0
6060
C060
FFE0
FFE0
C000
C000
E000
7040
3FC0
1F80
ENDCHAR
STARTCHAR 0066
ENCODING 102
SWIDTH 320 0
DWIDTH 8 0
BBX 8 19 1 0
BITMAP
0F
1F
38
30
30
30
FE
FE
30
30
30
30
30
30
30
30
30
30
30
ENDCHAR
STARTCHAR 0067
ENCODING 103
SWIDTH 600 0
DWIDTH 15 0
BBX 12 19 1 -6
BITMAP
1F30
3FB0
70F0
6070
C030
C030
C030
C030
C030
E070
70F0
3FB0
1F30
0030
0030
0060
40E0
7FC0
3F00
ENDCHAR
STARTCHAR 0068
ENCODING 104
SWIDTH 560 0
DWIDTH 14 0
BBX 10 19 2 0
BITMAP
C000
C000
C000
C000
C000
C000
CF00
DF80
F1C0
E0C0
C0C0
C0C0
C0C0
C0C0
C0C0
C0C0
C0C0
C0C0
C0C0
ENDCHAR
STARTCHAR 0069
ENCODING 105
SWIDTH 240 0
DWIDTH 6 0
BBX 3 19 2 0
BITMAP
E0
E0
E0
00
00
00
C0
C0
C0
C0
C0
C0
C0
C0
C0
C0
C0
C0
C0
ENDCHAR
STARTCHAR 006A
ENCODING 106
SWIDTH 240 0
DWIDTH 6 0
BBX 7 25 -2 -6
BITMAP
0E
0E
0E
00
00
00
0C
0C
0C
0C
0C
0C
0C
0C
0C
0C
0C
0C
0C
0C
0C
0C
18
F8
F0
ENDCHAR
STARTCHAR 006B
ENCODING 107
SWIDTH 520 0
DWIDTH 13 0
BBX 10 19 2 0
BITMAP
C000
C000
C000
C000
C000
C000
C1C0
C380
C700
CE00
DC00
F800
F000
D800
CC00
C600
C300
C180
C0C0
ENDCHAR
STARTCHAR 006C
ENCODING 108
SWIDTH 240 0
DWIDTH 6 0
BBX 2 19 2 0
BITMAP
C0
C0
C0
C0
C0
C0
C0
C0
C0
C0
C0
C0
C0
C0
C0
C0
C0
C0
C0
ENDCHAR
STARTCHAR 006D
ENCODING 109
SWIDTH 880 0
DWIDTH 22 0
BBX 18 13 2 0
BITMAP
CF0F00
DFBF80
F1B1C0
E0E0C0
C0C0C0
C0C0C0
C0C0C0
C0C0C0
C0C0C0
C0C0C0
C0C0C0
C0C0C0
C0C0C0
ENDCHAR
STARTCHAR 006E
ENCODING 110
SWIDTH 560 0
DWIDTH 14 0
BBX 10 13 2 0
BITMAP
CF00
DF80
F1C0
E0C0
C0C0
C0C0
C0C0
C0C0
C0C0
C0C0
C0C0
C0C0
C0C0
ENDCHAR
STARTCHAR 006F
ENCODING 111
SWIDTH 600 0
DWIDTH 15 0
BBX 13 13 1 0
BITMAP
0F80
3FE0
7070
6030
C018
C018
C018
C018
C018
6030
7070
3FE0
0F80
ENDCHAR
STARTCHAR 0070
ENCODING 112
SWIDTH 600 0
DWIDTH 15 0
BBX 12 19 2 -6
BITMAP
CF80
DFC0
F0E0
E070
C030
C030
C030
C030
C030
E060
F0E0
DFC0
CF80
C000
C000
C000
C000
C000
C000
ENDCHAR
STARTCHAR 0071
ENCODING 113
SWIDTH 600 0
DWIDTH 15 0
BBX 12 19 1 -6
BITMAP
1F30
3FB0
70F0
6070
C030
C030
C030
C030
C030
E070
70F0
3FB0
1F30
0030
0030
0030
0030
0030
0030
ENDCHAR
STARTCHAR 0072
ENCODING 114
SWIDTH 360 0
DWIDTH 9 0
BBX 7 13 2 0
BITMAP
CE
DE
F0
E0
C0
C0
C0
C0
C0
C0
C0
C0
C0
ENDCHAR
STARTCHAR 0073
ENCODING 115
SWIDTH 440 0
DWIDTH 11 0
BBX 9 13 1 0
BITMAP
3E00
7F00
E100
C000
C000
7000
3E00
0700
0180
0180
8380
FF00
7E00
ENDCHAR
STARTCHAR 0074
ENCODING 116
SWIDTH 360 0
DWIDTH 9 0
BBX 7 17 1 0
BITMAP
30
30
30
30
FE
FE
30
30
30
30
30
30
30
30
30
3E
1E
ENDCHAR
STARTCHAR 0075
ENCODING 117
SWIDTH 560 0
DWIDTH 14 0
BBX 10 13 2 0
BITMAP
C0C0
C0C0
C0C0
C0C0
C0C0
C0C0
C0C0
C0C0
C0C0
C1C0
E3C0
7EC0
3CC0
ENDCHAR
STARTCHAR 0076
ENCODING 118
SWIDTH 480 0
DWIDTH 12 0
BBX 12 13 0 0
BITMAP
C030
6060
6060
6060
30C0
30C0
18C0
1980
1980
0F00
0F00
0F00
0600
ENDCHAR
STARTCHAR 0077
ENCODING 119
SWIDTH 720 0
DWIDTH 18 0
BBX 18 13 0 0
BITMAP
C0C0C0
C0C0C0
61E180
61E180
61A180
333300
333300
331300
121200
1E1E00
1E1E00
0C0C00
0C0C00
ENDCHAR
STARTCHAR 0078
ENCODING 120
SWIDTH 480 0
DWIDTH 12 0
BBX 12 13 0 0
BITMAP
C030
6060
30C0
1180
0B00
0F00
0600
0E00
0D00
1880
30C0
6060
C030
ENDCHAR
STARTCHAR 0079
ENCODING 121
SWIDTH 480 0
DWIDTH 12 0
BBX 12 19 0 -6
BITMAP
C030
6060
6060
6060
30C0
30C0
1080
1980
1980
0F00
0F00
0600
0600
0600
0C00
0C00
1800
F800
E000
ENDCHAR
STARTCHAR 007A
ENCODING 122
SWIDTH 480 0
DWIDTH 12 0
BBX 11 13 0 0
BITMAP
7FE0
7FC0
0080
0180
0300
0600
0400
0C00
1800
3000
6000
7FE0
FFE0
ENDCHAR
STARTCHAR 007B
ENCODING 123
SWIDTH 320 0
DWIDTH 8 0
BBX 6 22 1 -4
BITMAP
0C
1C
38
30
30
30
30
30
30
70
C0
60
30
30
30
30
30
30
30
38
1C
0C
ENDCHAR
STARTCHAR 007C
ENCODING 124
SWIDTH 240 0
DWIDTH 6 0
BBX 2 26 2 -6
BITMAP
C0
C0
C0
C0
C0
C0
C0
C0
C0
C0
C0
C0
C0
C0
C0
C0
C0
C0
C0
C0
C0
C0
C0
C0
C0
C0
ENDCHAR
STARTCHAR 007D
ENCODING 125
SWIDTH 320 0
DWIDTH 8 0
BBX 6 22 1 -4
BITMAP
C0
E0
70
30
30
30
30
30
30
38
0C
18
30
30
30
30
30
30
30
70
E0
C0
ENDCHAR
STARTCHAR 007E
ENCODING 126
SWIDTH 720 0
DWIDTH 18 0
BBX 13 4 3 5
BITMAP
3C18
7F38
C3F0
C1E0
ENDCHAR
STARTCHAR 00A0
ENCODING 160
SWIDTH 360 0
DWIDTH 9 0
BBX 0 0 0 0
BITMAP
ENDCHAR
STARTCHAR 00A1
ENCODING 161
SWIDTH 280 0
DWIDTH 7 0
BBX 3 18 2 -5
BITMAP
E0
E0
E0
00
00
00
C0
C0
C0
C0
C0
C0
C0
C0
C0
C0
C0
C0
ENDCHAR
STARTCHAR 00A2
ENCODING 162
SWIDTH 560 0
DWIDTH 14 0
BBX 10 19 2 -1
BITMAP
0600
0600
0600
0F80
3FC0
7640
6600
C600
C600
C600
C600
C600
E600
7640
3FC0
1F80
0600
0600
0600
ENDCHAR
STARTCHAR 00A3
ENCODING 163
SWIDTH 560 0
DWIDTH 14 0
BBX 11 18 1 0
BITMAP
0780
0FC0
0C40
1800
1800
1800
1800
1800
FF00
FF00
1800
1800
1800
1800
3000
6000
FFE0
FFE0
ENDCHAR
STARTCHAR 00A4
ENCODING 164
SWIDTH 560 0
DWIDTH 14 0
BBX 12 12 1 3
BITMAP
4020
EF70
7FE0
30C0
6060
6060
6060
6060
30C0
7FE0
EF70
4020
ENDCHAR
STARTCHAR 00A5
ENCODING 165
SWIDTH 560 0
DWIDTH 14 0
BBX 12 18 1 0
BITMAP
C030
6060
6060
30C0
18C0
1980
0D00
0F00
7FE0
7FE0
0600
0600
0600
7FE0
7FE0
0600
0600
0600
ENDCHAR
STARTCHAR 00A6
ENCODING 166
SWIDTH 240 0
DWIDTH 6 0
BBX 2 26 2 -6
BITMAP
C0
C0
C0
C0
C0
C0
C0
C0
C0
C0
C0
00
00
00
00
C0
C0
C0
C0
C0
C0
C0
C0
C0
C0
C0
ENDCHAR
STARTCHAR 00A7
ENCODING 167
SWIDTH 440 0
DWIDTH 11 0
BBX 8 20 2 -1
BITMAP
1C
3E
62
60
60
70
3C
7E
C7
C3
C3
E3
76
3E
0E
06
06
8E
FC
78
ENDCHAR
STARTCHAR 00A8
ENCODING 168
SWIDTH 440 0
DWIDTH 11 0
BBX 7 2 2 16
BITMAP
C6
C6
ENDCHAR
STARTCHAR 00A9
ENCODING 169
SWIDTH 920 0
DWIDTH 23 0
BBX 19 18 2 0
BITMAP
03F800
0E0E00
180300
20F880
438440
460040
860020
8C0020
8C0020
8C0020
8C0020
8C0020
460040
438440
20F880
180300
0E0E00
03F800
ENDCHAR
STARTCHAR 00AA
ENCODING 170
SWIDTH 400 0
DWIDTH 10 0
BBX 8 9 1 9
BITMAP
3E
43
03
1F
63
C3
C3
C7
7B
ENDCHAR
STARTCHAR 00AB
ENCODING 171
SWIDTH 520 0
DWIDTH 13 0
BBX 11 9 1 3
BITMAP
0C60
18C0
3180
6300
C600
6300
3180
18C0
0C60
ENDCHAR
STARTCHAR 00AC
ENCODING 172
SWIDTH 720 0
DWIDTH 18 0
BBX 12 7 3 3
BITMAP
FFF0
FFF0
0030
0030
0030
0030
0030
ENDCHAR
STARTCHAR 00AD
ENCODING 173
SWIDTH 400 0
DWIDTH 10 0
BBX 6 2 2 6
BITMAP
FC
FC
ENDCHAR
STARTCHAR 00AE
ENCODING 174
SWIDTH 920 0
DWIDTH 23 0
BBX 19 18 2 0
BITMAP
03F800
0E0E00
180300
23F080
431C40
430C40
830C20
831820
83F020
833020
831020
831820
431840
430C40
200080
180300
0E0E00
03F800
ENDCHAR
STARTCHAR 00AF
ENCODING 175
SWIDTH 440 0
DWIDTH 11 0
BBX 11 2 0 17
BITMAP
FFE0
FFE0
ENDCHAR
STARTCHAR 00B0
ENCODING 176
SWIDTH 400 0
DWIDTH 10 0
BBX 7 7 1 11
BITMAP
38
44
82
82
82
44
38
ENDCHAR
STARTCHAR 00B1
ENCODING 177
SWIDTH 720 0
DWIDTH 18 0
BBX 12 15 3 0
BITMAP
0600
0600
0600
0600
0600
FFF0
FFF0
0600
0600
0600
0600
0600
0000
FFF0
FFF0
ENDCHAR
STARTCHAR 00B2
ENCODING 178
SWIDTH 360 0
DWIDTH 9 0
BBX 7 11 1 7
BITMAP
3C
46
06
06
06
0C
1C
38
70
60
FE
ENDCHAR
STARTCHAR 00B3
ENCODING 179
SWIDTH 360 0
DWIDTH 9 0
BBX 6 11 2 7
BITMAP
78
8C
0C
0C
18
70
1C
0C
0C
9C
70
ENDCHAR
STARTCHAR 00B4
ENCODING 180
SWIDTH 280 0
DWIDTH 7 0
BBX 4 4 2 15
BITMAP
30
60
60
C0
ENDCHAR
STARTCHAR 00B5
ENCODING 181
SWIDTH 600 0
DWIDTH 15 0
BBX 11 18 2 -5
BITMAP
C060
C060
C060
C060
C060
C060
C060
C060
C060
C0E0
E1E0
FF60
DE60
C000
C000
C000
C000
C000
ENDCHAR
STARTCHAR 00B6
ENCODING 182
SWIDTH 480 0
DWIDTH 12 0
BBX 10 18 1 0
BITMAP
3FC0
7100
F100
F100
F100
7100
7100
1100
1100
1100
1100
1100
1100
1100
1100
1100
1100
1100
ENDCHAR
STARTCHAR 00B7
ENCODING 183
SWIDTH 200 0
DWIDTH 5 0
BBX 3 3 1 6
BITMAP
E0
E0
E0
ENDCHAR
STARTCHAR 00B8
ENCODING 184
SWIDTH 200 0
DWIDTH 5 0
BBX 4 5 1 -5
BITMAP
80
E0
30
30
E0
ENDCHAR
STARTCHAR 00B9
ENCODING 185
SWIDTH 360 0
DWIDTH 9 0
BBX 6 11 2 7
BITMAP
10
70
B0
30
30
30
30
30
30
30
FC
ENDCHAR
STARTCHAR 00BA
ENCODING 186
SWIDTH 440 0
DWIDTH 11 0
BBX 9 9 1 9
BITMAP
3E00
6300
C180
C180
C180
C180
C180
6300
3E00
ENDCHAR
STARTCHAR 00BB
ENCODING 187
SWIDTH 520 0
DWIDTH 13 0
BBX 11 9 1 3
BITMAP
C600
6300
3180
18C0
0C60
18C0
3180
6300
C600
ENDCHAR
STARTCHAR 00BC
ENCODING 188
SWIDTH 920 0
DWIDTH 23 0
BBX 20 18 2 0
BITMAP
100600
700C00
B00C00
301800
303800
303000
306000
3060E0
30C0E0
30C1E0
FD8360
018260
030660
070C60
060FF0
0C0060
0C0060
180060
ENDCHAR
STARTCHAR 00BD
ENCODING 189
SWIDTH 960 0
DWIDTH 24 0
BBX 20 18 2 0
BITMAP
100600
700C00
B00C00
301800
303800
303000
306000
3061E0
30C230
30C030
FD8030
018030
030060
0700E0
0601C0
0C0380
0C0300
1807F0
ENDCHAR
STARTCHAR 00BE
ENCODING 190
SWIDTH 960 0
DWIDTH 24 0
BBX 21 18 2 0
BITMAP
780300
8C0600
0C0600
0C0C00
181C00
701800
1C3000
0C3070
0C6070
9C60F0
78C1B0
00C130
018330
038630
0307F8
060030
060030
0C0030
ENDCHAR
STARTCHAR 00BF
ENCODING 191
SWIDTH 480 0
DWIDTH 12 0
BBX 9 18 2 -5
BITMAP
0E00
0E00
0E00
0000
0000
0C00
0C00
0C00
1C00
1800
3000
6000
C000
C000
C000
E080
7F80
3E00
ENDCHAR
STARTCHAR 00C0
ENCODING 192
SWIDTH 640 0
DWIDTH 16 0
BBX 16 23 0 0
BITMAP
0600
0300
0180
00C0
0000
0180
03C0
03C0
03C0
0660
0660
0C70
0C30
0C30
1818
1818
1FF8
3FFC
300C
6006
6006
6006
C003
ENDCHAR
STARTCHAR 00C1
ENCODING 193
SWIDTH 640 0
DWIDTH 16 0
BBX 16 23 0 0
BITMAP
00C0
0180
0180
0300
0000
0180
03C0
03C0
03C0
0660
0660
0C70
0C30
0C30
1818
1818
1FF8
3FFC
300C
6006
6006
6006
C003
ENDCHAR
STARTCHAR 00C2
ENCODING 194
SWIDTH 640 0
DWIDTH 16 0
BBX 16 23 0 0
BITMAP
0180
03C0
0660
0C30
0000
0180
03C0
03C0
03C0
0660
0660
0C70
0C30
0C30
1818
1818
1FF8
3FFC
300C
6006
6006
6006
C003
ENDCHAR
STARTCHAR 00C3
ENCODING 195
SWIDTH 640 0
DWIDTH 16 0
BBX 16 22 0 0
BITMAP
0710
08E0
0000
0000
0180
03C0
03C0
03C0
0660
0660
0C70
0C30
0C30
1818
1818
1FF8
3FFC
300C
6006
6006
6006
C003
ENDCHAR
STARTCHAR 00C4
ENCODING 196
SWIDTH 640 0
DWIDTH 16 0
BBX 16 22 0 0
BITMAP
0630
0630
0000
0000
0180
03C0
03C0
03C0
0660
0660
0C70
0C30
0C30
1818
1818
1FF8
3FFC
300C
6006
6006
6006
C003
ENDCHAR
STARTCHAR 00C5
ENCODING 197
SWIDTH 640 0
DWIDTH 16 0
BBX 16 22 0 0
BITMAP
03C0
0460
0420
0460
03C0
0380
03C0
02C0
0640
0660
0C60
0C30
0830
1818
1818
3FF8
3FFC
300C
6006
6006
6006
C003
ENDCHAR
STARTCHAR 00C6
ENCODING 198
SWIDTH 880 0
DWIDTH 22 0
BBX 20 18 0 0
BITMAP
007FF0
00FFF0
00D800
019800
019800
031800
031800
061800
061FE0
0C1FE0
0C1800
1FF800
1FF800
301800
301800
601800
601FF0
C01FF0
ENDCHAR
STARTCHAR 00C7
ENCODING 199
SWIDTH 640 0
DWIDTH 16 0
BBX 14 23 1 -5
BITMAP
03F8
0FFC
1C04
3800
7000
6000
C000
C000
C000
C000
C000
C000
E000
6000
7000
3C04
1FFC
07F0
0100
01C0
0060
0060
01C0
ENDCHAR
STARTCHAR 00C8
ENCODING 200
SWIDTH 520 0
DWIDTH 13 0
BBX 9 23 2 0
BITMAP
6000
3000
1800
0C00
0000
FF80
FF80
C000
C000
C000
C000
C000
C000
FF00
FF00
C000
C000
C000
C000
C000
C000
FF80
FF80
ENDCHAR
STARTCHAR 00C9
ENCODING 201
SWIDTH 520 0
DWIDTH 13 0
BBX 9 23 2 0
BITMAP
0600
0C00
0C00
1800
0000
FF80
FF80
C000
C000
C000
C000
C000
C000
FF00
FF00
C000
C000
C000
C000
C000
C000
FF80
FF80
ENDCHAR
STARTCHAR 00CA
ENCODING 202
SWIDTH 520 0
DWIDTH 13 0
BBX 9 23 2 0
BITMAP
1800
3C00
6600
C300
0000
FF80
FF80
C000
C000
C000
C000
C000
C000
FF00
FF00
C000
C000
C000
C000
C000
C000
FF80
FF80
ENDCHAR
STARTCHAR 00CB
ENCODING 203
SWIDTH 520 0
DWIDTH 13 0
BBX 9 22 2 0
BITMAP
6300
6300
0000
0000
FF80
FF80
C000
C000
C000
C000
C000
C000
FF00
FF00
C000
C000
C000
C000
C000
C000
FF80
FF80
ENDCHAR
STARTCHAR 00CC
ENCODING 204
SWIDTH 280 0
DWIDTH 7 0
BBX 6 23 0 0
BITMAP
C0
60
30
18
00
FC
FC
30
30
30
30
30
30
30
30
30
30
30
30
30
30
FC
FC
ENDCHAR
STARTCHAR 00CD
ENCODING 205
SWIDTH 280 0
DWIDTH 7 0
BBX 6 23 0 0
BITMAP
0C
18
18
30
00
FC
FC
30
30
30
30
30
30
30
30
30
30
30
30
30
30
FC
FC
ENDCHAR
STARTCHAR 00CE
ENCODING 206
SWIDTH 280 0
DWIDTH 7 0
BBX 8 23 -1 0
BITMAP
18
3C
66
C3
00
7E
7E
18
18
18
18
18
18
18
18
18
18
18
18
18
18
7E
7E
ENDCHAR
STARTCHAR 00CF
ENCODING 207
SWIDTH 280 0
DWIDTH 7 0
BBX 7 22 0 0
BITMAP
C6
C6
00
00
FC
FC
30
30
30
30
30
30
30
30
30
30
30
30
30
30
FC
FC
ENDCHAR
STARTCHAR 00D0
ENCODING 208
SWIDTH 720 0
DWIDTH 18 0
BBX 17 18 0 0
BITMAP
3FE000
3FFC00
301E00
300700
300300
300380
300180
300180
FF8180
FF8180
300180
300180
300300
300700
300E00
303C00
3FF800
3FE000
ENDCHAR
STARTCHAR 00D1
ENCODING 209
SWIDTH 760 0
DWIDTH 19 0
BBX 15 22 2 0
BITMAP
0710
08E0
0000
0000
E006
F006
F806
D806
DC06
CC06
C606
C306
C306
C186
C0C6
C0C6
C066
C036
C036
C01E
C00E
C00E
ENDCHAR
STARTCHAR 00D2
ENCODING 210
SWIDTH 760 0
DWIDTH 19 0
BBX 17 23 1 0
BITMAP
030000
018000
00C000
006000
000000
03F000
1FFC00
3C1E00
300700
600300
600300
C00180
C00180
C00180
C00180
C00180
C00180
E00300
600300
700600
3C1E00
1FFC00
07F000
ENDCHAR
STARTCHAR 00D3
ENCODING 211
SWIDTH 760 0
DWIDTH 19 0
BBX 17 23 1 0
BITMAP
006000
00C000
00C000
018000
000000
03F000
1FFC00
3C1E00
300700
600300
600300
C00180
C00180
C00180
C00180
C00180
C00180
E00300
600300
700600
3C1E00
1FFC00
07F000
ENDCHAR
STARTCHAR 00D4
ENCODING 212
SWIDTH 760 0
DWIDTH 19 0
BBX 17 23 1 0
BITMAP
00C000
01E000
033000
061800
000000
03F000
1FFC00
3C1E00
300700
600300
600300
C00180
C00180
C00180
C00180
C00180
C00180
E00300
600300
700600
3C1E00
1FFC00
07F000
ENDCHAR
STARTCHAR 00D5
ENCODING 213
SWIDTH 760 0
DWIDTH 19 0
BBX 17 22 1 0
BITMAP
038800
047000
000000
000000
03F000
1FFC00
3C1E00
300700
600300
600300
C00180
C00180
C00180
C00180
C00180
C00180
E00300
600300
700600
3C1E00
1FFC00
07F000
ENDCHAR
STARTCHAR 00D6
ENCODING 214
SWIDTH 760 0
DWIDTH 19 0
BBX 17 22 1 0
BITMAP
063000
063000
000000
000000
03F000
1FFC00
3C1E00
300700
600300
600300
C00180
C00180
C00180
C00180
C00180
C00180
E00300
600300
700600
3C1E00
1FFC00
07F000
ENDCHAR
STARTCHAR 00D7
ENCODING 215
SWIDTH 720 0
DWIDTH 18 0
BBX 12 11 3 2
BITMAP
4020
E070
30C0
1980
0F00
0600
0F00
1980
30C0
E070
4020
ENDCHAR
STARTCHAR 00D8
ENCODING 216
SWIDTH 760 0
DWIDTH 19 0
BBX 17 18 1 0
BITMAP
03F100
0FFB00
3C1E00
300E00
601B00
601300
C02180
C04180
C08180
C18180
C30180
C60180
6C0300
780300
300700
3C1E00
4FFC00
87F000
ENDCHAR
STARTCHAR 00D9
ENCODING 217
SWIDTH 720 0
DWIDTH 18 0
BBX 14 23 2 0
BITMAP
0C00
0600
0300
0180
0000
C00C
C00C
C00C
C00C
C00C
C00C
C00C
C00C
C00C
C00C
C00C
C00C
C00C
E00C
6018
7038
3FF0
0FC0
ENDCHAR
STARTCHAR 00DA
ENCODING 218
SWIDTH 720 0
DWIDTH 18 0
BBX 14 23 2 0
BITMAP
00C0
0180
0180
0300
0000
C00C
C00C
C00C
C00C
C00C
C00C
C00C
C00C
C00C
C00C
C00C
C00C
C00C
E00C
6018
7038
3FF0
0FC0
ENDCHAR
STARTCHAR 00DB
ENCODING 219
SWIDTH 720 0
DWIDTH 18 0
BBX 14 23 2 0
BITMAP
0300
0780
0CC0
1860
0000
C00C
C00C
C00C
C00C
C00C
C00C
C00C
C00C
C00C
C00C
C00C
C00C
C00C
E00C
6018
7038
3FF0
0FC0
ENDCHAR
STARTCHAR 00DC
ENCODING 220
SWIDTH 720 0
DWIDTH 18 0
BBX 14 22 2 0
BITMAP
0C60
0C60
0000
0000
C00C
C00C
C00C
C00C
C00C
C00C
C00C
C00C
C00C
C00C
C00C
C00C
C00C
E00C
6018
7038
3FF0
0FC0
ENDCHAR
STARTCHAR 00DD
ENCODING 221
SWIDTH 560 0
DWIDTH 14 0
BBX 14 23 0 0
BITMAP
00C0
0180
0180
0300
0000
C00C
6018
6018
3030
3870
1860
0CC0
0CC0
0780
0780
0300
0300
0300
0300
0300
0300
0300
0300
ENDCHAR
STARTCHAR 00DE
ENCODING 222
SWIDTH 560 0
DWIDTH 14 0
BBX 11 18 2 0
BITMAP
C000
C000
C000
FF00
FFC0
C1C0
C0E0
C060
C060
C060
C0E0
C1C0
FF80
FE00
C000
C000
C000
C000
ENDCHAR
STARTCHAR 00DF
ENCODING 223
SWIDTH 560 0
DWIDTH 14 0
BBX 11 19 2 0
BITMAP
1F00
7F80
61C0
C0C0
C0C0
C0C0
C180
C300
CE00
CF00
C3C0
C0C0
C060
C060
C060
C060
C0C0
CFC0
CF00
ENDCHAR
STARTCHAR 00E0
ENCODING 224
SWIDTH 520 0
DWIDTH 13 0
BBX 10 19 1 0
BITMAP
1800
0C00
0600
0300
0000
0000
3F00
7F80
41C0
00C0
00C0
0FC0
7FC0
F0C0
C0C0
C1C0
E3C0
7EC0
3CC0
ENDCHAR
STARTCHAR 00E1
ENCODING 225
SWIDTH 520 0
DWIDTH 13 0
BBX 10 19 1 0
BITMAP
0300
0600
0600
0C00
0000
0000
3F00
7F80
41C0
00C0
00C0
0FC0
7FC0
F0C0
C0C0
C1C0
E3C0
7EC0
3CC0
ENDCHAR
STARTCHAR 00E2
ENCODING 226
SWIDTH 520 0
DWIDTH 13 0
BBX 10 19 1 0
BITMAP
0600
0F00
1980
30C0
0000
0000
3F00
7F80
41C0
00C0
00C0
0FC0
7FC0
F0C0
C0C0
C1C0
E3C0
7EC0
3CC0
ENDCHAR
STARTCHAR 00E3
ENCODING 227
SWIDTH 520 0
DWIDTH 13 0
BBX 10 18 1 0
BITMAP
1C40
2380
0000
0000
0000
3F00
7F80
41C0
00C0
00C0
0FC0
7FC0
F0C0
C0C0
C1C0
E3C0
7EC0
3CC0
ENDCHAR
STARTCHAR 00E4
ENCODING 228
SWIDTH 520 0
DWIDTH 13 0
BBX 10 18 1 0
BITMAP
3180
3180
0000
0000
0000
3F00
7F80
41C0
00C0
00C0
0FC0
7FC0
F0C0
C0C0
C1C0
E3C0
7EC0
3CC0
ENDCHAR
STARTCHAR 00E5
ENCODING 229
SWIDTH 520 0
DWIDTH 13 0
BBX 10 20 1 0
BITMAP
0E00
1100
1100
1100
0E00
0000
0000
3F00
7F80
41C0
00C0
00C0
0FC0
7FC0
F0C0
C0C0
C1C0
E3C0
7EC0
3CC0
ENDCHAR
STARTCHAR 00E6
ENCODING 230
SWIDTH 840 0
DWIDTH 21 0
BBX 19 13 1 0
BITMAP
3E1F00
7FBF80
41F0C0
00E060
00C060
1FFFE0
7FFFE0
E0C000
C0C000
C1E000
E3F040
7F3FC0
3C1F80
ENDCHAR
STARTCHAR 00E7
ENCODING 231
SWIDTH 480 0
DWIDTH 12 0
BBX 10 18 1 -5
BITMAP
0F80
3FC0
7840
6000
C000
C000
C000
C000
C000
6000
7040
3FC0
0F80
0400
0700
0180
0180
0700
ENDCHAR
STARTCHAR 00E8
ENCODING 232
SWIDTH 520 0
DWIDTH 13 0
BBX 11 19 1 0
BITMAP
1800
0C00
0600
0300
0000
0000
1F00
3FC0
70C0
6060
C060
FFE0
FFE0
C000
C000
E000
7040
3FC0
1F80
ENDCHAR
STARTCHAR 00E9
ENCODING 233
SWIDTH 520 0
DWIDTH 13 0
BBX 11 19 1 0
BITMAP
0180
0300
0300
0600
0000
0000
1F00
3FC0
70C0
6060
C060
FFE0
FFE0
C000
C000
E000
7040
3FC0
1F80
ENDCHAR
STARTCHAR 00EA
ENCODING 234
SWIDTH 520 0
DWIDTH 13 0
BBX 11 19 1 0
BITMAP
0600
0F00
1980
30C0
0000
0000
1F00
3FC0
70C0
6060
C060
FFE0
FFE0
C000
C000
E000
7040
3FC0
1F80
ENDCHAR
STARTCHAR 00EB
ENCODING 235
SWIDTH 520 0
DWIDTH 13 0
BBX 11 18 1 0
BITMAP
3180
3180
0000
0000
0000
1F00
3FC0
70C0
6060
C060
FFE0
FFE0
C000
C000
E000
7040
3FC0
1F80
ENDCHAR
STARTCHAR 00EC
ENCODING 236
SWIDTH 240 0
DWIDTH 6 0
BBX 5 19 0 0
BITMAP
C0
60
30
18
00
00
30
30
30
30
30
30
30
30
30
30
30
30
30
ENDCHAR
STARTCHAR 00ED
ENCODING 237
SWIDTH 240 0
DWIDTH 6 0
BBX 4 19 2 0
BITMAP
30
60
60
C0
00
00
C0
C0
C0
C0
C0
C0
C0
C0
C0
C0
C0
C0
C0
ENDCHAR
STARTCHAR 00EE
ENCODING 238
SWIDTH 240 0
DWIDTH 6 0
BBX 8 19 -1 0
BITMAP
18
3C
66
C3
00
00
18
18
18
18
18
18
18
18
18
18
18
18
18
ENDCHAR
STARTCHAR 00EF
ENCODING 239
SWIDTH 240 0
DWIDTH 6 0
BBX 7 18 0 0
BITMAP
C6
C6
00
00
00
30
30
30
30
30
30
30
30
30
30
30
30
30
ENDCHAR
STARTCHAR 00F0
ENCODING 240
SWIDTH 560 0
DWIDTH 14 0
BBX 12 19 1 0
BITMAP
1C20
0EC0
0780
0F80
1980
30C0
0F60
3FE0
70E0
6070
C030
C030
C030
C030
C030
E060
70E0
3FC0
1F80
ENDCHAR
STARTCHAR 00F1
ENCODING 241
SWIDTH 560 0
DWIDTH 14 0
BBX 10 18 2 0
BITMAP
3880
4700
0000
0000
0000
CF00
DF80
F1C0
E0C0
C0C0
C0C0
C0C0
C0C0
C0C0
C0C0
C0C0
C0C0
C0C0
ENDCHAR
STARTCHAR 00F2
ENCODING 242
SWIDTH 600 0
DWIDTH 15 0
BBX 13 19 1 0
BITMAP
0C00
0600
0300
0180
0000
0000
0F80
3FE0
7070
6030
C018
C018
C018
C018
C018
6030
7070
3FE0
0F80
ENDCHAR
STARTCHAR 00F3
ENCODING 243
SWIDTH 600 0
DWIDTH 15 0
BBX 13 19 1 0
BITMAP
0180
0300
0300
0600
0000
0000
0F80
3FE0
7070
6030
C018
C018
C018
C018
C018
6030
7070
3FE0
0F80
ENDCHAR
STARTCHAR 00F4
ENCODING 244
SWIDTH 600 0
DWIDTH 15 0
BBX 13 19 1 0
BITMAP
0300
0780
0CC0
1860
0000
0000
0F80
3FE0
7070
6030
C018
C018
C018
C018
C018
6030
7070
3FE0
0F80
ENDCHAR
STARTCHAR 00F5
ENCODING 245
SWIDTH 600 0
DWIDTH 15 0
BBX 13 18 1 0
BITMAP
0E20
11C0
0000
0000
0000
0F80
3FE0
7070
6030
C018
C018
C018
C018
C018
6030
7070
3FE0
0F80
ENDCHAR
STARTCHAR 00F6
ENCODING 246
SWIDTH 600 0
DWIDTH 15 0
BBX 13 18 1 0
BITMAP
18C0
18C0
0000
0000
0000
0F80
3FE0
7070
6030
C018
C018
C018
C018
C018
6030
7070
3FE0
0F80
ENDCHAR
STARTCHAR 00F7
ENCODING 247
SWIDTH 720 0
DWIDTH 18 0
BBX 13 14 3 0
BITMAP
0700
0700
0700
0000
0000
0000
FFF8
FFF8
0000
0000
0000
0700
0700
0700
ENDCHAR
STARTCHAR 00F8
ENCODING 248
SWIDTH 600 0
DWIDTH 15 0
BBX 15 15 0 -1
BITMAP
0006
07CC
1FF8
3838
3038
606C
60CC
618C
630C
660C
7C18
3838
3FF0
6FC0
C000
ENDCHAR
STARTCHAR 00F9
ENCODING 249
SWIDTH 560 0
DWIDTH 14 0
BBX 10 19 2 0
BITMAP
3000
1800
0C00
0600
0000
0000
C0C0
C0C0
C0C0
C0C0
C0C0
C0C0
C0C0
C0C0
C0C0
C1C0
E3C0
7EC0
3CC0
ENDCHAR
STARTCHAR 00FA
ENCODING 250
SWIDTH 560 0
DWIDTH 14 0
BBX 10 19 2 0
BITMAP
0300
0600
0600
0C00
0000
0000
C0C0
C0C0
C0C0
C0C0
C0C0
C0C0
C0C0
C0C0
C0C0
C1C0
E3C0
7EC0
3CC0
ENDCHAR
STARTCHAR 00FB
ENCODING 251
SWIDTH 560 0
DWIDTH 14 0
BBX 10 19 2 0
BITMAP
0C00
1E00
3300
6180
0000
0000
C0C0
C0C0
C0C0
C0C0
C0C0
C0C0
C0C0
C0C0
C0C0
C1C0
E3C0
7EC0
3CC0
ENDCHAR
STARTCHAR 00FC
ENCODING 252
SWIDTH 560 0
DWIDTH 14 0
BBX 10 18 2 0
BITMAP
3180
3180
0000
0000
0000
C0C0
C0C0
C0C0
C0C0
C0C0
C0C0
C0C0
C0C0
C0C0
C1C0
E3C0
7EC0
3CC0
ENDCHAR
STARTCHAR 00FD
ENCODING 253
SWIDTH 480 0
DWIDTH 12 0
BBX 12 25 0 -6
BITMAP
0180
0300
0300
0600
0000
0000
C030
6060
6060
6060
30C0
30C0
1080
1980
1980
0F00
0F00
0600
0600
0600
0C00
0C00
1800
F800
E000
ENDCHAR
STARTCHAR 00FE
ENCODING 254
SWIDTH 600 0
DWIDTH 15 0
BBX 12 25 2 -6
BITMAP
C000
C000
C000
C000
C000
C000
CF80
DFC0
F0E0
E070
C030
C030
C030
C030
C030
E060
F0E0
DFC0
CF80
C000
C000
C000
C000
C000
C000
ENDCHAR
STARTCHAR 00FF
ENCODING 255
SWIDTH 480 0
DWIDTH 12 0
BBX 12 24 0 -6
BITMAP
18C0
18C0
0000
0000
0000
C030
6060
6060
6060
30C0
30C0
1080
1980
1980
0F00
0F00
0600
0600
0600
0C00
0C00
1800
F800
E000
ENDCHAR
STARTCHAR 0111
ENCODING 273
SWIDTH 600 0
DWIDTH 15 0
BBX 14 19 1 0
BITMAP
0030
0030
03FC
03FC
0030
0030
0F30
3FB0
70F0
6070
E030
C030
C030
C030
C030
6070
70F0
3FB0
1F30
ENDCHAR
STARTCHAR 0126
ENCODING 294
SWIDTH 720 0
DWIDTH 18 0
BBX 18 18 0 0
BITMAP
300300
300300
300300
FFFFC0
FFFFC0
300300
300300
300300
3FFF00
3FFF00
300300
300300
300300
300300
300300
300300
300300
300300
ENDCHAR
STARTCHAR 0127
ENCODING 295
SWIDTH 560 0
DWIDTH 14 0
BBX 12 19 0 0
BITMAP
3000
3000
FF00
FF00
3000
3000
33C0
37E0
3C70
3830
3030
3030
3030
3030
3030
3030
3030
3030
3030
ENDCHAR
STARTCHAR 0131
ENCODING 305
SWIDTH 240 0
DWIDTH 6 0
BBX 2 13 2 0
BITMAP
C0
C0
C0
C0
C0
C0
C0
C0
C0
C0
C0
C0
C0
ENDCHAR
STARTCHAR 0132
ENCODING 306
SWIDTH 640 0
DWIDTH 16 0
BBX 14 18 0 0
BITMAP
FC0C
FC0C
300C
300C
300C
300C
300C
300C
300C
300C
300C
300C
300C
300C
301C
3018
FDF0
FDE0
ENDCHAR
STARTCHAR 0133
ENCODING 307
SWIDTH 480 0
DWIDTH 12 0
BBX 9 25 2 -6
BITMAP
E380
E380
E380
0000
0000
0000
C300
C300
C300
C300
C300
C300
C300
C300
C300
C300
C300
C300
C300
0300
0300
0300
0600
3E00
3C00
ENDCHAR
STARTCHAR 0138
ENCODING 312
SWIDTH 520 0
DWIDTH 13 0
BBX 10 13 2 0
BITMAP
C1C0
C380
C700
CE00
DC00
F800
F000
D800
CC00
C600
C300
C180
C0C0
ENDCHAR
STARTCHAR 013F
ENCODING 319
SWIDTH 480 0
DWIDTH 12 0
BBX 10 18 2 0
BITMAP
C000
C000
C000
C000
C000
C000
C000
C300
C300
C000
C000
C000
C000
C000
C000
C000
FFC0
FFC0
ENDCHAR
STARTCHAR 0140
ENCODING 320
SWIDTH 320 0
DWIDTH 8 0
BBX 6 19 2 0
BITMAP
C0
C0
C0
C0
C0
C0
C0
C0
CC
CC
C0
C0
C0
C0
C0
C0
C0
C0
C0
ENDCHAR
STARTCHAR 0141
ENCODING 321
SWIDTH 480 0
DWIDTH 12 0
BBX 11 18 0 0
BITMAP
3000
3000
3000
3000
3000
3100
3300
3E00
3C00
7000
F000
B000
3000
3000
3000
3000
3FE0
3FE0
ENDCHAR
STARTCHAR 0142
ENCODING 322
SWIDTH 240 0
DWIDTH 6 0
BBX 6 19 0 0
BITMAP
30
30
30
30
30
30
30
34
3C
38
70
F0
B0
30
30
30
30
30
30
ENDCHAR
STARTCHAR 0149
ENCODING 329
SWIDTH 600 0
DWIDTH 15 0
BBX 14 18 -1 0
BITMAP
6000
6000
4000
C000
C000
8CF0
0DF8
0F1C
0E0C
0C0C
0C0C
0C0C
0C0C
0C0C
0C0C
0C0C
0C0C
0C0C
ENDCHAR
STARTCHAR 014A
ENCODING 330
SWIDTH 760 0
DWIDTH 19 0
BBX 15 23 2 -5
BITMAP
E006
F006
F006
D806
CC06
CE06
C606
C306
C386
C186
C0C6
C0E6
C066
C036
C01E
C01E
C00E
C006
0006
0006
000C
00FC
00F0
ENDCHAR
STARTCHAR 014B
ENCODING 331
SWIDTH 560 0
DWIDTH 14 0
BBX 10 18 2 -5
BITMAP
CF00
DF80
F1C0
E0C0
C0C0
C0C0
C0C0
C0C0
C0C0
C0C0
C0C0
C0C0
C0C0
00C0
00C0
01C0
0F80
0F00
ENDCHAR
STARTCHAR 0152
ENCODING 338
SWIDTH 960 0
DWIDTH 24 0
BBX 21 18 1 0
BITMAP
03FFF8
0FFFF8
3C0C00
300C00
600C00
600C00
C00C00
C00C00
C00FF0
C00FF0
C00C00
C00C00
E00C00
600C00
700C00
3C0C00
1FFFF8
07FFF8
ENDCHAR
STARTCHAR 0153
ENCODING 339
SWIDTH 960 0
DWIDTH 24 0
BBX 22 13 1 0
BITMAP
0FC3E0
3FE7F8
707E18
603C0C
C0180C
C01FFC
C01FFC
C01800
C01800
603C00
707E08
3FE7F8
0F83F0
ENDCHAR
STARTCHAR 0160
ENCODING 352
SWIDTH 560 0
DWIDTH 14 0
BBX 11 23 2 0
BITMAP
30C0
1980
0F00
0600
0000
1F80
7FC0
6040
C000
C000
C000
E000
7800
1E00
0F80
03C0
00C0
0060
0060
0060
80C0
FFC0
7F00
ENDCHAR
STARTCHAR 0161
ENCODING 353
SWIDTH 440 0
DWIDTH 11 0
BBX 9 19 1 0
BITMAP
6180
3300
1E00
0C00
0000
0000
3E00
7F00
E100
C000
C000
7000
3E00
0700
0180
0180
8380
FF00
7E00
ENDCHAR
STARTCHAR 0166
ENCODING 358
SWIDTH 520 0
DWIDTH 13 0
BBX 12 18 1 0
BITMAP
FFF0
FFF0
0600
0600
0600
0600
0600
0600
3FC0
3FC0
0600
0600
0600
0600
0600
0600
0600
0600
ENDCHAR
STARTCHAR 0167
ENCODING 359
SWIDTH 360 0
DWIDTH 9 0
BBX 7 17 1 0
BITMAP
30
30
30
30
FE
FE
30
30
FE
FE
30
30
30
30
30
3E
1E
ENDCHAR
STARTCHAR 0178
ENCODING 376
SWIDTH 560 0
DWIDTH 14 0
BBX 14 22 0 0
BITMAP
0C60
0C60
0000
0000
C00C
6018
6018
3030
3870
1860
0CC0
0CC0
0780
0780
0300
0300
0300
0300
0300
0300
0300
0300
ENDCHAR
STARTCHAR 017D
ENCODING 381
SWIDTH 600 0
DWIDTH 15 0
BBX 14 23 0 0
BITMAP
0C30
0660
03C0
0180
0000
7FFC
7FF8
0018
0030
0060
00C0
00C0
0180
0300
0300
0600
0C00
0800
1800
3000
6000
7FFC
FFFC
ENDCHAR
STARTCHAR 017E
ENCODING 382
SWIDTH 480 0
DWIDTH 12 0
BBX 11 19 0 0
BITMAP
30C0
1980
0F00
0600
0000
0000
7FE0
7FC0
0080
0180
0300
0600
0400
0C00
1800
3000
6000
7FE0
FFE0
ENDCHAR
STARTCHAR 0192
ENCODING 402
SWIDTH 560 0
DWIDTH 14 0
BBX 11 21 1 -3
BITMAP
01E0
03E0
0300
0600
0600
0600
1F80
1F80
0600
0C00
0C00
0C00
0C00
0C00
0C00
0C00
1800
1800
3800
F000
E000
ENDCHAR
STARTCHAR 02C6
ENCODING 710
SWIDTH 400 0
DWIDTH 10 0
BBX 8 4 1 15
BITMAP
18
3C
66
C3
ENDCHAR
STARTCHAR 02C7
ENCODING 711
SWIDTH 400 0
DWIDTH 10 0
BBX 8 4 1 15
BITMAP
C3
66
3C
18
ENDCHAR
STARTCHAR 02D0
ENCODING 720
SWIDTH 240 0
DWIDTH 6 0
BBX 3 13 1 0
BITMAP
E0
40
40
00
00
00
00
00
00
00
40
40
E0
ENDCHAR
STARTCHAR 02D8
ENCODING 728
SWIDTH 320 0
DWIDTH 8 0
BBX 8 3 0 15
BITMAP
81
C2
3C
ENDCHAR
STARTCHAR 02D9
ENCODING 729
SWIDTH 200 0
DWIDTH 5 0
BBX 2 2 1 16
BITMAP
C0
C0
ENDCHAR
STARTCHAR 02DA
ENCODING 730
SWIDTH 280 0
DWIDTH 7 0
BBX 5 5 1 15
BITMAP
70
88
88
88
70
ENDCHAR
STARTCHAR 02DB
ENCODING 731
SWIDTH 200 0
DWIDTH 5 0
BBX 4 5 1 -5
BITMAP
30
60
C0
C0
70
ENDCHAR
STARTCHAR 02DC
ENCODING 732
SWIDTH 360 0
DWIDTH 9 0
BBX 8 2 0 16
BITMAP
71
8E
ENDCHAR
STARTCHAR 02DD
ENCODING 733
SWIDTH 320 0
DWIDTH 8 0
BBX 7 4 1 15
BITMAP
36
6C
48
90
ENDCHAR
STARTCHAR 0391
ENCODING 913
SWIDTH 640 0
DWIDTH 16 0
BBX 16 18 0 0
BITMAP
0180
03C0
03C0
03C0
0660
0660
0C70
0C30
0C30
1818
1818
1FF8
3FFC
300C
6006
6006
6006
C003
ENDCHAR
STARTCHAR 0392
ENCODING 914
SWIDTH 600 0
DWIDTH 15 0
BBX 11 18 2 0
BITMAP
FE00
FF80
C1C0
C0C0
C0C0
C0C0
C0C0
C380
FF00
FF80
C1C0
C060
C060
C060
C060
C1C0
FF80
FF00
ENDCHAR
STARTCHAR 0393
ENCODING 915
SWIDTH 480 0
DWIDTH 12 0
BBX 9 18 2 0
BITMAP
FF80
FF80
C000
C000
C000
C000
C000
C000
C000
C000
C000
C000
C000
C000
C000
C000
C000
C000
ENDCHAR
STARTCHAR 0394
ENCODING 916
SWIDTH 640 0
DWIDTH 16 0
BBX 14 18 1 0
BITMAP
0300
0780
0780
0780
0CC0
0CC0
0CC0
18E0
1860
1860
3870
3030
3030
7038
6018
6018
FFFC
FFFC
ENDCHAR
STARTCHAR 0395
ENCODING 917
SWIDTH 520 0
DWIDTH 13 0
BBX 9 18 2 0
BITMAP
FF80
FF80
C000
C000
C000
C000
C000
C000
FF00
FF00
C000
C000
C000
C000
C000
C000
FF80
FF80
ENDCHAR
STARTCHAR 0396
ENCODING 918
SWIDTH 600 0
DWIDTH 15 0
BBX 14 18 0 0
BITMAP
7FFC
7FF8
0018
0030
0060
00C0
00C0
0180
0300
0300
0600
0C00
0800
1800
3000
6000
7FFC
FFFC
ENDCHAR
STARTCHAR 0397
ENCODING 919
SWIDTH 720 0
DWIDTH 18 0
BBX 14 18 2 0
BITMAP
C00C
C00C
C00C
C00C
C00C
C00C
C00C
C00C
FFFC
FFFC
C00C
C00C
C00C
C00C
C00C
C00C
C00C
C00C
ENDCHAR
STARTCHAR 0398
ENCODING 920
SWIDTH 760 0
DWIDTH 19 0
BBX 17 18 1 0
BITMAP
03F000
0FFC00
3C1E00
300700
600300
600380
C00180
C00180
C7F180
C7F180
C00180
C00180
E00300
600300
700600
3C1E00
1FFC00
07F000
ENDCHAR
STARTCHAR 0399
ENCODING 921
SWIDTH 280 0
DWIDTH 7 0
BBX 6 18 0 0
BITMAP
FC
FC
30
30
30
30
30
30
30
30
30
30
30
30
30
30
FC
FC
ENDCHAR
STARTCHAR 039A
ENCODING 922
SWIDTH 600 0
DWIDTH 15 0
BBX 13 18 2 0
BITMAP
C030
C060
C0C0
C180
C300
C700
CE00
DC00
F800
DC00
CE00
CE00
C700
C380
C1C0
C0E0
C070
C038
ENDCHAR
STARTCHAR 039B
ENCODING 923
SWIDTH 640 0
DWIDTH 16 0
BBX 16 18 0 0
BITMAP
0180
03C0
03C0
03C0
0660
0660
0C30
0C30
0C30
1818
1818
300C
300C
300C
6006
6006
C003
C003
ENDCHAR
STARTCHAR 039C
ENCODING 924
SWIDTH 920 0
DWIDTH 23 0
BBX 19 18 2 0
BITMAP
E00060
F000E0
F000E0
F801E0
D80160
D80360
CC0260
CC0660
C60460
C60C60
C30860
C31860
C31860
C1B060
C1B060
C0E060
C0E060
C04060
ENDCHAR
STARTCHAR 039D
ENCODING 925
SWIDTH 760 0
DWIDTH 19 0
BBX 15 18 2 0
BITMAP
E006
F006
F806
D806
DC06
CC06
C606
C306
C306
C186
C0C6
C0C6
C066
C036
C036
C01E
C00E
C00E
ENDCHAR
STARTCHAR 039E
ENCODING 926
SWIDTH 520 0
DWIDTH 13 0
BBX 11 18 1 0
BITMAP
FFE0
FFE0
0000
0000
0000
0000
0000
0000
3F80
3F80
0000
0000
0000
0000
0000
0000
FFE0
FFE0
ENDCHAR
STARTCHAR 039F
ENCODING 927
SWIDTH 760 0
DWIDTH 19 0
BBX 17 18 1 0
BITMAP
03F000
1FFC00
3C1E00
300700
600300
600300
C00180
C00180
C00180
C00180
C00180
C00180
E00300
600300
700600
3C1E00
1FFC00
07F000
ENDCHAR
STARTCHAR 03A0
ENCODING 928
SWIDTH 720 0
DWIDTH 18 0
BBX 14 18 2 0
BITMAP
FFFC
FFFC
E00C
E00C
E00C
E00C
E00C
E00C
E00C
E00C
E00C
E00C
E00C
E00C
E00C
E00C
E00C
E00C
ENDCHAR
STARTCHAR 03A1
ENCODING 929
SWIDTH 560 0
DWIDTH 14 0
BBX 11 18 2 0
BITMAP
FF00
FF80
C1C0
C0E0
C060
C060
C060
C0E0
C1C0
FF80
FE00
C000
C000
C000
C000
C000
C000
C000
ENDCHAR
STARTCHAR 03A3
ENCODING 931
SWIDTH 520 0
DWIDTH 13 0
BBX 12 18 1 0
BITMAP
7FE0
7FE0
3000
1800
1C00
0C00
0600
0600
0300
0300
0600
0C00
1800
1800
3000
6000
FFF0
FFF0
ENDCHAR
STARTCHAR 03A4
ENCODING 932
SWIDTH 520 0
DWIDTH 13 0
BBX 12 18 1 0
BITMAP
FFF0
FFF0
0600
0600
0600
0600
0600
0600
0600
0600
0600
0600
0600
0600
0600
0600
0600
0600
ENDCHAR
STARTCHAR 03A5
ENCODING 933
SWIDTH 560 0
DWIDTH 14 0
BBX 14 18 0 0
BITMAP
C00C
6018
6018
3030
3870
1860
0CC0
0CC0
0780
0780
0300
0300
0300
0300
0300
0300
0300
0300
ENDCHAR
STARTCHAR 03A6
ENCODING 934
SWIDTH 760 0
DWIDTH 19 0
BBX 17 18 1 0
BITMAP
00C000
00C000
0FF800
3FFE00
78C700
60C300
C0C180
C0C180
C0C180
C0C180
C0C180
60C300
78C700
3FFE00
0FF800
00C000
00C000
00C000
ENDCHAR
STARTCHAR 03A7
ENCODING 935
SWIDTH 600 0
DWIDTH 15 0
BBX 15 18 0 0
BITMAP
C006
600C
3018
1030
1870
0C60
04C0
0780
0380
0380
0680
0640
0C60
1830
1810
3018
600C
C006
ENDCHAR
STARTCHAR 03A8
ENCODING 936
SWIDTH 800 0
DWIDTH 20 0
BBX 16 18 2 0
BITMAP
C183
C183
C183
C183
C183
C183
C183
C183
C183
6186
718E
3FFC
0FF0
0180
0180
0180
0180
0180
ENDCHAR
STARTCHAR 03A9
ENCODING 937
SWIDTH 760 0
DWIDTH 19 0
BBX 17 18 1 0
BITMAP
07F000
1FFC00
3C1E00
700700
600300
E00380
C00180
C00180
C00180
C00180
C00180
600300
600300
700700
300600
180C00
FC1F80
FC1F80
ENDCHAR
STARTCHAR 03B1
ENCODING 945
SWIDTH 640 0
DWIDTH 16 0
BBX 14 13 1 0
BITMAP
1F0C
3F98
70D8
6078
C070
C030
C020
C070
C070
E0F0
71D8
3F9C
1E0C
ENDCHAR
STARTCHAR 03B2
ENCODING 946
SWIDTH 560 0
DWIDTH 14 0
BBX 11 25 2 -6
BITMAP
1F00
7F80
61C0
C0C0
C0C0
C0C0
C180
C300
CE00
CF00
C3C0
C0C0
C060
C060
C060
C060
E0C0
FFC0
DF00
C000
C000
C000
C000
C000
C000
ENDCHAR
STARTCHAR 03B3
ENCODING 947
SWIDTH 520 0
DWIDTH 13 0
BBX 12 19 0 -6
BITMAP
C030
6030
6030
3030
3030
1860
1860
0C60
0CC0
0CC0
0780
0700
0700
0600
0600
0600
0600
0600
0600
ENDCHAR
STARTCHAR 03B4
ENCODING 948
SWIDTH 600 0
DWIDTH 15 0
BBX 13 19 1 0
BITMAP
0FE0
1FF0
3810
3000
3800
1C00
0700
0FC0
38E0
7070
6030
C018
C018
C018
C018
E030
7070
3FE0
0F80
ENDCHAR
STARTCHAR 03B5
ENCODING 949
SWIDTH 440 0
DWIDTH 11 0
BBX 9 13 1 0
BITMAP
3E00
7F00
E100
C000
E000
7E00
7E00
E000
C000
C000
E080
7F80
3F00
ENDCHAR
STARTCHAR 03B6
ENCODING 950
SWIDTH 440 0
DWIDTH 11 0
BBX 10 23 1 -4
BITMAP
3F80
3F80
0380
0600
0C00
0C00
1800
3000
6000
6000
E000
C000
C000
C000
C000
E000
7000
7E00
1F80
01C0
00C0
00C0
0180
ENDCHAR
STARTCHAR 03B7
ENCODING 951
SWIDTH 600 0
DWIDTH 15 0
BBX 11 19 2 -6
BITMAP
CF80
DFC0
F0E0
E0E0
C060
C060
C060
C060
C060
C060
C060
C060
C060
0060
0060
0060
0060
0060
0060
ENDCHAR
STARTCHAR 03B8
ENCODING 952
SWIDTH 600 0
DWIDTH 15 0
BBX 13 19 1 0
BITMAP
0F80
1FE0
3870
6030
6030
C018
C018
C018
FFF8
FFF8
C018
C018
C018
C038
6030
6030
38E0
3FC0
0F80
ENDCHAR
STARTCHAR 03B9
ENCODING 953
SWIDTH 280 0
DWIDTH 7 0
BBX 4 13 2 0
BITMAP
C0
C0
C0
C0
C0
C0
C0
C0
C0
C0
C0
F0
70
ENDCHAR
STARTCHAR 03BA
ENCODING 954
SWIDTH 520 0
DWIDTH 13 0
BBX 11 13 2 0
BITMAP
C1C0
C3C0
C300
C600
CC00
D800
FC00
EE00
C600
C300
C180
C0C0
C060
ENDCHAR
STARTCHAR 03BB
ENCODING 955
SWIDTH 520 0
DWIDTH 13 0
BBX 13 19 0 0
BITMAP
3800
3C00
0600
0600
0300
0300
0300
0380
0780
06C0
0CC0
0CC0
1860
1860
3020
3030
6030
6018
C018
ENDCHAR
STARTCHAR 03BC
ENCODING 956
SWIDTH 600 0
DWIDTH 15 0
BBX 11 18 2 -5
BITMAP
C060
C060
C060
C060
C060
C060
C060
C060
C060
C0E0
E1E0
FF60
DE60
C000
C000
C000
C000
C000
ENDCHAR
STARTCHAR 03BD
ENCODING 957
SWIDTH 520 0
DWIDTH 13 0
BBX 11 13 0 0
BITMAP
C060
6060
6060
6060
3060
3060
18C0
18C0
18C0
0D80
0D80
0F00
0600
ENDCHAR
STARTCHAR 03BE
ENCODING 958
SWIDTH 440 0
DWIDTH 11 0
BBX 10 23 1 -4
BITMAP
7F00
7F00
0C00
3000
6000
6000
6000
7000
1F00
3F00
7000
6000
C000
C000
C000
C000
7000
7F00
1F80
01C0
00C0
00C0
0180
ENDCHAR
STARTCHAR 03BF
ENCODING 959
SWIDTH 600 0
DWIDTH 15 0
BBX 13 13 1 0
BITMAP
0F80
3FE0
7070
6030
C018
C018
C018
C018
C018
6030
7070
3FE0
0F80
ENDCHAR
STARTCHAR 03C0
ENCODING 960
SWIDTH 640 0
DWIDTH 16 0
BBX 15 13 0 0
BITMAP
7FFE
FFFE
9830
1830
1830
1830
1830
1830
1830
1830
1830
183E
181E
ENDCHAR
STARTCHAR 03C1
ENCODING 961
SWIDTH 600 0
DWIDTH 15 0
BBX 12 18 2 -5
BITMAP
1F00
3FC0
70E0
E060
C030
C030
C030
C030
C030
C060
F0E0
FFC0
CF80
C000
C000
C000
C000
C000
ENDCHAR
STARTCHAR 03C3
ENCODING 963
SWIDTH 600 0
DWIDTH 15 0
BBX 13 13 1 0
BITMAP
1FF8
3FF8
70C0
E060
C030
C030
C030
C030
C030
6070
70E0
3FC0
1F80
ENDCHAR
STARTCHAR 03C4
ENCODING 964
SWIDTH 480 0
DWIDTH 12 0
BBX 12 13 0 0
BITMAP
7FF0
FFF0
8600
0600
0600
0600
0600
0600
0600
0600
0600
07C0
03C0
ENDCHAR
STARTCHAR 03C5
ENCODING 965
SWIDTH 560 0
DWIDTH 14 0
BBX 13 13 0 0
BITMAP
E060
F030
3030
3018
3018
3018
3018
3018
3018
3838
1870
1FE0
07C0
ENDCHAR
STARTCHAR 03C6
ENCODING 966
SWIDTH 720 0
DWIDTH 18 0
BBX 16 19 1 -6
BITMAP
30F8
31FC
618E
C186
C183
C183
C183
C183
C183
6186
718E
3FFC
0FF0
0180
0180
0180
0180
0180
0180
ENDCHAR
STARTCHAR 03C7
ENCODING 967
SWIDTH 560 0
DWIDTH 14 0
BBX 14 19 0 -6
BITMAP
7018
7830
1870
0C60
0CC0
04C0
0780
0780
0300
0700
0780
0D80
0CC0
18C0
1860
3060
6030
603C
C01C
ENDCHAR
STARTCHAR 03C8
ENCODING 968
SWIDTH 760 0
DWIDTH 19 0
BBX 15 23 2 -6
BITMAP
0180
0180
0180
0180
C186
C186
C186
C186
C186
C186
C186
C186
E18E
618C
799C
3FF8
0FF0
0180
0180
0180
0180
0180
0180
ENDCHAR
STARTCHAR 03C9
ENCODING 969
SWIDTH 840 0
DWIDTH 21 0
BBX 18 13 2 0
BITMAP
300300
600180
600180
60C180
C0C0C0
C0C0C0
C0C0C0
C0C0C0
C0C0C0
E1E1C0
61E180
7F3F80
1E1E00
ENDCHAR
STARTCHAR 0401
ENCODING 1025
SWIDTH 520 0
DWIDTH 13 0
BBX 9 22 2 0
BITMAP
6300
6300
0000
0000
FF80
FF80
C000
C000
C000
C000
C000
C000
FF00
FF00
C000
C000
C000
C000
C000
C000
FF80
FF80
ENDCHAR
STARTCHAR 0410
ENCODING 1040
SWIDTH 640 0
DWIDTH 16 0
BBX 16 18 0 0
BITMAP
0180
03C0
03C0
03C0
0660
0660
0C70
0C30
0C30
1818
1818
1FF8
3FFC
300C
6006
6006
6006
C003
ENDCHAR
STARTCHAR 0411
ENCODING 1041
SWIDTH 600 0
DWIDTH 15 0
BBX 12 18 2 0
BITMAP
FFC0
FFC0
C000
C000
C000
C000
C000
C000
FF80
FFE0
C0E0
C030
C030
C030
C030
C0E0
FFC0
FF80
ENDCHAR
STARTCHAR 0412
ENCODING 1042
SWIDTH 600 0
DWIDTH 15 0
BBX 11 18 2 0
BITMAP
FE00
FF80
C1C0
C0C0
C0C0
C0C0
C0C0
C380
FF00
FF80
C1C0
C060
C060
C060
C060
C1C0
FF80
FF00
ENDCHAR
STARTCHAR 0413
ENCODING 1043
SWIDTH 480 0
DWIDTH 12 0
BBX 9 18 2 0
BITMAP
FF80
FF80
C000
C000
C000
C000
C000
C000
C000
C000
C000
C000
C000
C000
C000
C000
C000
C000
ENDCHAR
STARTCHAR 0414
ENCODING 1044
SWIDTH 720 0
DWIDTH 18 0
BBX 17 23 0 -5
BITMAP
03FC00
03FC00
030C00
030C00
030C00
070C00
060C00
060C00
060C00
0E0C00
0C0C00
0C0C00
1C0C00
180C00
180C00
300C00
FFFF80
FFFF80
C00180
C00180
C00180
C00180
C00180
ENDCHAR
STARTCHAR 0415
ENCODING 1045
SWIDTH 520 0
DWIDTH 13 0
BBX 9 18 2 0
BITMAP
FF80
FF80
C000
C000
C000
C000
C000
C000
FF00
FF00
C000
C000
C000
C000
C000
C000
FF80
FF80
ENDCHAR
STARTCHAR 0416
ENCODING 1046
SWIDTH 880 0
DWIDTH 22 0
BBX 23 18 0 0
BITMAP
60180C
301818
181830
0C1860
0618C0
0719C0
039B80
01DF00
00FE00
01DF00
039B80
039B80
0719C0
0E18E0
1C1870
381838
70181C
E0180E
ENDCHAR
STARTCHAR 0417
ENCODING 1047
SWIDTH 560 0
DWIDTH 14 0
BBX 12 18 1 0
BITMAP
3F00
7FC0
40E0
0060
0060
0060
0060
01C0
1F80
1FC0
00E0
0030
0030
0030
0070
80E0
FFC0
7F00
ENDCHAR
STARTCHAR 0418
ENCODING 1048
SWIDTH 760 0
DWIDTH 19 0
BBX 15 18 2 0
BITMAP
C00E
C01E
C03E
C036
C076
C0E6
C0C6
C1C6
C386
C306
C706
CE06
CC06
DC06
D806
F006
F006
E006
ENDCHAR
STARTCHAR 0419
ENCODING 1049
SWIDTH 760 0
DWIDTH 19 0
BBX 15 22 2 0
BITMAP
0810
0C20
03C0
0000
C00E
C01E
C03E
C036
C076
C0E6
C0C6
C1C6
C386
C306
C706
CE06
CC06
DC06
D806
F006
F006
E006
ENDCHAR
STARTCHAR 041A
ENCODING 1050
SWIDTH 600 0
DWIDTH 15 0
BBX 13 18 2 0
BITMAP
C030
C060
C0C0
C180
C300
C700
CE00
DC00
F800
DC00
CE00
CE00
C700
C380
C1C0
C0E0
C070
C038
ENDCHAR
STARTCHAR 041B
ENCODING 1051
SWIDTH 680 0
DWIDTH 17 0
BBX 15 18 0 0
BITMAP
03FE
03FE
0306
0706
0706
0606
0606
0606
0606
0606
0E06
0E06
0C06
0C06
1C06
1806
F806
F006
ENDCHAR
STARTCHAR 041C
ENCODING 1052
SWIDTH 920 0
DWIDTH 23 0
BBX 19 18 2 0
BITMAP
E00060
F000E0
F000E0
F801E0
D80160
D80360
CC0260
CC0660
C60460
C60C60
C30860
C31860
C31860
C1B060
C1B060
C0E060
C0E060
C04060
ENDCHAR
STARTCHAR 041D
ENCODING 1053
SWIDTH 720 0
DWIDTH 18 0
BBX 14 18 2 0
BITMAP
C00C
C00C
C00C
C00C
C00C
C00C
C00C
C00C
FFFC
FFFC
C00C
C00C
C00C
C00C
C00C
C00C
C00C
C00C
ENDCHAR
STARTCHAR 041E
ENCODING 1054
SWIDTH 760 0
DWIDTH 19 0
BBX 17 18 1 0
BITMAP
03F000
1FFC00
3C1E00
300700
600300
600300
C00180
C00180
C00180
C00180
C00180
C00180
E00300
600300
700600
3C1E00
1FFC00
07F000
ENDCHAR
STARTCHAR 041F
ENCODING 1055
SWIDTH 720 0
DWIDTH 18 0
BBX 14 18 2 0
BITMAP
FFFC
FFFC
C00C
C00C
C00C
C00C
C00C
C00C
C00C
C00C
C00C
C00C
C00C
C00C
C00C
C00C
C00C
C00C
ENDCHAR
STARTCHAR 0420
ENCODING 1056
SWIDTH 560 0
DWIDTH 14 0
BBX 11 18 2 0
BITMAP
FF00
FF80
C1C0
C0E0
C060
C060
C060
C0E0
C1C0
FF80
FE00
C000
C000
C000
C000
C000
C000
C000
ENDCHAR
STARTCHAR 0421
ENCODING 1057
SWIDTH 640 0
DWIDTH 16 0
BBX 14 18 1 0
BITMAP
03F8
0FFC
1C04
3800
7000
6000
C000
C000
C000
C000
C000
C000
E000
6000
7000
3C04
1FFC
03F8
ENDCHAR
STARTCHAR 0422
ENCODING 1058
SWIDTH 520 0
DWIDTH 13 0
BBX 12 18 1 0
BITMAP
FFF0
FFF0
0600
0600
0600
0600
0600
0600
0600
0600
0600
0600
0600
0600
0600
0600
0600
0600
ENDCHAR
STARTCHAR 0423
ENCODING 1059
SWIDTH 560 0
DWIDTH 14 0
BBX 13 18 1 0
BITMAP
C018
6030
6030
3030
3060
3060
18C0
18C0
0C80
0D80
0780
0700
0300
0600
0E00
1C00
F800
F000
ENDCHAR
STARTCHAR 0424
ENCODING 1060
SWIDTH 720 0
DWIDTH 18 0
BBX 16 18 1 0
BITMAP
0180
0180
0FF0
3FFC
799E
6186
E187
C183
C183
C183
C183
E187
6186
319C
3FF8
0FF0
0180
0180
ENDCHAR
STARTCHAR 0425
ENCODING 1061
SWIDTH 600 0
DWIDTH 15 0
BBX 15 18 0 0
BITMAP
C006
600C
3018
1030
1870
0C60
04C0
0780
0380
0380
0680
0640
0C60
1830
1810
3018
600C
C006
ENDCHAR
STARTCHAR 0426
ENCODING 1062
SWIDTH 760 0
DWIDTH 19 0
BBX 16 23 2 -5
BITMAP
C018
C018
C018
C018
C018
C018
C018
C018
C018
C018
C018
C018
C018
C018
C018
C018
FFFF
FFFF
0003
0003
0003
0003
0003
ENDCHAR
STARTCHAR 0427
ENCODING 1063
SWIDTH 680 0
DWIDTH 17 0
BBX 12 18 2 0
BITMAP
C030
C030
C030
C030
C030
C030
C030
C030
C070
E1F0
7FB0
3E30
0030
0030
0030
0030
0030
0030
ENDCHAR
STARTCHAR 0428
ENCODING 1064
SWIDTH 960 0
DWIDTH 24 0
BBX 20 18 2 0
BITMAP
C06030
C06030
C06030
C06030
C06030
C06030
C06030
C06030
C06030
C06030
C06030
C06030
C06030
C06030
C06030
C06030
FFFFF0
FFFFF0
ENDCHAR
STARTCHAR 0429
ENCODING 1065
SWIDTH 1000 0
DWIDTH 25 0
BBX 22 23 2 -5
BITMAP
C06060
C06060
C06060
C06060
C06060
C06060
C06060
C06060
C06060
C06060
C06060
C06060
C06060
C06060
C06060
C06060
FFFFFC
FFFFFC
00000C
00000C
00000C
00000C
00000C
ENDCHAR
STARTCHAR 042A
ENCODING 1066
SWIDTH 720 0
DWIDTH 18 0
BBX 16 18 1 0
BITMAP
FE00
FE00
0600
0600
0600
0600
0600
0600
07F8
07FE
0606
0603
0603
0603
0603
060E
07FE
07F8
ENDCHAR
STARTCHAR 042B
ENCODING 1067
SWIDTH 800 0
DWIDTH 20 0
BBX 16 18 2 0
BITMAP
C003
C003
C003
C003
C003
C003
C003
C003
FF83
FFE3
C0E3
C033
C033
C033
C033
C0E3
FFC3
FF83
ENDCHAR
STARTCHAR 042C
ENCODING 1068
SWIDTH 600 0
DWIDTH 15 0
BBX 11 18 2 0
BITMAP
C000
C000
C000
C000
C000
C000
C000
C000
FF00
FFC0
C0C0
C060
C060
C060
C060
C1C0
FFC0
FF00
ENDCHAR
STARTCHAR 042D
ENCODING 1069
SWIDTH 640 0
DWIDTH 16 0
BBX 14 18 1 0
BITMAP
7F00
FFC0
80E0
0030
0018
0018
000C
000C
1FFC
1FFC
000C
000C
0018
0018
0030
80F0
FFC0
7F00
ENDCHAR
STARTCHAR 042E
ENCODING 1070
SWIDTH 1040 0
DWIDTH 26 0
BBX 23 18 2 0
BITMAP
C00FC0
C03FF0
C0F078
C0C01C
C1800C
C1800E
C30006
C30006
FF0006
FF0006
C30006
C30006
C3800C
C1800C
C1C01C
C0F078
C07FF0
C01FC0
ENDCHAR
STARTCHAR 042F
ENCODING 1071
SWIDTH 600 0
DWIDTH 15 0
BBX 12 18 1 0
BITMAP
0FF0
3FF0
3830
6030
6030
6030
6030
3830
1FF0
07F0
1C30
1830
3830
3030
3030
6030
6030
C030
ENDCHAR
STARTCHAR 0430
ENCODING 1072
SWIDTH 520 0
DWIDTH 13 0
BBX 10 13 1 0
BITMAP
3F00
7F80
41C0
00C0
00C0
0FC0
7FC0
F0C0
C0C0
C1C0
E3C0
7EC0
3CC0
ENDCHAR
STARTCHAR 0431
ENCODING 1073
SWIDTH 600 0
DWIDTH 15 0
BBX 12 19 2 0
BITMAP
0040
0FC0
1F00
3000
6000
6000
CF80
FFC0
F0E0
C060
C030
C030
C030
C030
E030
6060
70E0
3FC0
1F80
ENDCHAR
STARTCHAR 0432
ENCODING 1074
SWIDTH 560 0
DWIDTH 14 0
BBX 11 13 2 0
BITMAP
FF00
FF80
C0C0
C0C0
C1C0
FF80
FF80
C0E0
C060
C060
C0E0
FFC0
FF80
ENDCHAR
STARTCHAR 0433
ENCODING 1075
SWIDTH 400 0
DWIDTH 10 0
BBX 7 13 2 0
BITMAP
FE
FE
C0
C0
C0
C0
C0
C0
C0
C0
C0
C0
C0
ENDCHAR
STARTCHAR 0434
ENCODING 1076
SWIDTH 560 0
DWIDTH 14 0
BBX 14 18 0 -5
BITMAP
07F0
07F0
0630
0630
0E30
0C30
0C30
1830
1830
3030
6030
FFFC
FFFC
C00C
C00C
C00C
C00C
C00C
ENDCHAR
STARTCHAR 0435
ENCODING 1077
SWIDTH 520 0
DWIDTH 13 0
BBX 11 13 1 0
BITMAP
1F00
3FC0
70C0
6060
C060
FFE0
FFE0
C000
C000
E000
7040
3FC0
1F80
ENDCHAR
STARTCHAR 0436
ENCODING 1078
SWIDTH 760 0
DWIDTH 19 0
BBX 18 13 1 0
BITMAP
C0C1C0
60C380
30C700
18CE00
0CDC00
06F800
03F000
06D800
0CDC00
18CE00
30C700
60C380
C0C1C0
ENDCHAR
STARTCHAR 0437
ENCODING 1079
SWIDTH 440 0
DWIDTH 11 0
BBX 9 13 1 0
BITMAP
7C00
FF00
8700
0300
0700
3E00
3E00
0380
0180
0180
8380
FF00
7E00
ENDCHAR
STARTCHAR 0438
ENCODING 1080
SWIDTH 600 0
DWIDTH 15 0
BBX 11 13 2 0
BITMAP
C0E0
C0E0
C1E0
C360
C360
C660
CE60
CC60
D860
F860
F060
E060
E060
ENDCHAR
STARTCHAR 0439
ENCODING 1081
SWIDTH 600 0
DWIDTH 15 0
BBX 11 18 2 0
BITMAP
2040
3080
0F00
0000
0000
C0E0
C0E0
C1E0
C360
C360
C660
CE60
CC60
D860
F860
F060
E060
E060
ENDCHAR
STARTCHAR 043A
ENCODING 1082
SWIDTH 520 0
DWIDTH 13 0
BBX 10 13 2 0
BITMAP
C1C0
C380
C700
CE00
DC00
F800
F000
D800
CC00
C600
C300
C180
C0C0
ENDCHAR
STARTCHAR 043B
ENCODING 1083
SWIDTH 520 0
DWIDTH 13 0
BBX 11 13 0 0
BITMAP
07E0
07E0
0660
0660
0E60
0E60
0C60
0C60
1C60
1C60
3860
F060
E060
ENDCHAR
STARTCHAR 043C
ENCODING 1084
SWIDTH 720 0
DWIDTH 18 0
BBX 14 13 2 0
BITMAP
E01C
E01C
F03C
F03C
D82C
D86C
C84C
CCCC
CCCC
C48C
C78C
C78C
C30C
ENDCHAR
STARTCHAR 043D
ENCODING 1085
SWIDTH 600 0
DWIDTH 15 0
BBX 11 13 2 0
BITMAP
C060
C060
C060
C060
C060
FFE0
FFE0
C060
C060
C060
C060
C060
C060
ENDCHAR
STARTCHAR 043E
ENCODING 1086
SWIDTH 600 0
DWIDTH 15 0
BBX 13 13 1 0
BITMAP
0F80
3FE0
7070
6030
C018
C018
C018
C018
C018
6030
7070
3FE0
0F80
ENDCHAR
STARTCHAR 043F
ENCODING 1087
SWIDTH 600 0
DWIDTH 15 0
BBX 11 13 2 0
BITMAP
FFE0
FFE0
C060
C060
C060
C060
C060
C060
C060
C060
C060
C060
C060
ENDCHAR
STARTCHAR 0440
ENCODING 1088
SWIDTH 600 0
DWIDTH 15 0
BBX 12 19 2 -6
BITMAP
CF80
DFC0
F0E0
E070
C030
C030
C030
C030
C030
E060
F0E0
DFC0
CF80
C000
C000
C000
C000
C000
C000
ENDCHAR
STARTCHAR 0441
ENCODING 1089
SWIDTH 480 0
DWIDTH 12 0
BBX 10 13 1 0
BITMAP
0F80
3FC0
7840
6000
C000
C000
C000
C000
C000
6000
7040
3FC0
0F80
ENDCHAR
STARTCHAR 0442
ENCODING 1090
SWIDTH 400 0
DWIDTH 10 0
BBX 10 13 0 0
BITMAP
FFC0
FFC0
0C00
0C00
0C00
0C00
0C00
0C00
0C00
0C00
0C00
0C00
0C00
ENDCHAR
STARTCHAR 0443
ENCODING 1091
SWIDTH 480 0
DWIDTH 12 0
BBX 12 19 0 -6
BITMAP
C030
6060
6060
6060
30C0
30C0
1080
1980
1980
0F00
0F00
0600
0600
0600
0C00
0C00
1800
F800
E000
ENDCHAR
STARTCHAR 0444
ENCODING 1092
SWIDTH 680 0
DWIDTH 17 0
BBX 15 24 1 -6
BITMAP
0180
0180
0180
0180
0180
0FF0
3FF8
719C
618C
C186
C186
C186
C186
C186
618C
719C
3FF8
0FF0
0180
0180
0180
0180
0180
0180
ENDCHAR
STARTCHAR 0445
ENCODING 1093
SWIDTH 480 0
DWIDTH 12 0
BBX 12 13 0 0
BITMAP
C030
6060
30C0
1180
0B00
0F00
0600
0E00
0D00
1880
30C0
6060
C030
ENDCHAR
STARTCHAR 0446
ENCODING 1094
SWIDTH 600 0
DWIDTH 15 0
BBX 13 18 2 -5
BITMAP
C060
C060
C060
C060
C060
C060
C060
C060
C060
C060
C060
FFF8
FFF8
0018
0018
0018
0018
0018
ENDCHAR
STARTCHAR 0447
ENCODING 1095
SWIDTH 560 0
DWIDTH 14 0
BBX 10 13 2 0
BITMAP
C0C0
C0C0
C0C0
C0C0
C0C0
C0C0
E1C0
7FC0
3EC0
00C0
00C0
00C0
00C0
ENDCHAR
STARTCHAR 0448
ENCODING 1096
SWIDTH 800 0
DWIDTH 20 0
BBX 16 13 2 0
BITMAP
C183
C183
C183
C183
C183
C183
C183
C183
C183
C183
C183
FFFF
FFFF
ENDCHAR
STARTCHAR 0449
ENCODING 1097
SWIDTH 840 0
DWIDTH 21 0
BBX 19 18 2 -5
BITMAP
C18180
C18180
C18180
C18180
C18180
C18180
C18180
C18180
C18180
C18180
C18180
FFFFE0
FFFFE0
000060
000060
000060
000060
000060
ENDCHAR
STARTCHAR 044A
ENCODING 1098
SWIDTH 600 0
DWIDTH 15 0
BBX 14 13 0 0
BITMAP
FC00
FC00
0C00
0C00
0C00
0FF0
0FF8
0C1C
0C0C
0C0C
0C1C
0FF8
0FF0
ENDCHAR
STARTCHAR 044B
ENCODING 1099
SWIDTH 720 0
DWIDTH 18 0
BBX 14 13 2 0
BITMAP
C00C
C00C
C00C
C00C
C00C
FF0C
FF8C
C1CC
C0CC
C0CC
C1CC
FF8C
FF0C
ENDCHAR
STARTCHAR 044C
ENCODING 1100
SWIDTH 520 0
DWIDTH 13 0
BBX 10 13 2 0
BITMAP
C000
C000
C000
C000
C000
FF00
FF80
C1C0
C0C0
C0C0
C1C0
FF80
FF00
ENDCHAR
STARTCHAR 044D
ENCODING 1101
SWIDTH 480 0
DWIDTH 12 0
BBX 10 13 1 0
BITMAP
7C00
FF00
8380
0180
00C0
3FC0
3FC0
00C0
00C0
0180
8380
FF00
7C00
ENDCHAR
STARTCHAR 044E
ENCODING 1102
SWIDTH 840 0
DWIDTH 21 0
BBX 18 13 2 0
BITMAP
C07E00
C0FF00
C1C380
C381C0
C300C0
FF00C0
FF00C0
C300C0
C300C0
C38180
C1C380
C0FF00
C07E00
ENDCHAR
STARTCHAR 044F
ENCODING 1103
SWIDTH 520 0
DWIDTH 13 0
BBX 10 13 1 0
BITMAP
1FC0
3FC0
70C0
60C0
60C0
70C0
3FC0
0FC0
18C0
30C0
60C0
60C0
C0C0
ENDCHAR
STARTCHAR 0451
ENCODING 1105
SWIDTH 520 0
DWIDTH 13 0
BBX 11 18 1 0
BITMAP
3180
3180
0000
0000
0000
1F00
3FC0
70C0
6060
C060
FFE0
FFE0
C000
C000
E000
7040
3FC0
1F80
ENDCHAR
STARTCHAR 1100
ENCODING 4352
SWIDTH 1000 0
DWIDTH 25 0
BBX 15 9 5 10
BITMAP
FFFE
FFFE
0006
0006
0006
0006
0006
0006
0006
ENDCHAR
STARTCHAR 1101
ENCODING 4353
SWIDTH 1000 0
DWIDTH 25 0
BBX 18 8 3 11
BITMAP
FFBFC0
FFBFC0
0180C0
0180C0
0180C0
0180C0
0180C0
0180C0
ENDCHAR
STARTCHAR 1102
ENCODING 4354
SWIDTH 1000 0
DWIDTH 25 0
BBX 15 8 5 10
BITMAP
C000
C000
C000
C000
C000
C000
FFFE
FFFE
ENDCHAR
STARTCHAR 1103
ENCODING 4355
SWIDTH 1000 0
DWIDTH 25 0
BBX 15 9 5 10
BITMAP
FFFE
FFFE
C000
C000
C000
C000
C000
FFFE
FFFE
ENDCHAR
STARTCHAR 1104
ENCODING 4356
SWIDTH 1000 0
DWIDTH 25 0
BBX 18 9 4 10
BITMAP
FF7FC0
FF7FC0
C06000
C06000
C06000
C06000
C06000
FF7FC0
FE7FC0
ENDCHAR
STARTCHAR 1105
ENCODING 4357
SWIDTH 1000 0
DWIDTH 25 0
BBX 15 10 5 9
BITMAP
FFFE
FFFE
0006
0006
FFFE
FFFE
C000
C000
FFFE
FFFE
ENDCHAR
STARTCHAR 1106
ENCODING 4358
SWIDTH 1000 0
DWIDTH 25 0
BBX 15 9 5 10
BITMAP
FFFE
FFFE
C006
C006
C006
C006
C006
FFFE
FFFE
ENDCHAR
STARTCHAR 1107
ENCODING 4359
SWIDTH 1000 0
DWIDTH 25 0
BBX 15 9 5 10
BITMAP
C006
C006
C006
FFFE
FFFE
C006
C006
FFFE
FFFE
ENDCHAR
STARTCHAR 1108
ENCODING 4360
SWIDTH 1000 0
DWIDTH 25 0
BBX 17 8 4 11
BITMAP
C36080
C36080
C36080
FF7F80
C36080
C36080
C36080
FF7F80
ENDCHAR
STARTCHAR 1109
ENCODING 4361
SWIDTH 1000 0
DWIDTH 25 0
BBX 19 8 3 11
BITMAP
004000
004000
00E000
01B000
031800
060C00
180300
E000E0
ENDCHAR
STARTCHAR 110A
ENCODING 4362
SWIDTH 1000 0
DWIDTH 25 0
BBX 19 8 3 11
BITMAP
0C0600
0C0600
0C0600
1E0F00
120D00
311980
60B0C0
802020
ENDCHAR
STARTCHAR 110B
ENCODING 4363
SWIDTH 1000 0
DWIDTH 25 0
BBX 15 8 5 11
BITMAP
1FF0
701C
C006
C006
C006
C006
701C
1FF0
ENDCHAR
STARTCHAR 110C
ENCODING 4364
SWIDTH 1000 0
DWIDTH 25 0
BBX 19 8 3 11
BITMAP
7FFFC0
7FFFC0
00E000
00E000
01B000
060C00
180700
E000E0
ENDCHAR
STARTCHAR 110D
ENCODING 4365
SWIDTH 1000 0
DWIDTH 25 0
BBX 19 8 3 11
BITMAP
7FFFC0
7FFFC0
0C0400
0C0E00
0E0E00
121B00
613180
C0A060
ENDCHAR
STARTCHAR 110E
ENCODING 4366
SWIDTH 1000 0
DWIDTH 25 0
BBX 19 9 3 10
BITMAP
004000
004000
7FFFC0
7FFFC0
00E000
01B000
0F1E00
FC07E0
E000E0
ENDCHAR
STARTCHAR 110F
ENCODING 4367
SWIDTH 1000 0
DWIDTH 25 0
BBX 15 9 5 9
BITMAP
FFFE
FFFE
0006
0006
FFFE
FFFE
0006
0006
0006
ENDCHAR
STARTCHAR 1110
ENCODING 4368
SWIDTH 1000 0
DWIDTH 25 0
BBX 15 9 5 10
BITMAP
FFFE
FFFE
C000
FFFC
FFFC
C000
C000
FFFE
FFFE
ENDCHAR
STARTCHAR 1111
ENCODING 4369
SWIDTH 1000 0
DWIDTH 25 0
BBX 17 9 4 10
BITMAP
FFFF00
FFFF00
0C1800
0C1800
0C1800
0C1800
0C1800
FFFF80
FFFF80
ENDCHAR
STARTCHAR 1112
ENCODING 4370
SWIDTH 1000 0
DWIDTH 25 0
BBX 17 10 4 9
BITMAP
008000
008000
FFFF80
FFFF80
0FF800
380E00
600300
600300
300600
0FF800
ENDCHAR
STARTCHAR 1113
ENCODING 4371
SWIDTH 1000 0
DWIDTH 25 0
BBX 15 9 5 10
BITMAP
C1FE
C1FE
C006
C006
C006
C006
C606
FE06
E006
ENDCHAR
STARTCHAR 1114
ENCODING 4372
SWIDTH 1000 0
DWIDTH 25 0
BBX 18 8 4 10
BITMAP
C02000
C02000
C02000
C02000
C02000
C02000
FF3FC0
FE3FC0
ENDCHAR
STARTCHAR 1115
ENCODING 4373
SWIDTH 1000 0
DWIDTH 25 0
BBX 19 9 3 10
BITMAP
C03FC0
C03FC0
C03000
C03000
C03000
C03000
C03000
FFBFE0
FE3FE0
ENDCHAR
STARTCHAR 1116
ENCODING 4374
SWIDTH 1000 0
DWIDTH 25 0
BBX 18 9 3 10
BITMAP
C030C0
C030C0
C030C0
C03FC0
C030C0
C030C0
C030C0
FFBFC0
FE0000
ENDCHAR
STARTCHAR 1117
ENCODING 4375
SWIDTH 1000 0
DWIDTH 25 0
BBX 17 9 3 9
BITMAP
FFBF80
FFBF80
C00180
C00180
C00180
C00180
C00180
FF8180
FF8180
ENDCHAR
STARTCHAR 1118
ENCODING 4376
SWIDTH 1000 0
DWIDTH 25 0
BBX 18 10 4 10
BITMAP
FF3000
FF3000
033000
033000
FF3000
C03000
C03000
C03000
FF3FC0
003FC0
ENDCHAR
STARTCHAR 1119
ENCODING 4377
SWIDTH 1000 0
DWIDTH 25 0
BBX 18 9 4 10
BITMAP
FF3FC0
FF3FC0
0300C0
0300C0
FF3FC0
C03000
C03000
C03000
FF3FC0
ENDCHAR
STARTCHAR 111A
ENCODING 4378
SWIDTH 1000 0
DWIDTH 25 0
BBX 18 11 4 8
BITMAP
000C00
FE0C00
FEFFC0
06FFC0
061E00
FE7F00
806180
804180
804180
FF6100
001E00
ENDCHAR
STARTCHAR 111B
ENCODING 4379
SWIDTH 1000 0
DWIDTH 25 0
BBX 15 17 5 2
BITMAP
FFFE
FFFE
0006
FFFE
FFFE
C000
C000
FFFE
FFFE
0000
07C0
1860
1830
1030
1830
1860
07C0
ENDCHAR
STARTCHAR 111C
ENCODING 4380
SWIDTH 1000 0
DWIDTH 25 0
BBX 17 8 4 11
BITMAP
FF6180
836180
836180
837F80
836180
836180
836180
FF7F80
ENDCHAR
STARTCHAR 111D
ENCODING 4381
SWIDTH 1000 0
DWIDTH 25 0
BBX 15 17 5 2
BITMAP
FFFE
FFFE
C006
C006
C006
C006
C006
FFFE
FFFE
0000
07C0
1860
1830
1030
1830
1860
07C0
ENDCHAR
STARTCHAR 111E
ENCODING 4382
SWIDTH 1000 0
DWIDTH 25 0
BBX 16 8 4 12
BITMAP
C37F
C37F
C303
FF03
C303
C303
C303
FF03
ENDCHAR
STARTCHAR 111F
ENCODING 4383
SWIDTH 1000 0
DWIDTH 25 0
BBX 18 9 4 10
BITMAP
C32000
C32000
C32000
FF2000
C32000
C32000
C32000
FF3FC0
003FC0
ENDCHAR
STARTCHAR 1120
ENCODING 4384
SWIDTH 1000 0
DWIDTH 25 0
BBX 18 9 4 11
BITMAP
C33F80
C33F80
C32000
FF2000
C32000
C32000
C32000
FF3FC0
003FC0
ENDCHAR
STARTCHAR 1121
ENCODING 4385
SWIDTH 1000 0
DWIDTH 25 0
BBX 18 9 4 10
BITMAP
C30C00
C30C00
C30C00
FF0C00
C30E00
C31E00
C33300
C36180
FFC0C0
ENDCHAR
STARTCHAR 1122
ENCODING 4386
SWIDTH 1000 0
DWIDTH 25 0
BBX 19 9 3 11
BITMAP
C437E0
C43060
C43060
FC3060
C47060
C45060
C4D860
FC8C60
018460
ENDCHAR
STARTCHAR 1123
ENCODING 4387
SWIDTH 1000 0
DWIDTH 25 0
BBX 18 9 4 10
BITMAP
8847C0
8847C0
884600
F84600
88E600
88A600
89B600
F917C0
021FC0
ENDCHAR
STARTCHAR 1124
ENCODING 4388
SWIDTH 1000 0
DWIDTH 25 0
BBX 19 9 3 10
BITMAP
C84660
C84660
C84660
F847E0
C8E660
C8A660
C9B660
F917E0
021800
ENDCHAR
STARTCHAR 1125
ENCODING 4389
SWIDTH 1000 0
DWIDTH 25 0
BBX 17 9 4 10
BITMAP
98C600
98C600
98C600
F8C600
98C600
99EF00
992900
FB1980
021080
ENDCHAR
STARTCHAR 1126
ENCODING 4390
SWIDTH 1000 0
DWIDTH 25 0
BBX 18 9 4 11
BITMAP
98DF80
98C200
98C600
F8C600
98C700
99E500
992980
FB18C0
021080
ENDCHAR
STARTCHAR 1127
ENCODING 4391
SWIDTH 1000 0
DWIDTH 25 0
BBX 18 9 4 11
BITMAP
C37F80
C30C00
C30C00
FF0C00
C30E00
C31A00
C33300
FF6180
004040
ENDCHAR
STARTCHAR 1128
ENCODING 4392
SWIDTH 1000 0
DWIDTH 25 0
BBX 18 10 4 9
BITMAP
000C00
C30C00
C37FC0
C30C00
FF0C00
C30E00
C31A00
C31300
FF2180
004040
ENDCHAR
STARTCHAR 1129
ENCODING 4393
SWIDTH 1000 0
DWIDTH 25 0
BBX 18 9 4 11
BITMAP
C33F80
C33F80
C32000
FF2000
C33F80
C32000
C32000
FF3FC0
003FC0
ENDCHAR
STARTCHAR 112A
ENCODING 4394
SWIDTH 1000 0
DWIDTH 25 0
BBX 17 9 4 11
BITMAP
C37F80
C37F80
C33300
FF3300
C33300
C33300
C33300
FF7F80
007F80
ENDCHAR
STARTCHAR 112B
ENCODING 4395
SWIDTH 1000 0
DWIDTH 25 0
BBX 15 17 5 2
BITMAP
C006
C006
C006
FFFE
FFFE
C006
C006
FFFE
FFFE
0000
07C0
1860
1830
1030
1830
1860
07C0
ENDCHAR
STARTCHAR 112C
ENCODING 4396
SWIDTH 1000 0
DWIDTH 25 0
BBX 17 17 4 2
BITMAP
C36080
C36080
C36080
FF7F80
C36080
C36080
C36080
FF7F80
000000
000000
03E000
0C3000
0C1800
081800
0C1800
0C3000
03E000
ENDCHAR
STARTCHAR 112D
ENCODING 4397
SWIDTH 1000 0
DWIDTH 25 0
BBX 18 9 3 10
BITMAP
0C3FC0
0C3FC0
0C00C0
0C00C0
0E00C0
1E00C0
1300C0
2180C0
C0C0C0
ENDCHAR
STARTCHAR 112E
ENCODING 4398
SWIDTH 1000 0
DWIDTH 25 0
BBX 19 9 3 10
BITMAP
0C0800
0C0800
0C0800
0C0800
0E0800
1E0800
130800
218FE0
C0CFE0
ENDCHAR
STARTCHAR 112F
ENCODING 4399
SWIDTH 1000 0
DWIDTH 25 0
BBX 19 9 3 10
BITMAP
0C1FC0
0C1FC0
0C1800
0C1800
0E1800
1E1800
131800
219FE0
C0DFE0
ENDCHAR
STARTCHAR 1130
ENCODING 4400
SWIDTH 1000 0
DWIDTH 25 0
BBX 19 9 3 10
BITMAP
0C1FE0
0C1FE0
0C0060
0C0060
0E1FE0
1E1800
131800
219800
C0DFE0
ENDCHAR
STARTCHAR 1131
ENCODING 4401
SWIDTH 1000 0
DWIDTH 25 0
BBX 19 9 3 10
BITMAP
0C1FE0
0C1860
0C1860
0C1860
0E1860
1E1860
131860
219860
C0DFE0
ENDCHAR
STARTCHAR 1132
ENCODING 4402
SWIDTH 1000 0
DWIDTH 25 0
BBX 18 9 4 10
BITMAP
1830C0
1830C0
1830C0
183FC0
1C30C0
3C30C0
6630C0
E330C0
81BFC0
ENDCHAR
STARTCHAR 1133
ENCODING 4403
SWIDTH 1000 0
DWIDTH 25 0
BBX 20 9 2 10
BITMAP
188FF0
188C30
188C30
18FC30
188C30
388C30
2C8C30
668C30
C2FC30
ENDCHAR
STARTCHAR 1134
ENCODING 4404
SWIDTH 1000 0
DWIDTH 25 0
BBX 17 9 4 10
BITMAP
30C600
30C600
30C600
30C600
39C600
39EE00
694900
C21180
861080
ENDCHAR
STARTCHAR 1135
ENCODING 4405
SWIDTH 1000 0
DWIDTH 25 0
BBX 19 9 4 10
BITMAP
080F00
083FC0
0830C0
186060
1C6060
346060
362060
6330C0
C18F80
ENDCHAR
STARTCHAR 1136
ENCODING 4406
SWIDTH 1000 0
DWIDTH 25 0
BBX 18 9 4 10
BITMAP
187F80
180C00
180C00
180C00
1C0E00
3C1A00
663100
C16080
804040
ENDCHAR
STARTCHAR 1137
ENCODING 4407
SWIDTH 1000 0
DWIDTH 25 0
BBX 18 11 4 9
BITMAP
000C00
180C00
187F80
180C00
180C00
180C00
3C1E00
341200
623100
C16180
804040
ENDCHAR
STARTCHAR 1138
ENCODING 4408
SWIDTH 1000 0
DWIDTH 25 0
BBX 17 9 4 10
BITMAP
187F80
187F80
180180
180180
1C7F80
3C7F80
760180
E30180
818180
ENDCHAR
STARTCHAR 1139
ENCODING 4409
SWIDTH 1000 0
DWIDTH 25 0
BBX 18 9 4 10
BITMAP
183F80
183F80
182000
182000
1C3F80
3C2000
662000
C33FC0
81BFC0
ENDCHAR
STARTCHAR 113A
ENCODING 4410
SWIDTH 1000 0
DWIDTH 25 0
BBX 18 10 3 9
BITMAP
0C3FC0
0C3FC0
081980
0C1980
1C1980
1E1980
361980
631980
C0BFC0
003FC0
ENDCHAR
STARTCHAR 113B
ENCODING 4411
SWIDTH 1000 0
DWIDTH 25 0
BBX 20 11 3 8
BITMAP
000600
0C0600
0C7FF0
0C7FF0
0C0F00
0C18C0
1C30C0
1E3040
3230C0
6110C0
C08F00
ENDCHAR
STARTCHAR 113C
ENCODING 4412
SWIDTH 1000 0
DWIDTH 25 0
BBX 15 11 4 9
BITMAP
0060
00F0
0198
031C
060C
0C06
1802
3000
6000
C000
8000
ENDCHAR
STARTCHAR 113D
ENCODING 4413
SWIDTH 1000 0
DWIDTH 25 0
BBX 22 11 2 9
BITMAP
006180
00F3C0
01BE60
031C70
061838
0C301C
186008
30C000
618000
C30000
820000
ENDCHAR
STARTCHAR 113E
ENCODING 4414
SWIDTH 1000 0
DWIDTH 25 0
BBX 15 11 6 9
BITMAP
0C00
1E00
3B00
7180
60C0
C060
8030
0018
000C
0006
0002
ENDCHAR
STARTCHAR 113F
ENCODING 4415
SWIDTH 1000 0
DWIDTH 25 0
BBX 22 11 1 9
BITMAP
061800
0F3C00
19F600
38E300
706180
E030C0
401860
000C30
000618
00030C
000104
ENDCHAR
STARTCHAR 1140
ENCODING 4416
SWIDTH 1000 0
DWIDTH 25 0
BBX 15 9 5 11
BITMAP
0100
0380
07C0
0EE0
1C60
3830
3018
601C
FFFE
ENDCHAR
STARTCHAR 1141
ENCODING 4417
SWIDTH 1000 0
DWIDTH 25 0
BBX 17 9 4 10
BITMAP
3E7F80
7F7F80
E38180
C18180
808180
808180
C18180
630180
3E0180
ENDCHAR
STARTCHAR 1142
ENCODING 4418
SWIDTH 1000 0
DWIDTH 25 0
BBX 19 9 3 10
BITMAP
1E1FC0
7F9FC0
619800
C0D800
C0D800
C0D800
409800
619FE0
1E1FE0
ENDCHAR
STARTCHAR 1143
ENCODING 4419
SWIDTH 1000 0
DWIDTH 25 0
BBX 18 9 4 10
BITMAP
3E3FC0
7F30C0
E3B0C0
C1B0C0
80B0C0
80B0C0
C1B0C0
6330C0
3E3FC0
ENDCHAR
STARTCHAR 1144
ENCODING 4420
SWIDTH 1000 0
DWIDTH 25 0
BBX 18 9 4 10
BITMAP
3E30C0
7F30C0
E3B0C0
C1BFC0
80B0C0
80B0C0
C1B0C0
633FC0
3E0000
ENDCHAR
STARTCHAR 1145
ENCODING 4421
SWIDTH 1000 0
DWIDTH 25 0
BBX 18 9 4 10
BITMAP
3E0400
7F0400
E38400
C18600
808E00
808B00
C19980
6330C0
3E6040
ENDCHAR
STARTCHAR 1146
ENCODING 4422
SWIDTH 1000 0
DWIDTH 25 0
BBX 19 9 4 11
BITMAP
3E0400
7F0600
E38F00
C18D00
809980
8098C0
C1B0C0
637060
3E7FE0
ENDCHAR
STARTCHAR 1147
ENCODING 4423
SWIDTH 1000 0
DWIDTH 25 0
BBX 20 9 2 10
BITMAP
1F07C0
3F8FE0
61DC70
60D830
C0D810
40D810
40D830
218C60
1F07C0
ENDCHAR
STARTCHAR 1148
ENCODING 4424
SWIDTH 1000 0
DWIDTH 25 0
BBX 19 9 3 10
BITMAP
1E3FC0
7F8600
618600
C0C600
C0C700
C0CD00
409880
61B040
1E2020
ENDCHAR
STARTCHAR 1149
ENCODING 4425
SWIDTH 1000 0
DWIDTH 25 0
BBX 19 10 3 9
BITMAP
3E0600
7F3FE0
E38600
C18600
808600
808700
808D00
C19880
633040
3E2020
ENDCHAR
STARTCHAR 114A
ENCODING 4426
SWIDTH 1000 0
DWIDTH 25 0
BBX 19 9 3 10
BITMAP
1E1FE0
7F9FE0
619800
C0D800
C0DFC0
C0D800
409800
619FE0
1E1FE0
ENDCHAR
STARTCHAR 114B
ENCODING 4427
SWIDTH 1000 0
DWIDTH 25 0
BBX 19 9 3 10
BITMAP
1E3FE0
7FBFE0
618C80
C0CC80
C0CC80
C0CC80
408C80
61BFE0
1E3FE0
ENDCHAR
STARTCHAR 114C
ENCODING 4428
SWIDTH 1000 0
DWIDTH 25 0
BBX 15 10 5 10
BITMAP
0100
0100
1FF0
701C
C006
C006
C006
C006
701C
1FF0
ENDCHAR
STARTCHAR 114D
ENCODING 4429
SWIDTH 1000 0
DWIDTH 25 0
BBX 19 9 4 10
BITMAP
7F8F80
0C1FC0
0C38E0
0C3060
1C2020
162020
333060
6198C0
C0CF80
ENDCHAR
STARTCHAR 114E
ENCODING 4430
SWIDTH 1000 0
DWIDTH 25 0
BBX 16 13 4 6
BITMAP
3FFF
3FFF
00F0
01B8
0318
070C
0E06
1C02
1800
3000
6000
C000
8000
ENDCHAR
STARTCHAR 114F
ENCODING 4431
SWIDTH 1000 0
DWIDTH 25 0
BBX 22 13 2 6
BITMAP
3FFFF0
3FFFF0
00F3C0
01B6E0
039E70
071C38
0E381C
1C7008
386000
30C000
618000
C30000
820000
ENDCHAR
STARTCHAR 1150
ENCODING 4432
SWIDTH 1000 0
DWIDTH 25 0
BBX 16 13 5 6
BITMAP
FFFC
FFFC
0F00
1D80
38C0
30E0
6070
4030
0018
000C
0006
0003
0001
ENDCHAR
STARTCHAR 1151
ENCODING 4433
SWIDTH 1000 0
DWIDTH 25 0
BBX 22 13 1 6
BITMAP
3FFFF0
3FFFF0
0F3C00
1DB600
39E300
70E380
E071C0
4030E0
001870
000C30
000618
00030C
000104
ENDCHAR
STARTCHAR 1152
ENCODING 4434
SWIDTH 1000 0
DWIDTH 25 0
BBX 18 11 3 9
BITMAP
080000
083FC0
FFBFC0
0800C0
0800C0
1C3FC0
143FC0
3600C0
2300C0
E180C0
C0C0C0
ENDCHAR
STARTCHAR 1153
ENCODING 4435
SWIDTH 1000 0
DWIDTH 25 0
BBX 20 11 3 8
BITMAP
180600
180600
FF7FF0
187FF0
180F00
1818C0
3830C0
2C3040
6630C0
C310C0
818F00
ENDCHAR
STARTCHAR 1154
ENCODING 4436
SWIDTH 1000 0
DWIDTH 25 0
BBX 16 15 4 4
BITMAP
0060
0060
3FFF
3FFF
00F0
01B8
0318
070C
0E06
1C02
1800
3000
6000
C000
8000
ENDCHAR
STARTCHAR 1155
ENCODING 4437
SWIDTH 1000 0
DWIDTH 25 0
BBX 16 15 5 4
BITMAP
0600
0600
FFFC
FFFC
0F00
1D80
38C0
70E0
6070
4030
0018
000C
0006
0003
0001
ENDCHAR
STARTCHAR 1156
ENCODING 4438
SWIDTH 1000 0
DWIDTH 25 0
BBX 18 9 4 10
BITMAP
FF30C0
FF30C0
6630C0
663FC0
6630C0
6630C0
6630C0
FF3FC0
FF0000
ENDCHAR
STARTCHAR 1157
ENCODING 4439
SWIDTH 1000 0
DWIDTH 25 0
BBX 17 17 4 2
BITMAP
FFFF00
FFFF00
0C1800
0C1800
0C1800
0C1800
0C1800
FFFF80
FFFF80
000000
03E000
0C3000
0C1800
081800
0C1800
0C3000
03E000
ENDCHAR
STARTCHAR 1158
ENCODING 4440
SWIDTH 1000 0
DWIDTH 25 0
BBX 20 11 3 8
BITMAP
0C0300
0C0300
FFDFF0
FFDFF0
1E0780
7F9FE0
619860
619860
619860
619860
1E0780
ENDCHAR
STARTCHAR 1159
ENCODING 4441
SWIDTH 1000 0
DWIDTH 25 0
BBX 17 9 4 10
BITMAP
FFFF80
FFFF80
000000
0FF800
380E00
600300
600300
300600
0FF800
ENDCHAR
STARTCHAR 115F
ENCODING 4447
SWIDTH 1000 0
DWIDTH 25 0
BBX 0 0 0 0
BITMAP
ENDCHAR
STARTCHAR 1160
ENCODING 4448
SWIDTH 1000 0
DWIDTH 25 0
BBX 0 0 0 0
BITMAP
ENDCHAR
STARTCHAR 1161
ENCODING 4449
SWIDTH 1000 0
DWIDTH 25 0
BBX 6 19 12 0
BITMAP
80
80
80
80
80
80
80
80
FC
FC
80
80
80
80
80
80
80
80
80
ENDCHAR
STARTCHAR 1162
ENCODING 4450
SWIDTH 1000 0
DWIDTH 25 0
BBX 8 19 9 0
BITMAP
C3
C3
C3
C3
C3
C3
C3
C3
C3
FF
FF
C3
C3
C3
C3
C3
C3
C3
03
ENDCHAR
STARTCHAR 1163
ENCODING 4451
SWIDTH 1000 0
DWIDTH 25 0
BBX 5 19 12 0
BITMAP
80
80
80
80
80
F8
F8
80
80
80
80
F8
F8
80
80
80
80
80
80
ENDCHAR
STARTCHAR 1164
ENCODING 4452
SWIDTH 1000 0
DWIDTH 25 0
BBX 8 19 9 0
BITMAP
C3
C3
C3
C3
C3
FF
FF
C3
C3
C3
C3
FF
FF
C3
C3
C3
C3
C3
03
ENDCHAR
STARTCHAR 1165
ENCODING 4453
SWIDTH 1000 0
DWIDTH 25 0
BBX 7 19 8 0
BITMAP
02
02
02
02
02
02
02
02
FE
FE
02
02
02
02
02
02
02
02
02
ENDCHAR
STARTCHAR 1166
ENCODING 4454
SWIDTH 1000 0
DWIDTH 25 0
BBX 12 19 6 0
BITMAP
0630
0630
0630
0630
0630
0630
0630
0630
FE30
FE30
0630
0630
0630
0630
0630
0630
0630
0630
0030
ENDCHAR
STARTCHAR 1167
ENCODING 4455
SWIDTH 1000 0
DWIDTH 25 0
BBX 8 19 8 0
BITMAP
03
03
03
03
03
FF
FF
03
03
03
03
FF
FF
03
03
03
03
03
03
ENDCHAR
STARTCHAR 1168
ENCODING 4456
SWIDTH 1000 0
DWIDTH 25 0
BBX 12 19 6 0
BITMAP
0630
0630
0630
0630
0630
FE30
FE30
0630
0630
0630
0630
FE30
FE30
0630
0630
0630
0630
0630
0630
ENDCHAR
STARTCHAR 1169
ENCODING 4457
SWIDTH 1000 0
DWIDTH 25 0
BBX 21 9 2 5
BITMAP
002000
002000
002000
002000
002000
002000
002000
FFFFF8
FFFFF8
ENDCHAR
STARTCHAR 116A
ENCODING 4458
SWIDTH 1000 0
DWIDTH 25 0
BBX 23 20 1 -1
BITMAP
000060
000060
000060
000060
000060
000060
018060
018060
01807E
01807E
018060
018060
018060
018060
FF8760
FFFF60
000060
000060
000060
000060
ENDCHAR
STARTCHAR 116B
ENCODING 4459
SWIDTH 1000 0
DWIDTH 25 0
BBX 21 20 1 -1
BITMAP
000318
000318
000318
000318
000318
000318
030318
030318
0303F8
0303F8
030318
030318
030318
030318
FFFB18
FFFB18
000318
000318
000318
000018
ENDCHAR
STARTCHAR 116C
ENCODING 4460
SWIDTH 1000 0
DWIDTH 25 0
BBX 19 20 2 -1
BITMAP
000060
000060
000060
000060
000060
018060
018060
018060
018060
018060
018060
018060
018060
018060
FFFF60
FFFF60
000060
000060
000060
000060
ENDCHAR
STARTCHAR 116D
ENCODING 4461
SWIDTH 1000 0
DWIDTH 25 0
BBX 21 9 2 5
BITMAP
060300
060300
060300
060300
060300
060300
060300
FFFFF8
FFFFF8
ENDCHAR
STARTCHAR 116E
ENCODING 4462
SWIDTH 1000 0
DWIDTH 25 0
BBX 21 12 2 -2
BITMAP
FFFFF8
FFFFF8
002000
002000
002000
002000
002000
002000
002000
002000
002000
002000
ENDCHAR
STARTCHAR 116F
ENCODING 4463
SWIDTH 1000 0
DWIDTH 25 0
BBX 19 19 2 0
BITMAP
000020
000020
000020
000020
000020
000020
000020
FFFE20
FFFE20
018020
018020
018020
018FE0
018FE0
018020
018020
018020
018020
018020
ENDCHAR
STARTCHAR 1170
ENCODING 4464
SWIDTH 1000 0
DWIDTH 25 0
BBX 21 19 1 0
BITMAP
000198
000198
000198
000198
000198
000198
000198
FFF998
FFE198
030198
030198
030198
033F98
030198
030198
030198
030198
030198
000018
ENDCHAR
STARTCHAR 1171
ENCODING 4465
SWIDTH 1000 0
DWIDTH 25 0
BBX 19 19 2 0
BITMAP
000020
000020
000020
000020
000020
000020
000020
FFFE20
FFFE20
018020
018020
018020
018020
018020
018020
018020
018020
018020
000020
ENDCHAR
STARTCHAR 1172
ENCODING 4466
SWIDTH 1000 0
DWIDTH 25 0
BBX 21 12 2 -1
BITMAP
FFFFF8
FFFFF8
060300
060300
060300
060300
060300
060300
060300
060300
060300
060300
ENDCHAR
STARTCHAR 1173
ENCODING 4467
SWIDTH 1000 0
DWIDTH 25 0
BBX 21 2 2 5
BITMAP
FFFFF8
FFFFF8
ENDCHAR
STARTCHAR 1174
ENCODING 4468
SWIDTH 1000 0
DWIDTH 25 0
BBX 19 20 2 -1
BITMAP
000020
000020
000020
000020
000020
000020
000020
000020
000020
000020
000020
000020
000020
000020
FFFF20
FFFF20
000020
000020
000020
000020
ENDCHAR
STARTCHAR 1175
ENCODING 4469
SWIDTH 1000 0
DWIDTH 25 0
BBX 2 19 12 0
BITMAP
C0
C0
C0
C0
C0
C0
C0
C0
C0
C0
C0
C0
C0
C0
C0
C0
C0
C0
C0
ENDCHAR
STARTCHAR 1176
ENCODING 4470
SWIDTH 1000 0
DWIDTH 25 0
BBX 22 20 2 -1
BITMAP
0000C0
0000C0
0000C0
0000C0
0000C0
0000C0
0000C0
0000FC
0000FC
0000C0
0000C0
0020C0
0020C0
0020C0
0020C0
002000
002000
002000
FFFFF8
FFFFF8
ENDCHAR
STARTCHAR 1177
ENCODING 4471
SWIDTH 1000 0
DWIDTH 25 0
BBX 22 21 2 -2
BITMAP
0000C0
0000C0
0000C0
0000C0
0000C0
0000FC
0000FC
0000C0
0000C0
0000C0
0000C0
000000
000000
FFFFF8
FFFFF8
002000
002000
002000
002000
002000
002000
ENDCHAR
STARTCHAR 1178
ENCODING 4472
SWIDTH 1000 0
DWIDTH 25 0
BBX 22 20 2 -1
BITMAP
0000C0
0000C0
0000C0
0000C0
0000FC
0000FC
0000C0
0000C0
0000C0
0000FC
0000FC
0020C0
0020C0
0020C0
0020C0
002000
002000
002000
FFFFF8
FFFFF8
ENDCHAR
STARTCHAR 1179
ENCODING 4473
SWIDTH 1000 0
DWIDTH 25 0
BBX 22 20 2 -1
BITMAP
0000C0
0000C0
0000C0
0000C0
0000FC
0000FC
0000C0
0000C0
0000C0
0000FC
0000FC
0000C0
060CC0
060CC0
060CC0
060C00
060C00
060C00
FFFFF8
FFFFF8
ENDCHAR
STARTCHAR 117A
ENCODING 4474
SWIDTH 1000 0
DWIDTH 25 0
BBX 21 20 2 -1
BITMAP
000040
000040
000040
000040
000040
000040
000FC0
000FC0
000040
000040
000040
000040
002040
002040
002040
002000
002000
002000
FFFFF8
FFFFF8
ENDCHAR
STARTCHAR 117B
ENCODING 4475
SWIDTH 1000 0
DWIDTH 25 0
BBX 21 21 2 -2
BITMAP
0000C0
0000C0
0000C0
0000C0
0000C0
001FC0
001FC0
0000C0
0000C0
0000C0
0000C0
000000
000000
FFFFF8
FFFFF8
002000
002000
002000
002000
002000
002000
ENDCHAR
STARTCHAR 117C
ENCODING 4476
SWIDTH 1000 0
DWIDTH 25 0
BBX 21 20 2 -1
BITMAP
0000C0
0000C0
0000C0
0000C0
0000C0
0000C0
001FC0
001FC0
0000C0
0000C0
0000C0
0000C0
0000C0
0000C0
0000C0
000000
000000
000000
FFFFF8
FFFFF8
ENDCHAR
STARTCHAR 117D
ENCODING 4477
SWIDTH 1000 0
DWIDTH 25 0
BBX 21 21 2 -1
BITMAP
0000C0
0000C0
0000C0
001FC0
001FC0
0000C0
0000C0
0000C0
000FC0
000FC0
0000C0
0000C0
0000C0
0020C0
0020C0
0020C0
002000
002000
002000
FFFFF8
FFFFF8
ENDCHAR
STARTCHAR 117E
ENCODING 4478
SWIDTH 1000 0
DWIDTH 25 0
BBX 21 21 2 -2
BITMAP
0000C0
0000C0
001FC0
001FC0
0000C0
0000C0
0000C0
000FC0
000FC0
0000C0
0000C0
0000C0
000000
FFFFF8
FFFFF8
002000
002000
002000
002000
002000
002000
ENDCHAR
STARTCHAR 117F
ENCODING 4479
SWIDTH 1000 0
DWIDTH 25 0
BBX 19 19 2 0
BITMAP
000060
000060
000060
000060
000060
001FE0
001FE0
018060
018060
018060
018060
018060
018060
018060
FFFE60
FFFE60
000060
000060
000060
ENDCHAR
STARTCHAR 1180
ENCODING 4480
SWIDTH 1000 0
DWIDTH 25 0
BBX 20 18 1 0
BITMAP
000310
000310
000310
000310
000310
030310
033F10
033F10
030310
030310
030310
030310
030310
FFF310
7FFB10
000310
000310
000010
ENDCHAR
STARTCHAR 1181
ENCODING 4481
SWIDTH 1000 0
DWIDTH 25 0
BBX 20 19 1 0
BITMAP
000310
000310
000310
000310
003F10
003F10
020310
020310
023F10
023F10
020310
020310
020310
020310
FFF310
7FF310
000310
000310
000010
ENDCHAR
STARTCHAR 1182
ENCODING 4482
SWIDTH 1000 0
DWIDTH 25 0
BBX 21 19 2 -1
BITMAP
002000
002000
002000
002000
002000
002000
FFFFF8
FFFFF8
000000
000000
002000
002000
002000
002000
002000
002000
002000
FFFFF8
FFFFF8
ENDCHAR
STARTCHAR 1183
ENCODING 4483
SWIDTH 1000 0
DWIDTH 25 0
BBX 21 19 2 -1
BITMAP
002000
002000
002000
002000
002000
002000
FFFFF8
FFFFF8
000000
000000
FFFFF8
FFFFF8
002000
002000
002000
002000
002000
002000
002000
ENDCHAR
STARTCHAR 1184
ENCODING 4484
SWIDTH 1000 0
DWIDTH 25 0
BBX 23 19 1 0
BITMAP
000060
000060
000060
000060
000060
0C307E
0C307E
0C3060
0C3060
0C3060
0C3060
0C307E
0C307E
0C3060
FFFF60
FFFF60
000060
000060
000060
ENDCHAR
STARTCHAR 1185
ENCODING 4485
SWIDTH 1000 0
DWIDTH 25 0
BBX 21 19 1 0
BITMAP
000318
000318
000318
000318
000318
18C3F8
18C3F8
18C318
18C318
18C318
18C318
18C3F8
18C3F8
FFFB18
FFFB18
000318
000318
000318
000018
ENDCHAR
STARTCHAR 1186
ENCODING 4486
SWIDTH 1000 0
DWIDTH 25 0
BBX 20 19 2 0
BITMAP
000030
000030
000030
000030
0007F0
0007F0
000030
0C4030
0C47F0
0C47F0
0C4030
0C4030
0C4030
0C4030
FFFE30
FFC030
000030
000030
000030
ENDCHAR
STARTCHAR 1187
ENCODING 4487
SWIDTH 1000 0
DWIDTH 25 0
BBX 21 19 2 -1
BITMAP
060300
060300
060300
060300
060300
060300
FFFFF8
FFFFF8
000000
000000
002000
002000
002000
002000
002000
002000
002000
FFFFF8
FFFFF8
ENDCHAR
STARTCHAR 1188
ENCODING 4488
SWIDTH 1000 0
DWIDTH 25 0
BBX 19 19 2 0
BITMAP
000060
000060
000060
000060
000060
0C3060
0C3060
0C3060
0C3060
0C3060
0C3060
0C3060
0C3060
0C3060
FFFF60
FFFF60
000060
000060
000060
ENDCHAR
STARTCHAR 1189
ENCODING 4489
SWIDTH 1000 0
DWIDTH 25 0
BBX 23 19 1 0
BITMAP
0000C0
0000C0
0000C0
0000C0
0000C0
0000C0
0000C0
0000C0
FFFEC0
7FFCFE
0180FE
0180C0
0180C0
0180C0
0180C0
0180C0
0180C0
0180C0
0000C0
ENDCHAR
STARTCHAR 118A
ENCODING 4490
SWIDTH 1000 0
DWIDTH 25 0
BBX 20 19 1 0
BITMAP
000610
000610
000610
000610
000610
000610
000610
000610
FFF7F0
FFC7F0
060610
060610
060610
060610
060610
060610
060610
000610
000010
ENDCHAR
STARTCHAR 118B
ENCODING 4491
SWIDTH 1000 0
DWIDTH 25 0
BBX 20 24 2 -5
BITMAP
000030
000030
000030
000030
000030
000030
FFFC30
FFFC30
030030
030030
030FF0
030FF0
030030
030030
030030
030030
000030
000030
FFFC30
FFFC30
000030
000030
000030
000030
ENDCHAR
STARTCHAR 118C
ENCODING 4492
SWIDTH 1000 0
DWIDTH 25 0
BBX 21 19 1 0
BITMAP
000198
000198
000198
000198
000198
FFF198
FFE198
060198
063F98
060198
060198
060198
063F98
063F98
060198
060198
060198
000198
000018
ENDCHAR
STARTCHAR 118D
ENCODING 4493
SWIDTH 1000 0
DWIDTH 25 0
BBX 21 20 2 -2
BITMAP
FFFFF8
FFFFF8
002000
002000
002000
002000
002000
002000
002000
000000
000000
FFFFF8
FFFFF8
002000
002000
002000
002000
002000
002000
002000
ENDCHAR
STARTCHAR 118E
ENCODING 4494
SWIDTH 1000 0
DWIDTH 25 0
BBX 22 20 2 0
BITMAP
000080
000080
000080
000080
000080
000080
000080
000080
FFFC80
184080
1840FC
1840FC
184080
184080
184080
184080
184080
184080
184080
000080
ENDCHAR
STARTCHAR 118F
ENCODING 4495
SWIDTH 1000 0
DWIDTH 25 0
BBX 19 19 2 0
BITMAP
000060
000060
000060
000060
000060
000060
000060
FFFE60
186060
186060
186060
1867E0
1867E0
186060
186060
186060
186060
186060
000060
ENDCHAR
STARTCHAR 1190
ENCODING 4496
SWIDTH 1000 0
DWIDTH 25 0
BBX 21 20 1 0
BITMAP
000198
000198
000198
000198
000198
000198
000198
000198
FFF198
19F198
198198
198198
199F98
198198
198198
198198
198198
198198
198198
000018
ENDCHAR
STARTCHAR 1191
ENCODING 4497
SWIDTH 1000 0
DWIDTH 25 0
BBX 19 20 2 0
BITMAP
000020
000020
000020
000020
000020
000020
000020
FFFE20
186020
186020
1867E0
1867E0
186020
186020
1867E0
1867E0
186020
186020
186020
000020
ENDCHAR
STARTCHAR 1192
ENCODING 4498
SWIDTH 1000 0
DWIDTH 25 0
BBX 21 18 1 1
BITMAP
000198
000198
000198
000198
000198
000198
000198
FFF198
19F198
198198
199F98
198198
198198
199F98
198198
198198
198198
000018
ENDCHAR
STARTCHAR 1193
ENCODING 4499
SWIDTH 1000 0
DWIDTH 25 0
BBX 21 20 2 -2
BITMAP
FFFFF8
FFFFF8
060300
060300
060300
060300
060300
060300
060300
000000
000000
FFFFF8
FFFFF8
002000
002000
002000
002000
002000
002000
002000
ENDCHAR
STARTCHAR 1194
ENCODING 4500
SWIDTH 1000 0
DWIDTH 25 0
BBX 19 20 2 0
BITMAP
000060
000060
000060
000060
000060
000060
000060
000060
FFFE60
0C6060
0C6060
0C6060
0C6060
0C6060
0C6060
0C6060
0C6060
0C6060
0C6060
000060
ENDCHAR
STARTCHAR 1195
ENCODING 4501
SWIDTH 1000 0
DWIDTH 25 0
BBX 21 16 2 0
BITMAP
FFFFF8
FFFFF8
000000
000000
000000
FFFFF8
FFFFF8
002000
002000
002000
002000
002000
002000
002000
002000
002000
ENDCHAR
STARTCHAR 1196
ENCODING 4502
SWIDTH 1000 0
DWIDTH 25 0
BBX 21 8 2 6
BITMAP
FFFFF8
FFFFF8
000000
000000
000000
000000
FFFFF8
FFFFF8
ENDCHAR
STARTCHAR 1197
ENCODING 4503
SWIDTH 1000 0
DWIDTH 25 0
BBX 21 23 2 -4
BITMAP
000020
000020
000020
000020
000020
000020
000020
FFFF20
FF8020
000020
000020
000000
000000
FFFFF8
FFFFF8
002000
002000
002000
002000
002000
002000
002000
002000
ENDCHAR
STARTCHAR 1198
ENCODING 4504
SWIDTH 1000 0
DWIDTH 25 0
BBX 11 19 11 0
BITMAP
C300
C300
C300
C300
C300
C300
C300
C300
C3E0
C3E0
C300
C300
C300
C300
C300
C300
C300
C300
0300
ENDCHAR
STARTCHAR 1199
ENCODING 4505
SWIDTH 1000 0
DWIDTH 25 0
BBX 11 18 11 0
BITMAP
C200
C200
C200
C200
C200
C3E0
C3E0
C200
C200
C200
C200
C3E0
C3E0
C200
C200
C200
C200
0200
ENDCHAR
STARTCHAR 119A
ENCODING 4506
SWIDTH 1000 0
DWIDTH 25 0
BBX 21 20 2 -1
BITMAP
000040
000040
000040
000040
000040
000040
000040
000040
000040
000040
002040
002040
002000
002000
002000
002000
002000
002000
FFFFF8
FFFFF8
ENDCHAR
STARTCHAR 119B
ENCODING 4507
SWIDTH 1000 0
DWIDTH 25 0
BBX 21 22 2 -3
BITMAP
000040
000040
000040
000040
000040
000040
000040
000040
000040
000040
000000
000000
FFFFF8
FFFFF8
002000
002000
002000
002000
002000
002000
002000
002000
ENDCHAR
STARTCHAR 119C
ENCODING 4508
SWIDTH 1000 0
DWIDTH 25 0
BBX 21 20 2 -1
BITMAP
000040
000040
000040
000040
000040
000040
000040
000040
000040
000040
000040
000040
000040
000040
000040
000000
000000
000000
FFFFF8
FFFFF8
ENDCHAR
STARTCHAR 119D
ENCODING 4509
SWIDTH 1000 0
DWIDTH 25 0
BBX 4 21 10 -2
BITMAP
20
20
20
20
20
20
20
20
20
20
20
20
20
20
20
00
00
70
F0
F0
70
ENDCHAR
STARTCHAR 119E
ENCODING 4510
SWIDTH 1000 0
DWIDTH 25 0
BBX 4 4 10 8
BITMAP
70
F0
F0
70
ENDCHAR
STARTCHAR 119F
ENCODING 4511
SWIDTH 1000 0
DWIDTH 25 0
BBX 12 18 6 1
BITMAP
0030
0030
0030
0030
0030
0030
1FF0
1FF0
0030
0030
6030
F030
F030
6030
0030
0030
0030
0030
ENDCHAR
STARTCHAR 11A0
ENCODING 4512
SWIDTH 1000 0
DWIDTH 25 0
BBX 21 21 2 -2
BITMAP
007000
00F000
00F000
007000
000000
000000
000000
000000
000000
000000
000000
FFFFF8
FFFFF8
002000
002000
002000
002000
002000
002000
002000
002000
ENDCHAR
STARTCHAR 11A1
ENCODING 4513
SWIDTH 1000 0
DWIDTH 25 0
BBX 12 19 7 0
BITMAP
0030
0030
0030
0030
0030
0030
0030
7030
F030
F030
7030
0030
0030
0030
0030
0030
0030
0030
0030
ENDCHAR
STARTCHAR 11A2
ENCODING 4514
SWIDTH 1000 0
DWIDTH 25 0
BBX 11 4 7 6
BITMAP
E0E0
F1E0
F1E0
E0E0
ENDCHAR
STARTCHAR 11A8
ENCODING 4520
SWIDTH 1000 0
DWIDTH 25 0
BBX 15 9 5 -5
BITMAP
FFFE
FFFE
0006
0006
0006
0006
0006
0006
0006
ENDCHAR
STARTCHAR 11A9
ENCODING 4521
SWIDTH 1000 0
DWIDTH 25 0
BBX 18 8 3 -4
BITMAP
FFBFC0
FFBFC0
0180C0
0180C0
0180C0
0180C0
0180C0
0180C0
ENDCHAR
STARTCHAR 11AA
ENCODING 4522
SWIDTH 1000 0
DWIDTH 25 0
BBX 18 9 4 -4
BITMAP
FE0C00
FE0C00
020C00
020C00
020E00
021E00
023300
026180
02C0C0
ENDCHAR
STARTCHAR 11AB
ENCODING 4523
SWIDTH 1000 0
DWIDTH 25 0
BBX 15 8 5 -4
BITMAP
C000
C000
C000
C000
C000
C000
FFFE
FFFE
ENDCHAR
STARTCHAR 11AC
ENCODING 4524
SWIDTH 1000 0
DWIDTH 25 0
BBX 17 8 4 -4
BITMAP
C0FF80
C00800
C01800
C01C00
C01400
C23600
FCE300
F0C080
ENDCHAR
STARTCHAR 11AD
ENCODING 4525
SWIDTH 1000 0
DWIDTH 25 0
BBX 18 11 4 -4
BITMAP
000C00
000C00
C0FFC0
C0FFC0
C01E00
C06300
C06180
C04180
C26180
FC6300
E01E00
ENDCHAR
STARTCHAR 11AE
ENCODING 4526
SWIDTH 1000 0
DWIDTH 25 0
BBX 15 8 5 -4
BITMAP
FFFE
FFFE
C000
C000
C000
C000
FFFE
FFFE
ENDCHAR
STARTCHAR 11AF
ENCODING 4527
SWIDTH 1000 0
DWIDTH 25 0
BBX 15 10 5 -4
BITMAP
FFFE
FFFE
0006
0006
FFFE
FFFE
C000
C000
FFFE
FFFE
ENDCHAR
STARTCHAR 11B0
ENCODING 4528
SWIDTH 1000 0
DWIDTH 25 0
BBX 16 10 4 -4
BITMAP
FF7F
FF7F
0303
0303
FF03
C003
C003
C003
FF03
0003
ENDCHAR
STARTCHAR 11B1
ENCODING 4529
SWIDTH 1000 0
DWIDTH 25 0
BBX 17 9 4 -3
BITMAP
FF7F80
FF6080
036080
036080
FF6080
C06080
C06080
C06080
FFFF80
ENDCHAR
STARTCHAR 11B2
ENCODING 4530
SWIDTH 1000 0
DWIDTH 25 0
BBX 17 9 4 -3
BITMAP
FF6180
FF6180
036180
037F80
FF6180
C06180
C06180
C06180
FFFF80
ENDCHAR
STARTCHAR 11B3
ENCODING 4531
SWIDTH 1000 0
DWIDTH 25 0
BBX 19 10 4 -4
BITMAP
FF0400
FF0400
030400
030C00
FF0E00
800E00
801B00
801980
8030C0
FF6060
ENDCHAR
STARTCHAR 11B4
ENCODING 4532
SWIDTH 1000 0
DWIDTH 25 0
BBX 18 10 4 -4
BITMAP
FF3F80
FF3F80
032000
032000
FF3F80
C02000
C02000
C02000
FF3FC0
01BFC0
ENDCHAR
STARTCHAR 11B5
ENCODING 4533
SWIDTH 1000 0
DWIDTH 25 0
BBX 18 10 4 -4
BITMAP
FF7FC0
FF7FC0
031300
031300
FF1300
801300
801300
801300
FF7FC0
017FC0
ENDCHAR
STARTCHAR 11B6
ENCODING 4534
SWIDTH 1000 0
DWIDTH 25 0
BBX 19 11 3 -4
BITMAP
000600
000600
FF7FE0
FF7FE0
030F00
0318C0
FF30C0
C03040
C030C0
C010C0
FF8F00
ENDCHAR
STARTCHAR 11B7
ENCODING 4535
SWIDTH 1000 0
DWIDTH 25 0
BBX 15 9 5 -4
BITMAP
FFFE
FFFE
C006
C006
C006
C006
C006
FFFE
FFFE
ENDCHAR
STARTCHAR 11B8
ENCODING 4536
SWIDTH 1000 0
DWIDTH 25 0
BBX 15 9 5 -4
BITMAP
C006
C006
C006
FFFE
FFFE
C006
C006
FFFE
FFFE
ENDCHAR
STARTCHAR 11B9
ENCODING 4537
SWIDTH 1000 0
DWIDTH 25 0
BBX 18 9 4 -4
BITMAP
C30C00
C30C00
C30C00
FF0C00
C30E00
C31E00
C33300
C36180
FFC0C0
ENDCHAR
STARTCHAR 11BA
ENCODING 4538
SWIDTH 1000 0
DWIDTH 25 0
BBX 19 8 3 -3
BITMAP
004000
004000
00E000
01B000
031000
060C00
180300
E000E0
ENDCHAR
STARTCHAR 11BB
ENCODING 4539
SWIDTH 1000 0
DWIDTH 25 0
BBX 19 9 3 -4
BITMAP
0C0600
0C0600
0C0600
0C0600
1E0F00
120900
211880
40B0C0
802020
ENDCHAR
STARTCHAR 11BC
ENCODING 4540
SWIDTH 1000 0
DWIDTH 25 0
BBX 15 8 5 -3
BITMAP
1FF0
701C
C006
C006
C006
C006
701C
1FF0
ENDCHAR
STARTCHAR 11BD
ENCODING 4541
SWIDTH 1000 0
DWIDTH 25 0
BBX 19 7 3 -3
BITMAP
7FFFC0
7FFFC0
00E000
01F000
03B800
1E0F00
F001E0
ENDCHAR
STARTCHAR 11BE
ENCODING 4542
SWIDTH 1000 0
DWIDTH 25 0
BBX 19 9 3 -4
BITMAP
004000
004000
7FFFC0
7FFFC0
00E000
01B000
0F1E00
FC07E0
E000E0
ENDCHAR
STARTCHAR 11BF
ENCODING 4543
SWIDTH 1000 0
DWIDTH 25 0
BBX 15 10 5 -6
BITMAP
FFFE
FFFE
0006
0006
0006
FFFE
FFFE
0006
0006
0006
ENDCHAR
STARTCHAR 11C0
ENCODING 4544
SWIDTH 1000 0
DWIDTH 25 0
BBX 15 9 5 -4
BITMAP
FFFE
FFFE
C000
FFFC
FFFC
C000
C000
FFFE
FFFE
ENDCHAR
STARTCHAR 11C1
ENCODING 4545
SWIDTH 1000 0
DWIDTH 25 0
BBX 17 9 4 -4
BITMAP
FFFF00
FFFF00
0C1800
0C1800
0C1800
0C1800
0C1800
FFFF80
FFFF80
ENDCHAR
STARTCHAR 11C2
ENCODING 4546
SWIDTH 1000 0
DWIDTH 25 0
BBX 17 11 4 -4
BITMAP
008000
008000
FFFF80
FFFF80
0FF800
380E00
600300
600300
600300
380E00
0FF800
ENDCHAR
STARTCHAR 11C3
ENCODING 4547
SWIDTH 1000 0
DWIDTH 25 0
BBX 18 9 4 -4
BITMAP
FE7F80
FE7F80
060180
060180
067F80
066000
066000
066000
067FC0
ENDCHAR
STARTCHAR 11C4
ENCODING 4548
SWIDTH 1000 0
DWIDTH 25 0
BBX 17 9 4 -4
BITMAP
F8CF80
18C180
18C180
18C180
18C180
18E180
19A180
1B3180
1A1180
ENDCHAR
STARTCHAR 11C5
ENCODING 4549
SWIDTH 1000 0
DWIDTH 25 0
BBX 15 8 5 -4
BITMAP
C1FE
C1FE
C006
C006
C006
C606
FE06
E006
ENDCHAR
STARTCHAR 11C6
ENCODING 4550
SWIDTH 1000 0
DWIDTH 25 0
BBX 17 9 4 -4
BITMAP
C07F80
C07F80
C06000
C06000
C06000
C06000
C06000
FE7F80
FC7F80
ENDCHAR
STARTCHAR 11C7
ENCODING 4551
SWIDTH 1000 0
DWIDTH 25 0
BBX 17 9 5 -4
BITMAP
C01800
C01800
C01800
C01800
C01800
C03C00
C66600
FEC300
E18180
ENDCHAR
STARTCHAR 11C8
ENCODING 4552
SWIDTH 1000 0
DWIDTH 25 0
BBX 18 10 4 -3
BITMAP
000800
C00C00
C01E00
C01A00
C03300
C03180
C06180
C7E0C0
FEFFC0
E00000
ENDCHAR
STARTCHAR 11C9
ENCODING 4553
SWIDTH 1000 0
DWIDTH 25 0
BBX 17 10 5 -5
BITMAP
C07F00
C07F00
C04000
C04000
C07F00
C04000
C64000
FE4000
E07F80
007F80
ENDCHAR
STARTCHAR 11CA
ENCODING 4554
SWIDTH 1000 0
DWIDTH 25 0
BBX 17 9 3 -5
BITMAP
FFBF80
FFBF80
C00180
C00180
C00180
C00180
C00180
FF8180
FF8180
ENDCHAR
STARTCHAR 11CB
ENCODING 4555
SWIDTH 1000 0
DWIDTH 25 0
BBX 19 10 3 -4
BITMAP
FF9FE0
FF9FE0
C00060
C00060
C01FE0
C01800
C01800
C01800
FF9FE0
FF8000
ENDCHAR
STARTCHAR 11CC
ENCODING 4556
SWIDTH 1000 0
DWIDTH 25 0
BBX 19 9 3 -4
BITMAP
FDF100
0C3100
0C3100
0C3100
FC3380
C03380
C036C0
C03440
FC3C20
ENDCHAR
STARTCHAR 11CD
ENCODING 4557
SWIDTH 1000 0
DWIDTH 25 0
BBX 18 10 4 -3
BITMAP
FF3000
FF3000
033000
033000
FF3000
C03000
C03000
C03000
FF3FC0
003FC0
ENDCHAR
STARTCHAR 11CE
ENCODING 4558
SWIDTH 1000 0
DWIDTH 25 0
BBX 18 9 4 -4
BITMAP
FF3F80
FF3F80
032000
FF2000
C02000
C02000
C02000
FF3FC0
03BFC0
ENDCHAR
STARTCHAR 11CF
ENCODING 4559
SWIDTH 1000 0
DWIDTH 25 0
BBX 20 12 3 -4
BITMAP
000080
000080
F9F080
0987F0
098000
0981C0
F98220
C18630
C18630
C18630
FDF220
0001C0
ENDCHAR
STARTCHAR 11D0
ENCODING 4560
SWIDTH 1000 0
DWIDTH 25 0
BBX 18 10 4 -4
BITMAP
FF3FC0
FF3FC0
0300C0
0300C0
FF3FC0
C03000
C03000
C03000
FF3FC0
1E0000
ENDCHAR
STARTCHAR 11D1
ENCODING 4561
SWIDTH 1000 0
DWIDTH 25 0
BBX 18 9 3 -4
BITMAP
FDF7C0
0D9040
0D9040
FD9040
C19040
C19040
C19040
FDF040
000040
ENDCHAR
STARTCHAR 11D2
ENCODING 4562
SWIDTH 1000 0
DWIDTH 25 0
BBX 19 9 3 -4
BITMAP
FDF180
0D9180
0D9180
0D9180
FD9180
C191C0
C19340
C19660
FDF420
ENDCHAR
STARTCHAR 11D3
ENCODING 4563
SWIDTH 1000 0
DWIDTH 25 0
BBX 19 9 3 -4
BITMAP
FD9180
0D9180
0D9180
0DF180
FD9180
C191C0
C19340
C19660
FDF420
ENDCHAR
STARTCHAR 11D4
ENCODING 4564
SWIDTH 1000 0
DWIDTH 25 0
BBX 20 11 3 -4
BITMAP
000080
000080
F917F0
091000
0911C0
F9F220
C11630
C11630
C11630
FDF220
0001C0
ENDCHAR
STARTCHAR 11D5
ENCODING 4565
SWIDTH 1000 0
DWIDTH 25 0
BBX 20 17 2 -4
BITMAP
003030
003030
003030
003FF0
FF3FF0
FF3030
013030
FF3FF0
C03FF0
C00000
C007C0
FF9860
0F1030
001030
001030
001860
0007C0
ENDCHAR
STARTCHAR 11D6
ENCODING 4566
SWIDTH 1000 0
DWIDTH 25 0
BBX 20 9 2 -4
BITMAP
FE3080
FE3080
063080
063180
FE3980
C03940
C06B40
FEC620
008430
ENDCHAR
STARTCHAR 11D7
ENCODING 4567
SWIDTH 1000 0
DWIDTH 25 0
BBX 20 9 3 -2
BITMAP
FF8200
FF8300
018780
018680
FF8CC0
C00C60
C01860
C03830
FFBFF0
ENDCHAR
STARTCHAR 11D8
ENCODING 4568
SWIDTH 1000 0
DWIDTH 25 0
BBX 17 8 4 -3
BITMAP
FF7F80
FF7F80
030180
FF0180
C07F80
C07F80
C00180
FF0180
ENDCHAR
STARTCHAR 11D9
ENCODING 4569
SWIDTH 1000 0
DWIDTH 25 0
BBX 19 9 3 -4
BITMAP
FF7FE0
FF7FE0
030F00
0318C0
FF30C0
C03040
C030C0
C010C0
FF8F00
ENDCHAR
STARTCHAR 11DA
ENCODING 4570
SWIDTH 1000 0
DWIDTH 25 0
BBX 16 9 4 -5
BITMAP
FF7F
837F
8303
8303
8303
8303
8303
FF03
0003
ENDCHAR
STARTCHAR 11DB
ENCODING 4571
SWIDTH 1000 0
DWIDTH 25 0
BBX 18 9 4 -3
BITMAP
FF7F80
837F80
830080
830080
837F80
836000
836000
836000
FF7FC0
ENDCHAR
STARTCHAR 11DC
ENCODING 4572
SWIDTH 1000 0
DWIDTH 25 0
BBX 17 8 4 -3
BITMAP
FF6180
836180
836180
837F80
836180
836180
836180
FF7F80
ENDCHAR
STARTCHAR 11DD
ENCODING 4573
SWIDTH 1000 0
DWIDTH 25 0
BBX 18 9 4 -4
BITMAP
FF0C00
C30C00
C30C00
C30C00
C30E00
C31E00
C31300
C32180
FFC0C0
ENDCHAR
STARTCHAR 11DE
ENCODING 4574
SWIDTH 1000 0
DWIDTH 25 0
BBX 19 9 3 -4
BITMAP
FC6100
C46100
C46100
C46300
C46380
C47380
C4D680
C59CC0
FD0860
ENDCHAR
STARTCHAR 11DF
ENCODING 4575
SWIDTH 1000 0
DWIDTH 25 0
BBX 19 9 3 -2
BITMAP
000400
FF0600
C30F00
C30D00
C31980
C31880
C330C0
C33060
FF7FE0
ENDCHAR
STARTCHAR 11E0
ENCODING 4576
SWIDTH 1000 0
DWIDTH 25 0
BBX 19 10 3 -4
BITMAP
000600
FF0600
C33FC0
C30600
C30600
C30600
C30F00
C31980
C330C0
FF2060
ENDCHAR
STARTCHAR 11E1
ENCODING 4577
SWIDTH 1000 0
DWIDTH 25 0
BBX 19 11 3 -4
BITMAP
000600
000600
FF7FE0
C37FE0
C30F00
C318C0
C330C0
C33040
C330C0
FF10C0
000F00
ENDCHAR
STARTCHAR 11E2
ENCODING 4578
SWIDTH 1000 0
DWIDTH 25 0
BBX 15 16 5 -4
BITMAP
FFFE
FFFE
C006
C006
C006
C006
FFFE
FFFE
0000
07C0
1860
1830
1030
1830
1860
07C0
ENDCHAR
STARTCHAR 11E3
ENCODING 4579
SWIDTH 1000 0
DWIDTH 25 0
BBX 18 9 4 -2
BITMAP
C33FC0
C33FC0
C300C0
FF00C0
C33FC0
C33000
C33000
C33000
FF3FC0
ENDCHAR
STARTCHAR 11E4
ENCODING 4580
SWIDTH 1000 0
DWIDTH 25 0
BBX 18 10 4 -3
BITMAP
C37FC0
C37FC0
C31300
FF1300
C31300
C31300
C31300
C31300
FF7FC0
007FC0
ENDCHAR
STARTCHAR 11E5
ENCODING 4581
SWIDTH 1000 0
DWIDTH 25 0
BBX 18 11 4 -4
BITMAP
000C00
820C00
82FFC0
82FFC0
821E00
FE3180
826180
826080
826180
FE2180
001E00
ENDCHAR
STARTCHAR 11E6
ENCODING 4582
SWIDTH 1000 0
DWIDTH 25 0
BBX 15 17 5 -4
BITMAP
C006
C006
C006
FFFE
FFFE
C006
C006
FFFE
FFFE
0000
07C0
1860
1830
1030
1830
1860
07C0
ENDCHAR
STARTCHAR 11E7
ENCODING 4583
SWIDTH 1000 0
DWIDTH 25 0
BBX 18 9 3 -5
BITMAP
0C3FC0
0C3FC0
0C00C0
0C00C0
0E00C0
1E00C0
1300C0
3180C0
C040C0
ENDCHAR
STARTCHAR 11E8
ENCODING 4584
SWIDTH 1000 0
DWIDTH 25 0
BBX 19 10 3 -6
BITMAP
0C1FC0
0C1FC0
0C1800
0C1800
0E1800
1E1800
331800
219800
C05FE0
001FE0
ENDCHAR
STARTCHAR 11E9
ENCODING 4585
SWIDTH 1000 0
DWIDTH 25 0
BBX 19 9 3 -4
BITMAP
0C1FE0
0C1FE0
0C0060
0C0060
0E1FE0
1E1800
131800
319800
C0DFE0
ENDCHAR
STARTCHAR 11EA
ENCODING 4586
SWIDTH 1000 0
DWIDTH 25 0
BBX 19 9 3 -4
BITMAP
0C1860
0C1860
0C1860
0C1FE0
0E1860
1E1860
131860
319860
C0DFE0
ENDCHAR
STARTCHAR 11EB
ENCODING 4587
SWIDTH 1000 0
DWIDTH 25 0
BBX 15 9 5 -3
BITMAP
0100
0380
07C0
0EE0
1C60
3830
3018
601C
FFFE
ENDCHAR
STARTCHAR 11EC
ENCODING 4588
SWIDTH 1000 0
DWIDTH 25 0
BBX 17 9 4 -4
BITMAP
3E7F80
7F7F80
E38180
C18180
808180
808180
C18180
630180
3E0180
ENDCHAR
STARTCHAR 11ED
ENCODING 4589
SWIDTH 1000 0
DWIDTH 25 0
BBX 20 9 2 -4
BITMAP
3C7DF0
637DF0
410C10
C18C10
C18C10
C18C10
410C10
630C10
3C0C10
ENDCHAR
STARTCHAR 11EE
ENCODING 4590
SWIDTH 1000 0
DWIDTH 25 0
BBX 20 9 2 -4
BITMAP
1F07C0
3F8FE0
61DC70
60D830
C0D810
40D810
40D830
218C60
1F07C0
ENDCHAR
STARTCHAR 11EF
ENCODING 4591
SWIDTH 1000 0
DWIDTH 25 0
BBX 18 9 3 -4
BITMAP
1E1FC0
7F9FC0
618040
C0C040
C0DFC0
C0DFC0
408040
618040
1E0040
ENDCHAR
STARTCHAR 11F0
ENCODING 4592
SWIDTH 1000 0
DWIDTH 25 0
BBX 15 10 5 -4
BITMAP
0100
0100
1FF0
701C
C006
C006
C006
C006
701C
1FF0
ENDCHAR
STARTCHAR 11F1
ENCODING 4593
SWIDTH 1000 0
DWIDTH 25 0
BBX 18 12 4 -4
BITMAP
080000
1C0400
7F0400
E38400
C18400
808600
808E00
818E00
C19B00
631980
3E30C0
006040
ENDCHAR
STARTCHAR 11F2
ENCODING 4594
SWIDTH 1000 0
DWIDTH 25 0
BBX 19 12 4 -4
BITMAP
080000
080000
080400
7F0600
E38700
C18F00
809980
809980
80B0C0
C1B0C0
637060
3E7FE0
ENDCHAR
STARTCHAR 11F3
ENCODING 4595
SWIDTH 1000 0
DWIDTH 25 0
BBX 18 9 4 -4
BITMAP
FF30C0
FF30C0
6630C0
663FC0
6630C0
6630C0
6630C0
FF3FC0
FF0000
ENDCHAR
STARTCHAR 11F4
ENCODING 4596
SWIDTH 1000 0
DWIDTH 25 0
BBX 17 16 4 -4
BITMAP
FFFF00
FFFF00
0C1800
0C1800
0C1800
0C1800
0C1800
FFFF80
FFFF80
03E000
0C3000
0C1800
081800
0C1800
0C3000
03E000
ENDCHAR
STARTCHAR 11F5
ENCODING 4597
SWIDTH 1000 0
DWIDTH 25 0
BBX 18 12 3 -5
BITMAP
0C0000
0C0000
FFD800
FFD800
1E1800
7F9800
619800
619800
619800
619800
1E1FC0
001FC0
ENDCHAR
STARTCHAR 11F6
ENCODING 4598
SWIDTH 1000 0
DWIDTH 25 0
BBX 18 11 3 -4
BITMAP
0C0000
0C1FC0
FFDFC0
FFC0C0
1E00C0
7F9FC0
619800
619800
619800
619FC0
1E0000
ENDCHAR
STARTCHAR 11F7
ENCODING 4599
SWIDTH 1000 0
DWIDTH 25 0
BBX 18 11 3 -4
BITMAP
0C0000
0C0000
FFDFC0
FFD840
1E1840
7F9840
619840
619840
619840
619840
1E1FC0
ENDCHAR
STARTCHAR 11F8
ENCODING 4600
SWIDTH 1000 0
DWIDTH 25 0
BBX 18 11 3 -4
BITMAP
0C0000
0C0000
FFB0C0
FFB0C0
3E30C0
7F3FC0
63B0C0
41B0C0
41B0C0
633FC0
3E0000
ENDCHAR
STARTCHAR 11F9
ENCODING 4601
SWIDTH 1000 0
DWIDTH 25 0
BBX 17 9 4 -4
BITMAP
FFFF80
FFFF80
000000
0FF800
380E00
600300
600300
300600
0FF800
ENDCHAR
STARTCHAR 2013
ENCODING 8211
SWIDTH 520 0
DWIDTH 13 0
BBX 13 2 0 6
BITMAP
FFF8
FFF8
ENDCHAR
STARTCHAR 2014
ENCODING 8212
SWIDTH 1040 0
DWIDTH 26 0
BBX 26 2 0 6
BITMAP
FFFFFFC0
FFFFFFC0
ENDCHAR
STARTCHAR 2015
ENCODING 8213
SWIDTH 1000 0
DWIDTH 25 0
BBX 25 1 0 7
BITMAP
FFFFFF80
ENDCHAR
STARTCHAR 2018
ENCODING 8216
SWIDTH 240 0
DWIDTH 6 0
BBX 3 6 1 12
BITMAP
20
60
60
40
C0
C0
ENDCHAR
STARTCHAR 2019
ENCODING 8217
SWIDTH 240 0
DWIDTH 6 0
BBX 3 6 1 12
BITMAP
60
60
40
C0
C0
80
ENDCHAR
STARTCHAR 201A
ENCODING 8218
SWIDTH 240 0
DWIDTH 6 0
BBX 3 6 1 -3
BITMAP
60
60
40
C0
C0
80
ENDCHAR
STARTCHAR 201C
ENCODING 8220
SWIDTH 360 0
DWIDTH 9 0
BBX 7 6 1 12
BITMAP
22
66
66
44
CC
CC
ENDCHAR
STARTCHAR 201D
ENCODING 8221
SWIDTH 360 0
DWIDTH 9 0
BBX 7 6 1 12
BITMAP
66
66
44
CC
CC
88
ENDCHAR
STARTCHAR 201E
ENCODING 8222
SWIDTH 360 0
DWIDTH 9 0
BBX 7 6 1 -3
BITMAP
66
66
44
CC
CC
88
ENDCHAR
STARTCHAR 2020
ENCODING 8224
SWIDTH 400 0
DWIDTH 10 0
BBX 8 15 1 3
BITMAP
18
18
18
18
FF
18
18
18
18
18
18
18
18
18
18
ENDCHAR
STARTCHAR 2021
ENCODING 8225
SWIDTH 400 0
DWIDTH 10 0
BBX 8 15 1 3
BITMAP
18
18
18
18
FF
18
18
18
18
FF
18
18
18
18
18
ENDCHAR
STARTCHAR 2022
ENCODING 8226
SWIDTH 400 0
DWIDTH 10 0
BBX 6 7 2 4
BITMAP
78
78
FC
FC
FC
78
78
ENDCHAR
STARTCHAR 2025
ENCODING 8229
SWIDTH 440 0
DWIDTH 11 0
BBX 9 3 1 0
BITMAP
E380
E380
E380
ENDCHAR
STARTCHAR 2026
ENCODING 8230
SWIDTH 760 0
DWIDTH 19 0
BBX 16 3 2 0
BITMAP
E387
E387
E387
ENDCHAR
STARTCHAR 2030
ENCODING 8240
SWIDTH 1240 0
DWIDTH 31 0
BBX 29 18 1 0
BITMAP
3E030000
63060000
C18C0000
C18C0000
C1980000
C1980000
C1B00000
63600000
3E600000
00C783E0
00CCC630
01986C18
03186C18
03186C18
06186C18
06186C18
0C0CC630
180783E0
ENDCHAR
STARTCHAR 2032
ENCODING 8242
SWIDTH 240 0
DWIDTH 6 0
BBX 2 6 2 12
BITMAP
C0
C0
C0
80
80
80
ENDCHAR
STARTCHAR 2033
ENCODING 8243
SWIDTH 360 0
DWIDTH 9 0
BBX 5 6 2 12
BITMAP
D8
D8
D8
90
90
90
ENDCHAR
STARTCHAR 2039
ENCODING 8249
SWIDTH 320 0
DWIDTH 8 0
BBX 6 9 1 3
BITMAP
0C
18
30
60
C0
60
30
18
0C
ENDCHAR
STARTCHAR 203A
ENCODING 8250
SWIDTH 320 0
DWIDTH 8 0
BBX 6 9 1 3
BITMAP
C0
60
30
18
0C
18
30
60
C0
ENDCHAR
STARTCHAR 203B
ENCODING 8251
SWIDTH 800 0
DWIDTH 20 0
BBX 20 18 0 -1
BITMAP
800010
600060
3070C0
187180
0C7300
060600
030C00
019800
3861C0
3861C0
3999C0
030C00
060600
0C7300
187180
3070C0
600060
800030
ENDCHAR
STARTCHAR 2074
ENCODING 8308
SWIDTH 360 0
DWIDTH 9 0
BBX 8 11 1 7
BITMAP
0E
0E
1E
36
26
66
C6
FF
06
06
06
ENDCHAR
STARTCHAR 207F
ENCODING 8319
SWIDTH 400 0
DWIDTH 10 0
BBX 8 9 1 9
BITMAP
DE
E7
C3
C3
C3
C3
C3
C3
C3
ENDCHAR
STARTCHAR 2081
ENCODING 8321
SWIDTH 400 0
DWIDTH 10 0
BBX 6 11 2 0
BITMAP
30
F0
10
10
10
10
10
10
10
10
FC
ENDCHAR
STARTCHAR 2082
ENCODING 8322
SWIDTH 400 0
DWIDTH 10 0
BBX 8 11 1 0
BITMAP
3C
47
03
03
07
06
0C
18
30
E0
FF
ENDCHAR
STARTCHAR 2083
ENCODING 8323
SWIDTH 400 0
DWIDTH 10 0
BBX 7 11 2 0
BITMAP
7C
8E
06
06
0C
70
0C
06
06
8E
78
ENDCHAR
STARTCHAR 2084
ENCODING 8324
SWIDTH 400 0
DWIDTH 10 0
BBX 8 11 1 0
BITMAP
0C
0C
14
34
24
64
C4
FF
04
04
04
ENDCHAR
STARTCHAR 20A0
ENCODING 8352
SWIDTH 640 0
DWIDTH 16 0
BBX 13 18 1 0
BITMAP
0F80
3FC0
7040
6000
C000
C3F8
C3F8
C300
C300
6300
73F0
3FF0
0F00
0300
0300
0300
03F8
03F8
ENDCHAR
STARTCHAR 20A1
ENCODING 8353
SWIDTH 560 0
DWIDTH 14 0
BBX 11 21 2 -1
BITMAP
0120
0220
07C0
1FE0
3E60
76C0
6C80
6C80
CD80
C900
D900
DB00
DA00
D200
F600
7400
7400
3C20
7FE0
4FC0
5800
ENDCHAR
STARTCHAR 20A2
ENCODING 8354
SWIDTH 560 0
DWIDTH 14 0
BBX 12 18 1 0
BITMAP
03E0
0FF0
1C10
3800
7000
6000
6370
6370
C380
C300
E300
6300
6300
7300
3300
3F10
1FF0
07E0
ENDCHAR
STARTCHAR 20A3
ENCODING 8355
SWIDTH 480 0
DWIDTH 12 0
BBX 11 18 0 0
BITMAP
3FE0
3FE0
3000
3000
3000
3000
3000
3000
3FC0
3FC0
3000
3000
FE00
FE00
3000
3000
3000
3000
ENDCHAR
STARTCHAR 20A4
ENCODING 8356
SWIDTH 560 0
DWIDTH 14 0
BBX 11 18 1 0
BITMAP
0780
0FC0
1C40
1800
1800
1800
FF00
FF00
1800
1800
FF00
FF00
1800
1800
3000
6000
FFE0
FFE0
ENDCHAR
STARTCHAR 20A5
ENCODING 8357
SWIDTH 880 0
DWIDTH 22 0
BBX 18 19 2 -3
BITMAP
000600
000C00
000C00
CF1F00
DFBF80
F1B1C0
E0F0C0
C0E0C0
C0E0C0
C0C0C0
C0C0C0
C1C0C0
C1C0C0
C3C0C0
C2C0C0
C6C0C0
0C0000
0C0000
180000
ENDCHAR
STARTCHAR 20A6
ENCODING 8358
SWIDTH 640 0
DWIDTH 16 0
BBX 16 18 0 0
BITMAP
380C
380C
3C0C
3E0C
360C
330C
FFFF
FFFF
318C
30CC
FFFF
FFFF
306C
306C
303C
303C
301C
301C
ENDCHAR
STARTCHAR 20A7
ENCODING 8359
SWIDTH 1120 0
DWIDTH 28 0
BBX 25 18 2 0
BITMAP
FC000000
FF000000
C3000000
C1840000
C18C0000
C18C0000
C18C0000
C3FF8E00
C77F9F00
FE0C3100
FC0C3000
C00C3C00
C00C1F00
C00C0780
C00C0180
C00C2180
C00FBF00
C0079E00
ENDCHAR
STARTCHAR 20A8
ENCODING 8360
SWIDTH 880 0
DWIDTH 22 0
BBX 19 18 2 0
BITMAP
FE0000
FF8000
C1C000
C0C000
C0C000
C0C000
C1C000
C387C0
FF0FE0
FC1820
C61800
C31F80
C387C0
C180E0
C18060
C0D060
C0DFC0
C06F80
ENDCHAR
STARTCHAR 20A9
ENCODING 8361
SWIDTH 760 0
DWIDTH 19 0
BBX 18 18 0 0
BITMAP
60C180
60C180
30C100
30E300
31E300
312200
FFFFC0
FFFFC0
192600
1A1C00
FFFFC0
FFFFC0
1A1C00
1A1C00
0E1C00
0C1800
0C1800
0C1800
ENDCHAR
STARTCHAR 20AA
ENCODING 8362
SWIDTH 560 0
DWIDTH 14 0
BBX 12 13 1 0
BITMAP
FF30
FFB0
C1B0
C1B0
D9B0
D9B0
D9B0
D9B0
D9B0
D830
D830
DFF0
DFE0
ENDCHAR
STARTCHAR 20AB
ENCODING 8363
SWIDTH 600 0
DWIDTH 15 0
BBX 14 23 1 -4
BITMAP
0030
0030
03FC
03FC
0030
0030
1F30
3FB0
70F0
6070
C030
C030
C030
C030
C030
E070
70F0
3FB0
1F30
0000
0000
7FE0
7FE0
ENDCHAR
STARTCHAR 20AC
ENCODING 8364
SWIDTH 560 0
DWIDTH 14 0
BBX 11 18 2 0
BITMAP
07C0
0FE0
1C20
3000
7000
6000
FFC0
FFC0
6000
6000
FFC0
FFC0
6000
6000
3000
3820
1FE0
07C0
ENDCHAR
STARTCHAR 20AD
ENCODING 8365
SWIDTH 520 0
DWIDTH 13 0
BBX 13 18 0 0
BITMAP
3018
3030
3060
30E0
31C0
3180
3300
3600
FFF0
FFF0
3600
3700
3380
31C0
30C0
30E0
3070
3038
ENDCHAR
STARTCHAR 20AE
ENCODING 8366
SWIDTH 440 0
DWIDTH 11 0
BBX 10 18 1 0
BITMAP
FFC0
FFC0
0C00
0C00
0C80
0F80
0F00
3C00
7C80
4F80
0F00
3C00
7C00
4C00
0C00
0C00
0C00
0C00
ENDCHAR
STARTCHAR 20AF
ENCODING 8367
SWIDTH 1160 0
DWIDTH 29 0
BBX 28 25 1 -4
BITMAP
00030000
00060000
001C0000
00FE0000
07338000
0C30C000
10606000
00607000
00E03000
00C03000
00C03000
00C03000
01C03000
018033C0
01806660
01806430
7300EC30
8F00CC30
86019C30
8F871E60
78FC1BC0
00003000
00003000
00003000
00006000
ENDCHAR
STARTCHAR 20B0
ENCODING 8368
SWIDTH 480 0
DWIDTH 12 0
BBX 10 24 1 -5
BITMAP
0E00
1900
1900
1900
1900
1900
0A00
0E00
0E00
0600
0600
0700
0700
2580
3980
7980
78C0
50C0
90C0
10C0
00C0
0180
0380
0600
ENDCHAR
STARTCHAR 20B1
ENCODING 8369
SWIDTH 600 0
DWIDTH 15 0
BBX 14 18 0 0
BITMAP
3FC0
3FF0
3070
FFFC
FFFC
3018
3018
FFFC
FFFC
3070
3FE0
3F80
3000
3000
3000
3000
3000
3000
ENDCHAR
STARTCHAR 2103
ENCODING 8451
SWIDTH 960 0
DWIDTH 24 0
BBX 22 18 1 0
BITMAP
7803F0
CC0FFC
841E0C
843800
CC7000
786000
00C000
00C000
00C000
00C000
00C000
00C000
00E000
006000
003000
003C0C
000FFC
0003F0
ENDCHAR
STARTCHAR 2109
ENCODING 8457
SWIDTH 960 0
DWIDTH 24 0
BBX 18 18 2 0
BITMAP
787FC0
CC7FC0
846000
846000
CC6000
786000
006000
006000
007F80
007F80
006000
006000
006000
006000
006000
006000
006000
006000
ENDCHAR
STARTCHAR 2113
ENCODING 8467
SWIDTH 320 0
DWIDTH 8 0
BBX 8 19 0 0
BITMAP
1E
3F
33
33
33
36
3E
3C
38
30
30
70
F0
B0
30
30
31
3F
1E
ENDCHAR
STARTCHAR 2116
ENCODING 8470
SWIDTH 1160 0
DWIDTH 29 0
BBX 26 18 2 0
BITMAP
E00C1E00
F00C7F80
F00C6180
D80CC0C0
D80CC0C0
CC0CC0C0
CE0CC0C0
C60CC0C0
C30C6180
C30C7F80
C18C1E00
C1CC0000
C0CC0000
C06C7FC0
C06C7FC0
C03C0000
C01C0000
C01C0000
ENDCHAR
STARTCHAR 2121
ENCODING 8481
SWIDTH 960 0
DWIDTH 24 0
BBX 23 18 1 0
BITMAP
FFC000
FFC000
0C0000
0C0000
0C0000
0C7E60
0C7E60
0C6060
0C6060
0C6060
0C7C60
0C7C60
0C6060
0C6060
0C6060
0C6060
0C7E7E
0C7E7E
ENDCHAR
STARTCHAR 2122
ENCODING 8482
SWIDTH 800 0
DWIDTH 20 0
BBX 16 8 1 10
BITMAP
FEC1
10C3
10E3
10A5
10B5
1095
109D
1089
ENDCHAR
STARTCHAR 2126
ENCODING 8486
SWIDTH 760 0
DWIDTH 19 0
BBX 17 18 1 0
BITMAP
07F000
1FFC00
3C1E00
700700
600300
E00380
C00180
C00180
C00180
C00180
C00180
600300
600300
700700
300600
180C00
FC1F80
FC1F80
ENDCHAR
STARTCHAR 212B
ENCODING 8491
SWIDTH 680 0
DWIDTH 17 0
BBX 15 22 1 0
BITMAP
0380
0440
0440
0440
0380
0380
02C0
06C0
06C0
0C60
0C60
0C60
1830
1830
1830
3FF8
3FF8
3018
600C
600C
600C
C006
ENDCHAR
STARTCHAR 2153
ENCODING 8531
SWIDTH 960 0
DWIDTH 24 0
BBX 20 18 2 0
BITMAP
100300
700600
B00600
300C00
301C00
301800
303000
3031E0
306230
306030
FCC030
00C060
0181C0
038070
030030
060030
060270
0C01C0
ENDCHAR
STARTCHAR 2154
ENCODING 8532
SWIDTH 960 0
DWIDTH 24 0
BBX 21 18 1 0
BITMAP
3C0180
460300
060300
060600
060E00
0C0C00
1C1800
3818F0
703118
603018
FE6018
006030
00C0E0
01C038
018018
030018
030138
0600E0
ENDCHAR
STARTCHAR 215B
ENCODING 8539
SWIDTH 960 0
DWIDTH 24 0
BBX 19 18 2 0
BITMAP
100600
700C00
B00C00
301800
303800
303000
306000
3067C0
30CC60
30CC60
FD8C60
018EC0
030780
070EC0
060C60
0C0C60
0C0C60
1807C0
ENDCHAR
STARTCHAR 215C
ENCODING 8540
SWIDTH 1000 0
DWIDTH 25 0
BBX 20 18 2 0
BITMAP
780300
8C0600
0C0600
0C0C00
181C00
701800
1C3000
0C33E0
0C6630
9C6630
78C630
00C760
0183C0
038760
030630
060630
060630
0C03E0
ENDCHAR
STARTCHAR 215D
ENCODING 8541
SWIDTH 1000 0
DWIDTH 25 0
BBX 20 18 2 0
BITMAP
FC0300
C00600
C00600
C00C00
F81C00
1C1800
0C3000
0C33E0
0C6630
986630
70C630
00C760
0183C0
038760
030630
060630
060630
0C03E0
ENDCHAR
STARTCHAR 215E
ENCODING 8542
SWIDTH 920 0
DWIDTH 23 0
BBX 19 18 2 0
BITMAP
FE0C00
061800
0C1800
0C3000
0C7000
186000
18C000
30C7C0
318C60
318C60
630C60
030EC0
060780
0E0EC0
0C0C60
180C60
180C60
3007C0
ENDCHAR
STARTCHAR 2160
ENCODING 8544
SWIDTH 960 0
DWIDTH 24 0
BBX 10 18 7 0
BITMAP
FFC0
FFC0
0C00
0C00
0C00
0C00
0C00
0C00
0C00
0C00
0C00
0C00
0C00
0C00
0C00
0C00
FFC0
FFC0
ENDCHAR
STARTCHAR 2161
ENCODING 8545
SWIDTH 960 0
DWIDTH 24 0
BBX 17 18 3 0
BITMAP
FFFF80
FFFF80
180C00
180C00
180C00
180C00
180C00
180C00
180C00
180C00
180C00
180C00
180C00
180C00
180C00
180C00
FFFF80
FFFF80
ENDCHAR
STARTCHAR 2162
ENCODING 8546
SWIDTH 960 0
DWIDTH 24 0
BBX 20 18 2 0
BITMAP
FFFFF0
FFFFF0
3060C0
3060C0
3060C0
3060C0
3060C0
3060C0
3060C0
3060C0
3060C0
3060C0
3060C0
3060C0
3060C0
3060C0
FFFFF0
FFFFF0
ENDCHAR
STARTCHAR 2163
ENCODING 8547
SWIDTH 960 0
DWIDTH 24 0
BBX 22 18 1 0
BITMAP
FD800C
FCC00C
30C018
30C018
306018
306030
303030
303030
303060
301860
301860
3018C0
300CC0
300CC0
300780
300780
FC0780
FC0300
ENDCHAR
STARTCHAR 2164
ENCODING 8548
SWIDTH 960 0
DWIDTH 24 0
BBX 16 18 4 0
BITMAP
C003
C003
6006
6006
300C
300C
300C
1818
1818
0C30
0C30
0C30
0660
0660
0340
03C0
03C0
0180
ENDCHAR
STARTCHAR 2165
ENCODING 8549
SWIDTH 960 0
DWIDTH 24 0
BBX 22 18 1 0
BITMAP
C006FC
6006FC
600C30
600C30
300C30
301830
181830
181830
183030
0C3030
0C3030
0C6030
066030
066030
03C030
03C030
03C0FC
0180FC
ENDCHAR
STARTCHAR 2166
ENCODING 8550
SWIDTH 960 0
DWIDTH 24 0
BBX 21 18 1 0
BITMAP
C06FF8
C06FF8
60C630
60C630
60C630
20C630
30C630
308630
318630
118630
198630
190630
190630
0B0630
0F0630
0F0630
060FF8
060FF8
ENDCHAR
STARTCHAR 2167
ENCODING 8551
SWIDTH 960 0
DWIDTH 24 0
BBX 23 18 0 0
BITMAP
C0DFFE
C0DFFE
418CCC
618CCC
618CCC
618CCC
618CCC
230CCC
330CCC
330CCC
330CCC
120CCC
160CCC
1E0CCC
1E0CCC
1E0CCC
0C1FFE
0C1FFE
ENDCHAR
STARTCHAR 2168
ENCODING 8552
SWIDTH 960 0
DWIDTH 24 0
BBX 21 18 1 0
BITMAP
FD8018
FCC030
306060
306060
3030C0
301180
301B80
300F00
300600
300E00
300F00
301980
301880
3030C0
306060
306060
FCC030
FD8018
ENDCHAR
STARTCHAR 2169
ENCODING 8553
SWIDTH 960 0
DWIDTH 24 0
BBX 14 18 5 0
BITMAP
C00C
6018
6030
3030
1860
08C0
0CC0
0780
0300
0700
0780
0CC0
1C40
1860
3030
6010
6018
C00C
ENDCHAR
STARTCHAR 2170
ENCODING 8560
SWIDTH 960 0
DWIDTH 24 0
BBX 3 19 11 0
BITMAP
E0
E0
E0
00
00
00
C0
C0
C0
C0
C0
C0
C0
C0
C0
C0
C0
C0
C0
ENDCHAR
STARTCHAR 2171
ENCODING 8561
SWIDTH 960 0
DWIDTH 24 0
BBX 12 19 6 0
BITMAP
E070
E070
E070
0000
0000
0000
C060
C060
C060
C060
C060
C060
C060
C060
C060
C060
C060
C060
C060
ENDCHAR
STARTCHAR 2172
ENCODING 8562
SWIDTH 960 0
DWIDTH 24 0
BBX 17 19 4 0
BITMAP
E1C380
E1C380
E1C380
000000
000000
000000
C18300
C18300
C18300
C18300
C18300
C18300
C18300
C18300
C18300
C18300
C18300
C18300
C18300
ENDCHAR
STARTCHAR 2173
ENCODING 8563
SWIDTH 960 0
DWIDTH 24 0
BBX 17 19 4 0
BITMAP
E00000
E00000
E00000
000000
000000
000000
CC0180
C60300
C60300
C30300
C30600
C18600
C18600
C18C00
C0CC00
C0C800
C07800
C07800
C03000
ENDCHAR
STARTCHAR 2174
ENCODING 8564
SWIDTH 960 0
DWIDTH 24 0
BBX 14 13 5 0
BITMAP
C00C
C00C
6018
6018
3030
3030
1860
1860
0CC0
0CC0
0780
0780
0300
ENDCHAR
STARTCHAR 2175
ENCODING 8565
SWIDTH 960 0
DWIDTH 24 0
BBX 17 19 3 0
BITMAP
000380
000380
000380
000000
000000
000000
C01980
603180
603180
606180
306180
304180
10C180
18C180
198180
0D8180
0F0180
0F0180
060180
ENDCHAR
STARTCHAR 2176
ENCODING 8566
SWIDTH 960 0
DWIDTH 24 0
BBX 21 19 1 0
BITMAP
000E38
000E38
000E38
000000
000000
000000
C0CC18
C0CC18
618C18
618C18
618C18
330C18
330C18
330C18
120C18
1E0C18
1E0C18
0C0C18
0C0C18
ENDCHAR
STARTCHAR 2177
ENCODING 8567
SWIDTH 960 0
DWIDTH 24 0
BBX 23 19 0 0
BITMAP
001DCE
001DCE
001DCE
000000
000000
000000
C0D8CC
C0D8CC
6198CC
6198CC
6198CC
3318CC
3318CC
3318CC
1218CC
1E18CC
1E18CC
0C18CC
0C18CC
ENDCHAR
STARTCHAR 2178
ENCODING 8568
SWIDTH 960 0
DWIDTH 24 0
BBX 17 19 4 0
BITMAP
E00000
E00000
E00000
000000
000000
000000
C60180
C30300
C18600
C08C00
C0CC00
C07800
C03000
C07800
C06C00
C0C400
C18600
C30300
C60180
ENDCHAR
STARTCHAR 2179
ENCODING 8569
SWIDTH 960 0
DWIDTH 24 0
BBX 12 13 6 0
BITMAP
C030
6060
30C0
1180
1980
0F00
0600
0F00
1D80
1880
30C0
6060
C030
ENDCHAR
STARTCHAR 2190
ENCODING 8592
SWIDTH 960 0
DWIDTH 24 0
BBX 20 9 2 3
BITMAP
040000
0C0000
180000
300000
FFFFF0
300000
180000
0C0000
040000
ENDCHAR
STARTCHAR 2191
ENCODING 8593
SWIDTH 960 0
DWIDTH 24 0
BBX 9 20 7 -2
BITMAP
0800
0800
1C00
3C00
6B00
C980
0800
0800
0800
0800
0800
0800
0800
0800
0800
0800
0800
0800
0800
0800
ENDCHAR
STARTCHAR 2192
ENCODING 8594
SWIDTH 960 0
DWIDTH 24 0
BBX 20 9 2 3
BITMAP
000200
000300
000180
0000C0
FFFFF0
0000C0
000180
000300
000200
ENDCHAR
STARTCHAR 2193
ENCODING 8595
SWIDTH 960 0
DWIDTH 24 0
BBX 9 20 7 -2
BITMAP
0800
0800
0800
0800
0800
0800
0800
0800
0800
0800
0800
0800
0800
0800
C980
6B00
3E00
1C00
0800
0800
ENDCHAR
STARTCHAR 2194
ENCODING 8596
SWIDTH 960 0
DWIDTH 24 0
BBX 20 9 2 3
BITMAP
040200
0C0300
180180
3000C0
FFFFF0
3000C0
180180
0C0300
040200
ENDCHAR
STARTCHAR 2195
ENCODING 8597
SWIDTH 960 0
DWIDTH 24 0
BBX 9 20 7 -2
BITMAP
0800
0800
1C00
3C00
6B00
C980
0800
0800
0800
0800
0800
0800
0800
0800
C980
6B00
3E00
1C00
0800
0800
ENDCHAR
STARTCHAR 2196
ENCODING 8598
SWIDTH 960 0
DWIDTH 24 0
BBX 16 15 4 0
BITMAP
C000
FE00
7000
7800
4C00
4600
4300
0180
00C0
0060
0030
0018
000C
0006
0003
ENDCHAR
STARTCHAR 2197
ENCODING 8599
SWIDTH 960 0
DWIDTH 24 0
BBX 16 15 4 0
BITMAP
0003
00FE
001C
0034
0064
00C4
0182
0300
0600
0C00
1800
3000
6000
E000
8000
ENDCHAR
STARTCHAR 2198
ENCODING 8600
SWIDTH 960 0
DWIDTH 24 0
BBX 16 16 4 0
BITMAP
4000
E000
7000
1800
0C00
0600
0300
0180
00C2
0064
0034
001C
000C
00FE
0006
0001
ENDCHAR
STARTCHAR 2199
ENCODING 8601
SWIDTH 960 0
DWIDTH 24 0
BBX 15 16 4 0
BITMAP
0004
000E
001C
0038
0060
00C0
0180
0300
4600
4C00
5800
7000
6000
7E00
C000
8000
ENDCHAR
STARTCHAR 21D2
ENCODING 8658
SWIDTH 960 0
DWIDTH 24 0
BBX 21 10 2 3
BITMAP
000400
000200
FFFF00
000080
000060
000038
0000C0
FFFF00
000600
000400
ENDCHAR
STARTCHAR 21D4
ENCODING 8660
SWIDTH 960 0
DWIDTH 24 0
BBX 22 10 1 3
BITMAP
020100
060180
07FF80
080040
300030
E0001C
380070
0FFFC0
060180
020100
ENDCHAR
STARTCHAR 2200
ENCODING 8704
SWIDTH 680 0
DWIDTH 17 0
BBX 15 18 1 0
BITMAP
C006
E00C
600C
600C
7018
3FF8
3FF0
3030
1830
1860
1860
0C60
0CC0
0CC0
0680
0780
0780
0300
ENDCHAR
STARTCHAR 2202
ENCODING 8706
SWIDTH 560 0
DWIDTH 14 0
BBX 12 19 1 0
BITMAP
07C0
0FE0
0860
0070
0030
0FB0
1FF0
38F0
7070
6030
E030
C070
C060
C060
C0E0
C0C0
6180
7F80
3E00
ENDCHAR
STARTCHAR 2203
ENCODING 8707
SWIDTH 560 0
DWIDTH 14 0
BBX 10 18 2 0
BITMAP
FFC0
FFC0
00C0
00C0
00C0
00C0
00C0
00C0
7FC0
7FC0
00C0
00C0
00C0
00C0
00C0
00C0
FFC0
FFC0
ENDCHAR
STARTCHAR 2207
ENCODING 8711
SWIDTH 720 0
DWIDTH 18 0
BBX 16 18 1 0
BITMAP
FFFF
FFFF
4002
6006
6006
300C
300C
1008
1818
0818
0C30
0C30
0660
0660
0240
03C0
03C0
0180
ENDCHAR
STARTCHAR 2208
ENCODING 8712
SWIDTH 960 0
DWIDTH 24 0
BBX 18 15 3 0
BITMAP
07FFC0
180000
200000
400000
C00000
800000
800000
FFFFC0
800000
800000
800000
400000
200000
180000
07FFC0
ENDCHAR
STARTCHAR 220B
ENCODING 8715
SWIDTH 960 0
DWIDTH 24 0
BBX 17 15 3 0
BITMAP
FFF000
000C00
000200
000100
000180
000080
000080
FFFF80
000080
000080
000180
000100
000200
000C00
FFF000
ENDCHAR
STARTCHAR 220F
ENCODING 8719
SWIDTH 760 0
DWIDTH 19 0
BBX 15 24 2 -6
BITMAP
FFFE
FFFE
C006
C006
C006
C006
C006
C006
C006
C006
C006
C006
C006
C006
C006
C006
C006
C006
C006
C006
C006
C006
C006
C006
ENDCHAR
STARTCHAR 2211
ENCODING 8721
SWIDTH 640 0
DWIDTH 16 0
BBX 15 24 1 -6
BITMAP
FFFC
FFFC
6000
3000
1800
0C00
0E00
0600
0300
0180
00C0
0060
00C0
00C0
0180
0300
0600
0E00
0C00
1800
3000
6000
FFFE
FFFE
ENDCHAR
STARTCHAR 2219
ENCODING 8729
SWIDTH 320 0
DWIDTH 8 0
BBX 3 3 2 5
BITMAP
E0
E0
E0
ENDCHAR
STARTCHAR 221A
ENCODING 8730
SWIDTH 680 0
DWIDTH 17 0
BBX 12 19 2 0
BITMAP
0010
0010
0020
0020
0020
0060
0040
0040
E040
30C0
1080
1080
1880
0900
0D00
0500
0700
0600
0200
ENDCHAR
STARTCHAR 221D
ENCODING 8733
SWIDTH 840 0
DWIDTH 21 0
BBX 16 9 2 3
BITMAP
1E07
6118
E0B0
C060
C060
C060
C0B0
6118
3E07
ENDCHAR
STARTCHAR 221E
ENCODING 8734
SWIDTH 840 0
DWIDTH 21 0
BBX 19 10 1 2
BITMAP
1E0F00
7F1FC0
61B8C0
C0E060
C06060
C0C060
C0E060
E3B0C0
7F1FC0
3E0F00
ENDCHAR
STARTCHAR 2220
ENCODING 8736
SWIDTH 680 0
DWIDTH 17 0
BBX 14 13 1 0
BITMAP
000C
0018
0030
0060
00C0
0180
0300
0600
0C00
1800
3000
6000
FFFC
ENDCHAR
STARTCHAR 2225
ENCODING 8741
SWIDTH 680 0
DWIDTH 17 0
BBX 6 15 5 0
BITMAP
84
84
84
84
84
84
84
84
84
84
84
84
84
84
84
ENDCHAR
STARTCHAR 2227
ENCODING 8743
SWIDTH 680 0
DWIDTH 17 0
BBX 11 11 3 2
BITMAP
0400
0E00
0A00
1B00
1B00
3180
3180
60C0
60C0
C060
C060
ENDCHAR
STARTCHAR 2228
ENCODING 8744
SWIDTH 680 0
DWIDTH 17 0
BBX 11 11 3 2
BITMAP
C060
C060
60C0
60C0
3180
3180
1B00
1B00
0A00
0E00
0400
ENDCHAR
STARTCHAR 2229
ENCODING 8745
SWIDTH 960 0
DWIDTH 24 0
BBX 15 16 4 0
BITMAP
0FE0
3018
6008
4004
8004
8002
8002
8002
8002
8002
8002
8002
8002
8002
8002
8002
ENDCHAR
STARTCHAR 222A
ENCODING 8746
SWIDTH 960 0
DWIDTH 24 0
BBX 14 16 5 0
BITMAP
8004
8004
8004
8004
8004
8004
8004
8004
8004
8004
8004
8004
4008
6018
3030
0FC0
ENDCHAR
STARTCHAR 222B
ENCODING 8747
SWIDTH 560 0
DWIDTH 14 0
BBX 10 25 2 -6
BITMAP
03C0
07C0
0E00
0C00
0C00
0C00
0C00
0C00
0C00
0C00
0C00
0C00
0C00
0C00
0C00
0C00
0C00
0C00
0C00
0C00
0C00
0C00
1C00
F800
F000
ENDCHAR
STARTCHAR 222C
ENCODING 8748
SWIDTH 960 0
DWIDTH 24 0
BBX 19 25 2 -6
BITMAP
03C1E0
07C3E0
0E0700
0C0600
0C0600
0C0600
0C0600
0C0600
0C0600
0C0600
0C0600
0C0600
0C0600
0C0600
0C0600
0C0600
0C0600
0C0600
0C0600
0C0600
0C0600
0C0600
1C0E00
F87C00
703800
ENDCHAR
STARTCHAR 222E
ENCODING 8750
SWIDTH 560 0
DWIDTH 14 0
BBX 12 26 1 -6
BITMAP
01E0
03E0
0700
0600
0600
0600
0600
1F00
36C0
4620
C620
8610
8610
8610
8610
4620
4620
36C0
1F80
0600
0600
0600
0600
0E00
7C00
7800
ENDCHAR
STARTCHAR 2234
ENCODING 8756
SWIDTH 680 0
DWIDTH 17 0
BBX 14 11 1 2
BITMAP
0300
0300
0000
0000
0000
0000
0000
0000
0000
C00C
C00C
ENDCHAR
STARTCHAR 2235
ENCODING 8757
SWIDTH 680 0
DWIDTH 17 0
BBX 14 11 1 3
BITMAP
C00C
C00C
0000
0000
0000
0000
0000
0000
0000
0300
0300
ENDCHAR
STARTCHAR 223C
ENCODING 8764
SWIDTH 680 0
DWIDTH 17 0
BBX 11 3 3 6
BITMAP
7820
CE60
83C0
ENDCHAR
STARTCHAR 223D
ENCODING 8765
SWIDTH 680 0
DWIDTH 17 0
BBX 11 3 3 6
BITMAP
83C0
CE60
7820
ENDCHAR
STARTCHAR 2252
ENCODING 8786
SWIDTH 680 0
DWIDTH 17 0
BBX 11 12 3 0
BITMAP
C000
C000
0000
FFE0
0000
0000
0000
0000
FFE0
0000
0060
0060
ENDCHAR
STARTCHAR 2260
ENCODING 8800
SWIDTH 720 0
DWIDTH 18 0
BBX 12 15 3 0
BITMAP
0060
00C0
00C0
0180
FFF0
FFF0
0300
0600
0C00
FFF0
FFF0
1800
3000
3000
6000
ENDCHAR
STARTCHAR 2261
ENCODING 8801
SWIDTH 680 0
DWIDTH 17 0
BBX 11 7 3 3
BITMAP
FFE0
0000
0000
FFE0
0000
0000
FFE0
ENDCHAR
STARTCHAR 2264
ENCODING 8804
SWIDTH 720 0
DWIDTH 18 0
BBX 12 15 2 0
BITMAP
0020
00E0
01C0
0700
1E00
7800
7800
1E00
0700
01C0
00E0
0020
0000
FFF0
FFF0
ENDCHAR
STARTCHAR 2265
ENCODING 8805
SWIDTH 720 0
DWIDTH 18 0
BBX 12 15 4 0
BITMAP
4000
7000
3800
0E00
0780
01E0
01E0
0780
0E00
3800
7000
4000
0000
FFF0
FFF0
ENDCHAR
STARTCHAR 226A
ENCODING 8810
SWIDTH 960 0
DWIDTH 24 0
BBX 18 12 3 1
BITMAP
004040
01C1C0
070700
1C1C00
707000
C0C000
707000
383800
0E0E00
038380
01C1C0
004040
ENDCHAR
STARTCHAR 226B
ENCODING 8811
SWIDTH 960 0
DWIDTH 24 0
BBX 18 12 3 1
BITMAP
808000
E0E000
707000
1C1C00
070700
038380
00C0C0
038380
0E0E00
383800
E0E000
808000
ENDCHAR
STARTCHAR 2282
ENCODING 8834
SWIDTH 960 0
DWIDTH 24 0
BBX 18 15 3 0
BITMAP
07FFC0
180000
200000
400000
C00000
800000
800000
800000
800000
800000
800000
400000
200000
180000
07FFC0
ENDCHAR
STARTCHAR 2283
ENCODING 8835
SWIDTH 960 0
DWIDTH 24 0
BBX 17 15 3 0
BITMAP
FFF000
000C00
000200
000100
000100
000080
000080
000080
000080
000080
000180
000100
000200
000C00
FFF000
ENDCHAR
STARTCHAR 2286
ENCODING 8838
SWIDTH 960 0
DWIDTH 24 0
BBX 18 15 3 0
BITMAP
1FFFC0
200000
400000
800000
800000
800000
800000
800000
400000
200000
1FFFC0
000000
000000
000000
FFFFC0
ENDCHAR
STARTCHAR 2287
ENCODING 8839
SWIDTH 960 0
DWIDTH 24 0
BBX 17 15 3 0
BITMAP
FFFC00
000300
000100
000080
000080
000080
000080
000080
000100
000200
FFFC00
000000
000000
000000
FFFF80
ENDCHAR
STARTCHAR 2299
ENCODING 8857
SWIDTH 960 0
DWIDTH 24 0
BBX 16 15 4 -1
BITMAP
07E0
1818
300C
6006
4002
8001
8181
8181
8181
8001
4002
4006
300C
1818
07E0
ENDCHAR
STARTCHAR 22A5
ENCODING 8869
SWIDTH 960 0
DWIDTH 24 0
BBX 17 15 3 0
BITMAP
008000
008000
008000
008000
008000
008000
008000
008000
008000
008000
008000
008000
008000
008000
FFFF80
ENDCHAR
STARTCHAR 2312
ENCODING 8978
SWIDTH 960 0
DWIDTH 24 0
BBX 16 8 4 0
BITMAP
07E0
1818
300C
6006
4002
8001
8001
8001
ENDCHAR
STARTCHAR 2460
ENCODING 9312
SWIDTH 1000 0
DWIDTH 25 0
BBX 22 22 2 -4
BITMAP
00FC00
070380
0C00C0
100020
203010
61F018
413008
C03008
803004
803004
803004
803004
803004
803004
C03008
403008
61FE18
200010
100020
0C00C0
070380
01FC00
ENDCHAR
STARTCHAR 2461
ENCODING 9313
SWIDTH 1000 0
DWIDTH 25 0
BBX 22 22 2 -4
BITMAP
00FC00
070380
0C00C0
100020
20F810
610C18
400608
C00608
800604
800C04
801C04
801804
803004
806004
C0C008
438008
63FE18
200010
100020
0C00C0
070380
01FC00
ENDCHAR
STARTCHAR 2462
ENCODING 9314
SWIDTH 1000 0
DWIDTH 25 0
BBX 22 22 2 -4
BITMAP
00FC00
070380
0C00C0
100020
20F810
610C18
400608
C00608
800604
800C04
80F004
800E04
800304
800304
C00308
410608
60FC18
200010
100020
0C00C0
070380
01FC00
ENDCHAR
STARTCHAR 2463
ENCODING 9315
SWIDTH 1000 0
DWIDTH 25 0
BBX 22 22 2 -4
BITMAP
00FC00
070380
0C00C0
100020
201810
603818
407808
C05808
80D804
819804
811804
831804
861804
87FE04
C01808
401808
601818
200010
100020
0C00C0
070380
01FC00
ENDCHAR
STARTCHAR 2464
ENCODING 9316
SWIDTH 1000 0
DWIDTH 25 0
BBX 22 22 2 -4
BITMAP
00FC00
070380
0C00C0
100020
21FC10
618018
418008
C18008
818004
81F804
800C04
800604
800604
800604
C00608
410C08
60F818
200010
100020
0C00C0
070380
01FC00
ENDCHAR
STARTCHAR 2465
ENCODING 9317
SWIDTH 1000 0
DWIDTH 25 0
BBX 22 22 2 -4
BITMAP
00FC00
070380
0C00C0
100020
207C10
60C018
418008
C18008
830004
837804
838C04
830604
830604
830604
C10608
418C08
60F818
200010
100020
0C00C0
070380
01FC00
ENDCHAR
STARTCHAR 2466
ENCODING 9318
SWIDTH 1000 0
DWIDTH 25 0
BBX 22 22 2 -4
BITMAP
00FC00
070380
0C00C0
100020
23FE10
600618
400C08
C00C08
800804
801804
801804
803004
803004
806004
C06008
406008
60C018
200010
100020
0C00C0
070380
01FC00
ENDCHAR
STARTCHAR 2467
ENCODING 9319
SWIDTH 1000 0
DWIDTH 25 0
BBX 22 22 2 -4
BITMAP
00FC00
070380
0C00C0
100020
203C10
606718
40C308
C0C308
80E704
807E04
807C04
80CE04
818304
818304
C18308
40C608
607C18
200010
100020
0C00C0
070380
01FC00
ENDCHAR
STARTCHAR 2468
ENCODING 9320
SWIDTH 1000 0
DWIDTH 25 0
BBX 22 22 2 -4
BITMAP
00FC00
070380
0C00C0
100020
207C10
60C618
418208
C18308
818304
818304
80C704
807B04
800304
800204
C00608
408C08
607818
200010
100020
0C00C0
070380
01FC00
ENDCHAR
STARTCHAR 2469
ENCODING 9321
SWIDTH 1000 0
DWIDTH 25 0
BBX 22 22 2 -4
BITMAP
00FC00
070380
0C00C0
100020
210F10
6F1998
4B1888
C330C8
8330C4
8330C4
8330C4
8330C4
8330C4
8330C4
C31088
431988
6FCF18
200010
100020
0C00C0
070380
01FC00
ENDCHAR
STARTCHAR 246A
ENCODING 9322
SWIDTH 1000 0
DWIDTH 25 0
BBX 22 22 2 -4
BITMAP
00FC00
070380
0C00C0
100020
210210
6F1E18
4B1608
C30608
830604
830604
830604
830604
830604
830604
C30608
430608
6FDF98
200010
100020
0C00C0
070380
01FC00
ENDCHAR
STARTCHAR 246B
ENCODING 9323
SWIDTH 1000 0
DWIDTH 25 0
BBX 22 22 2 -4
BITMAP
00FC00
070380
0C00C0
100020
210F10
6F1198
4B00C8
C300C8
8300C4
8301C4
830184
830304
830604
830C04
C31808
433008
6FFFD8
200010
100020
0C00C0
070380
01FC00
ENDCHAR
STARTCHAR 246C
ENCODING 9324
SWIDTH 1000 0
DWIDTH 25 0
BBX 22 22 2 -4
BITMAP
00FC00
070380
0C00C0
100020
211E10
6F2318
4B0188
C30188
830184
830304
831E04
830304
830184
830184
C30188
432308
6FDE18
200010
100020
0C00C0
070380
01FC00
ENDCHAR
STARTCHAR 246D
ENCODING 9325
SWIDTH 1000 0
DWIDTH 25 0
BBX 22 22 2 -4
BITMAP
00FC00
070380
0C00C0
100020
210610
6F0E18
4B0E08
C31E08
831604
832604
836604
834604
83C604
83FF84
C30608
430608
6FC618
200010
100020
0C00C0
070380
01FC00
ENDCHAR
STARTCHAR 246E
ENCODING 9326
SWIDTH 1000 0
DWIDTH 25 0
BBX 22 22 2 -4
BITMAP
00FC00
070380
0C00C0
100020
213F10
6F3018
4B3008
C33008
833004
833E04
830304
830184
830184
830184
C30188
432308
6FDE18
200010
100020
0C00C0
070380
01FC00
ENDCHAR
STARTCHAR 2474
ENCODING 9332
SWIDTH 1000 0
DWIDTH 25 0
BBX 21 21 2 -4
BITMAP
080080
100040
200020
203020
41F010
413010
803010
803008
803008
803008
803008
803008
803008
803008
803010
41FE10
400010
200020
200020
100040
080080
ENDCHAR
STARTCHAR 2475
ENCODING 9333
SWIDTH 1000 0
DWIDTH 25 0
BBX 21 21 2 -4
BITMAP
080080
100040
200020
20F820
410C10
400610
800610
800608
800C08
801C08
801808
803008
806008
80C008
838010
43FE10
400010
200020
200020
100040
080080
ENDCHAR
STARTCHAR 2476
ENCODING 9334
SWIDTH 1000 0
DWIDTH 25 0
BBX 21 21 2 -4
BITMAP
080080
100040
200020
21F020
421810
400C10
800C10
800C08
801808
81E008
801C08
800608
800608
800608
820C10
41F810
400010
200020
200020
100040
080080
ENDCHAR
STARTCHAR 2477
ENCODING 9335
SWIDTH 1000 0
DWIDTH 25 0
BBX 21 21 2 -4
BITMAP
080080
100040
200020
201820
403810
407810
805810
80D808
819808
811808
831808
861808
87FE08
801808
801810
401810
400010
200020
200020
100040
080080
ENDCHAR
STARTCHAR 2478
ENCODING 9336
SWIDTH 1000 0
DWIDTH 25 0
BBX 21 21 2 -4
BITMAP
080080
100040
200020
21FC20
418010
418010
818010
818008
81F808
800C08
800608
800608
800608
800608
810C10
40F810
400010
200020
200020
100040
080080
ENDCHAR
STARTCHAR 2479
ENCODING 9337
SWIDTH 1000 0
DWIDTH 25 0
BBX 21 21 2 -4
BITMAP
080080
100040
200020
207C20
40C010
418010
818010
830008
837808
838C08
830608
830608
830608
810608
818C10
40F810
400010
200020
200020
100040
080080
ENDCHAR
STARTCHAR 247A
ENCODING 9338
SWIDTH 1000 0
DWIDTH 25 0
BBX 21 21 2 -4
BITMAP
080080
100040
200020
23FE20
400610
400C10
800C10
800808
801808
801808
803008
803008
806008
806008
806010
40C010
400010
200020
200020
100040
080080
ENDCHAR
STARTCHAR 247B
ENCODING 9339
SWIDTH 1000 0
DWIDTH 25 0
BBX 21 21 2 -4
BITMAP
080080
100040
200020
207820
40CE10
418610
818610
81CE08
80FC08
80F808
819C08
830608
830608
830608
818C10
40F810
400010
200020
200020
100040
080080
ENDCHAR
STARTCHAR 247C
ENCODING 9340
SWIDTH 1000 0
DWIDTH 25 0
BBX 21 21 2 -4
BITMAP
080080
100040
200020
20F820
418C10
430410
830610
830608
830608
818E08
80F608
800608
800408
800C08
811810
40F010
400010
200020
200020
100040
080080
ENDCHAR
STARTCHAR 247D
ENCODING 9341
SWIDTH 1000 0
DWIDTH 25 0
BBX 21 21 2 -4
BITMAP
080080
100040
200020
210F20
4F1990
4B1890
8330D0
8330C8
8330C8
8330C8
8330C8
8330C8
8330C8
831088
831990
4FCF10
400010
200020
200020
100040
080080
ENDCHAR
STARTCHAR 247E
ENCODING 9342
SWIDTH 1000 0
DWIDTH 25 0
BBX 21 21 2 -4
BITMAP
080080
100040
200020
210120
4F0F10
4B0B10
830310
830308
830308
830308
830308
830308
830308
830308
830310
4FCFD0
400010
200020
200020
100040
080080
ENDCHAR
STARTCHAR 247F
ENCODING 9343
SWIDTH 1000 0
DWIDTH 25 0
BBX 21 21 2 -4
BITMAP
080080
100040
200020
220F20
5E1190
5600D0
8600D0
8600C8
8601C8
860188
860308
860608
860C08
861808
863010
5FBFD0
400010
200020
200020
100040
080080
ENDCHAR
STARTCHAR 2480
ENCODING 9344
SWIDTH 1000 0
DWIDTH 25 0
BBX 21 21 2 -4
BITMAP
080080
100040
200020
221E20
5E2310
560190
860190
860188
860308
861E08
860308
860188
860188
860188
862310
5F9E10
400010
200020
200020
100040
080080
ENDCHAR
STARTCHAR 2481
ENCODING 9345
SWIDTH 1000 0
DWIDTH 25 0
BBX 21 21 2 -4
BITMAP
080080
100040
200020
220320
5E0710
560710
860F10
860B08
861308
863308
862308
866308
867FC8
860308
860310
5F8310
400010
200020
200020
100040
080080
ENDCHAR
STARTCHAR 2482
ENCODING 9346
SWIDTH 1000 0
DWIDTH 25 0
BBX 21 21 2 -4
BITMAP
080080
100040
200020
213F20
4F3010
4B3010
833010
833008
833E08
830308
830188
830188
830188
830188
832310
4FDE10
400010
200020
200020
100040
080080
ENDCHAR
STARTCHAR 249C
ENCODING 9372
SWIDTH 1000 0
DWIDTH 25 0
BBX 21 21 2 -4
BITMAP
080080
100040
200020
200020
400010
400010
80F810
81FC08
810E08
800608
807E08
81FE08
838608
830E08
83FE10
41FE10
400010
200020
200020
100040
080080
ENDCHAR
STARTCHAR 249D
ENCODING 9373
SWIDTH 1000 0
DWIDTH 25 0
BBX 21 21 2 -4
BITMAP
080080
100040
230020
230020
430010
430010
833C10
83FE08
838708
830308
830308
830308
830308
838608
83FE10
437810
400010
200020
200020
100040
080080
ENDCHAR
STARTCHAR 249E
ENCODING 9374
SWIDTH 1000 0
DWIDTH 25 0
BBX 21 21 2 -4
BITMAP
080080
100040
200020
200020
400010
400010
807810
81FC08
81C408
830008
830008
830008
830008
838408
81FC10
407810
400010
200020
200020
100040
080080
ENDCHAR
STARTCHAR 249F
ENCODING 9375
SWIDTH 1000 0
DWIDTH 25 0
BBX 21 21 2 -4
BITMAP
080080
100040
200620
200620
400610
400610
80F610
83FE08
830E08
860608
860608
860608
860608
870E08
83FE10
41E610
400010
200020
200020
100040
080080
ENDCHAR
STARTCHAR 24A0
ENCODING 9376
SWIDTH 1000 0
DWIDTH 25 0
BBX 21 21 2 -4
BITMAP
080080
100040
200020
200020
400010
400010
80F810
83FC08
830C08
860608
87FE08
87FE08
860008
870408
83FC10
40F810
400010
200020
200020
100040
080080
ENDCHAR
STARTCHAR 24A1
ENCODING 9377
SWIDTH 1000 0
DWIDTH 25 0
BBX 21 21 2 -4
BITMAP
080080
100040
203C20
207C20
406010
406010
81FC10
81FC08
806008
806008
806008
806008
806008
806008
806010
406010
400010
200020
200020
100040
080080
ENDCHAR
STARTCHAR 24A2
ENCODING 9378
SWIDTH 1000 0
DWIDTH 25 0
BBX 21 21 2 -4
BITMAP
080080
100040
200020
200020
400010
400010
80F610
83FE08
870E08
860608
860608
860608
870E08
83FE08
81F610
400610
420E10
23FC20
21F020
100040
080080
ENDCHAR
STARTCHAR 24A3
ENCODING 9379
SWIDTH 1000 0
DWIDTH 25 0
BBX 21 21 2 -4
BITMAP
080080
100040
230020
230020
430010
430010
833810
837C08
838E08
830608
830608
830608
830608
830608
830610
430610
400010
200020
200020
100040
080080
ENDCHAR
STARTCHAR 24A4
ENCODING 9380
SWIDTH 1000 0
DWIDTH 25 0
BBX 21 21 2 -4
BITMAP
080080
100040
203020
203020
400010
400010
803010
803008
803008
803008
803008
803008
803008
803008
803010
403010
400010
200020
200020
100040
080080
ENDCHAR
STARTCHAR 24A5
ENCODING 9381
SWIDTH 1000 0
DWIDTH 25 0
BBX 21 21 2 -4
BITMAP
080080
100040
203020
203020
400010
400010
803010
803008
803008
803008
803008
803008
803008
803008
803010
407010
43E010
23C020
200020
100040
080080
ENDCHAR
STARTCHAR 24A6
ENCODING 9382
SWIDTH 1000 0
DWIDTH 25 0
BBX 21 21 2 -4
BITMAP
080080
100040
20C020
20C020
40C010
40C010
80C310
80C608
80CC08
80D808
80F008
80F008
80D808
80CC08
80C610
40C310
400010
200020
200020
100040
080080
ENDCHAR
STARTCHAR 24A7
ENCODING 9383
SWIDTH 1000 0
DWIDTH 25 0
BBX 21 21 2 -4
BITMAP
080080
100040
20F020
20F020
403010
403010
803010
803008
803008
803008
803008
803008
803008
803008
80FC10
40FC10
400010
200020
200020
100040
080080
ENDCHAR
STARTCHAR 24A8
ENCODING 9384
SWIDTH 1000 0
DWIDTH 25 0
BBX 21 21 2 -4
BITMAP
080080
100040
200020
200020
400010
400010
8DC790
8FEF88
8E79C8
8C30C8
8C30C8
8C30C8
8C30C8
8C30C8
8C30D0
4C30D0
400010
200020
200020
100040
080080
ENDCHAR
STARTCHAR 24A9
ENCODING 9385
SWIDTH 1000 0
DWIDTH 25 0
BBX 21 21 2 -4
BITMAP
080080
100040
200020
200020
400010
400010
833810
83FC08
838E08
830608
830608
830608
830608
830608
830610
430610
400010
200020
200020
100040
080080
ENDCHAR
STARTCHAR 24AA
ENCODING 9386
SWIDTH 1000 0
DWIDTH 25 0
BBX 21 21 2 -4
BITMAP
080080
100040
200020
200020
400010
400010
80F810
83FE08
830608
860308
860308
860308
860308
830608
83FE10
40F810
400010
200020
200020
100040
080080
ENDCHAR
STARTCHAR 24AB
ENCODING 9387
SWIDTH 1000 0
DWIDTH 25 0
BBX 21 21 2 -4
BITMAP
080080
100040
200020
200020
400010
400010
833C10
837E08
838708
830308
830308
830308
830308
838608
83FE10
437810
430010
230020
230020
100040
080080
ENDCHAR
STARTCHAR 24AC
ENCODING 9388
SWIDTH 1000 0
DWIDTH 25 0
BBX 21 21 2 -4
BITMAP
080080
100040
200020
200020
400010
400010
80F610
83FE08
830E08
860608
860608
860608
860608
870E08
83F610
41E610
400610
200620
200620
100040
080080
ENDCHAR
STARTCHAR 24AD
ENCODING 9389
SWIDTH 1000 0
DWIDTH 25 0
BBX 21 21 2 -4
BITMAP
080080
100040
200020
200020
400010
400010
80DC10
80FC08
80E008
80C008
80C008
80C008
80C008
80C008
80C010
40C010
400010
200020
200020
100040
080080
ENDCHAR
STARTCHAR 24AE
ENCODING 9390
SWIDTH 1000 0
DWIDTH 25 0
BBX 21 21 2 -4
BITMAP
080080
100040
200020
200020
400010
400010
807C10
81FC08
818008
818008
80E008
807808
800C08
800C08
81FC10
41F010
400010
200020
200020
100040
080080
ENDCHAR
STARTCHAR 24AF
ENCODING 9391
SWIDTH 1000 0
DWIDTH 25 0
BBX 21 21 2 -4
BITMAP
080080
100040
200020
206020
406010
406010
81FC10
81FC08
806008
806008
806008
806008
806008
806008
807C10
403C10
400010
200020
200020
100040
080080
ENDCHAR
STARTCHAR 24B0
ENCODING 9392
SWIDTH 1000 0
DWIDTH 25 0
BBX 21 21 2 -4
BITMAP
080080
100040
200020
200020
400010
400010
830610
830608
830608
830608
830608
830608
830608
838E08
81FE10
40E610
400010
200020
200020
100040
080080
ENDCHAR
STARTCHAR 24B1
ENCODING 9393
SWIDTH 1000 0
DWIDTH 25 0
BBX 21 21 2 -4
BITMAP
080080
100040
200020
200020
400010
400010
830310
818608
818608
818608
80CC08
80CC08
806808
807808
807810
403010
400010
200020
200020
100040
080080
ENDCHAR
STARTCHAR 24B2
ENCODING 9394
SWIDTH 1000 0
DWIDTH 25 0
BBX 21 21 2 -4
BITMAP
080080
100040
200020
200020
400010
400010
8C20D0
8C30C8
867188
865188
865988
835908
83CF08
838F08
818E10
418610
400010
200020
200020
100040
080080
ENDCHAR
STARTCHAR 24B3
ENCODING 9395
SWIDTH 1000 0
DWIDTH 25 0
BBX 21 21 2 -4
BITMAP
080080
100040
200020
200020
400010
400010
830310
818608
80CC08
807808
803008
803008
807808
80CC08
818610
430310
400010
200020
200020
100040
080080
ENDCHAR
STARTCHAR 24B4
ENCODING 9396
SWIDTH 1000 0
DWIDTH 25 0
BBX 21 21 2 -4
BITMAP
080080
100040
200020
200020
400010
400010
830310
818608
818608
818608
80CC08
80CC08
805808
807808
803010
403010
403010
206020
21E020
11C040
080080
ENDCHAR
STARTCHAR 24B5
ENCODING 9397
SWIDTH 1000 0
DWIDTH 25 0
BBX 21 21 2 -4
BITMAP
080080
100040
200020
200020
400010
400010
83FE10
83FC08
800808
801008
802008
804008
808008
810008
83FE10
47FE10
400010
200020
200020
100040
080080
ENDCHAR
STARTCHAR 24D0
ENCODING 9424
SWIDTH 1000 0
DWIDTH 25 0
BBX 22 22 2 -4
BITMAP
00FC00
070380
0C00C0
100020
200010
600018
400008
C0F808
81FC04
810E04
800604
807E04
81FE04
838604
C30E08
43FE08
61FE18
200010
100020
0C00C0
070380
01FC00
ENDCHAR
STARTCHAR 24D1
ENCODING 9425
SWIDTH 1000 0
DWIDTH 25 0
BBX 22 22 2 -4
BITMAP
00FC00
070380
0C00C0
118020
218010
618018
418008
C19E08
81FF04
81C384
818184
818184
818184
818184
C1C308
41FF08
61BC18
200010
100020
0C00C0
070380
01FC00
ENDCHAR
STARTCHAR 24D2
ENCODING 9426
SWIDTH 1000 0
DWIDTH 25 0
BBX 22 22 2 -4
BITMAP
00FC00
070380
0C00C0
100020
200010
600018
400008
C07808
81FC04
81C404
830004
830004
830004
830004
C38408
41FC08
607818
200010
100020
0C00C0
070380
01FC00
ENDCHAR
STARTCHAR 24D3
ENCODING 9427
SWIDTH 1000 0
DWIDTH 25 0
BBX 22 22 2 -4
BITMAP
00FC00
070380
0C00C0
100620
200610
600618
400608
C0F608
83FE04
830E04
860604
860604
860604
860604
C70E08
43FE08
61E618
200010
100020
0C00C0
070380
01FC00
ENDCHAR
STARTCHAR 24D4
ENCODING 9428
SWIDTH 1000 0
DWIDTH 25 0
BBX 22 22 2 -4
BITMAP
00FC00
070380
0C00C0
100020
200010
600018
400008
C07C08
81FE04
818604
830304
83FF04
83FF04
830004
C38208
41FE08
607C18
200010
100020
0C00C0
070380
01FC00
ENDCHAR
STARTCHAR 24D5
ENCODING 9429
SWIDTH 1000 0
DWIDTH 25 0
BBX 22 22 2 -4
BITMAP
00FC00
070380
0C00C0
103C20
207C10
606018
406008
C1FC08
81FC04
806004
806004
806004
806004
806004
C06008
406008
606018
200010
100020
0C00C0
070380
01FC00
ENDCHAR
STARTCHAR 24D6
ENCODING 9430
SWIDTH 1000 0
DWIDTH 25 0
BBX 22 22 2 -4
BITMAP
00FC00
070380
0C00C0
100020
200010
600018
400008
C07B08
81FF04
838704
830304
830304
830304
838704
C1FF08
40FB08
600318
210710
11FE20
0CF8C0
070380
01FC00
ENDCHAR
STARTCHAR 24D7
ENCODING 9431
SWIDTH 1000 0
DWIDTH 25 0
BBX 22 22 2 -4
BITMAP
00FC00
070380
0C00C0
118020
218010
618018
418008
C19C08
81BE04
81C704
818304
818304
818304
818304
C18308
418308
618318
200010
100020
0C00C0
070380
01FC00
ENDCHAR
STARTCHAR 24D8
ENCODING 9432
SWIDTH 1000 0
DWIDTH 25 0
BBX 22 22 2 -4
BITMAP
00FC00
070380
0C00C0
103020
203010
600018
400008
C03008
803004
803004
803004
803004
803004
803004
C03008
403008
603018
200010
100020
0C00C0
070380
01FC00
ENDCHAR
STARTCHAR 24D9
ENCODING 9433
SWIDTH 1000 0
DWIDTH 25 0
BBX 22 22 2 -4
BITMAP
00FC00
070380
0C00C0
101820
201810
600018
400008
C01808
801804
801804
801804
801804
801804
801804
C01808
401808
603818
21F010
11E020
0C00C0
070380
01FC00
ENDCHAR
STARTCHAR 24DA
ENCODING 9434
SWIDTH 1000 0
DWIDTH 25 0
BBX 22 22 2 -4
BITMAP
00FC00
070380
0C00C0
10C020
20C010
60C018
40C008
C0C308
80C604
80CC04
80D804
80F004
80F004
80D804
C0CC08
40C608
60C318
200010
100020
0C00C0
070380
01FC00
ENDCHAR
STARTCHAR 24DB
ENCODING 9435
SWIDTH 1000 0
DWIDTH 25 0
BBX 22 22 2 -4
BITMAP
00FC00
070380
0C00C0
10F020
20F010
603018
403008
C03008
803004
803004
803004
803004
803004
803004
C03008
40FC08
60FC18
200010
100020
0C00C0
070380
01FC00
ENDCHAR
STARTCHAR 24DC
ENCODING 9436
SWIDTH 1000 0
DWIDTH 25 0
BBX 22 22 2 -4
BITMAP
00FC00
070380
0C00C0
100020
200010
600018
400008
CDC788
8FEF84
8E79C4
8C30C4
8C30C4
8C30C4
8C30C4
CC30C8
4C30C8
6C30D8
200010
100020
0C00C0
070380
01FC00
ENDCHAR
STARTCHAR 24DD
ENCODING 9437
SWIDTH 1000 0
DWIDTH 25 0
BBX 22 22 2 -4
BITMAP
00FC00
070380
0C00C0
100020
200010
600018
400008
C19C08
81FE04
81C704
818304
818304
818304
818304
C18308
418308
618318
200010
100020
0C00C0
070380
01FC00
ENDCHAR
STARTCHAR 24DE
ENCODING 9438
SWIDTH 1000 0
DWIDTH 25 0
BBX 22 22 2 -4
BITMAP
00FC00
070380
0C00C0
100020
200010
600018
400008
C07C08
81FF04
818304
830184
830184
830184
830184
C18308
41FF08
607C18
200010
100020
0C00C0
070380
01FC00
ENDCHAR
STARTCHAR 24DF
ENCODING 9439
SWIDTH 1000 0
DWIDTH 25 0
BBX 22 22 2 -4
BITMAP
00FC00
070380
0C00C0
100020
200010
600018
400008
C19E08
81BF04
81C384
818184
818184
818184
818184
C1C308
41FF08
61BC18
218010
118020
0D80C0
070380
01FC00
ENDCHAR
STARTCHAR 24E0
ENCODING 9440
SWIDTH 1000 0
DWIDTH 25 0
BBX 22 22 2 -4
BITMAP
00FC00
070380
0C00C0
100020
200010
600018
400008
C0F608
83FE04
830E04
860604
860604
860604
860604
C70E08
43F608
61E618
200610
100620
0C06C0
070380
01FC00
ENDCHAR
STARTCHAR 24E1
ENCODING 9441
SWIDTH 1000 0
DWIDTH 25 0
BBX 22 22 2 -4
BITMAP
00FC00
070380
0C00C0
100020
200010
600018
400008
C06E08
807E04
807004
806004
806004
806004
806004
C06008
406008
606018
200010
100020
0C00C0
070380
01FC00
ENDCHAR
STARTCHAR 24E2
ENCODING 9442
SWIDTH 1000 0
DWIDTH 25 0
BBX 22 22 2 -4
BITMAP
00FC00
070380
0C00C0
100020
200010
600018
400008
C03E08
80FE04
80C004
80C004
807004
803C04
800604
C00608
40FE08
60F818
200010
100020
0C00C0
070380
01FC00
ENDCHAR
STARTCHAR 24E3
ENCODING 9443
SWIDTH 1000 0
DWIDTH 25 0
BBX 22 22 2 -4
BITMAP
00FC00
070380
0C00C0
100020
206010
606018
406008
C1FC08
81FC04
806004
806004
806004
806004
806004
C06008
407C08
603C18
200010
100020
0C00C0
070380
01FC00
ENDCHAR
STARTCHAR 24E4
ENCODING 9444
SWIDTH 1000 0
DWIDTH 25 0
BBX 22 22 2 -4
BITMAP
00FC00
070380
0C00C0
100020
200010
600018
400008
C18308
818304
818304
818304
818304
818304
818304
C1C708
40FF08
607318
200010
100020
0C00C0
070380
01FC00
ENDCHAR
STARTCHAR 24E5
ENCODING 9445
SWIDTH 1000 0
DWIDTH 25 0
BBX 22 22 2 -4
BITMAP
00FC00
070380
0C00C0
100020
200010
600018
400008
C30308
818604
818604
818604
80CC04
80CC04
806804
C07808
407808
603018
200010
100020
0C00C0
070380
01FC00
ENDCHAR
STARTCHAR 24E6
ENCODING 9446
SWIDTH 1000 0
DWIDTH 25 0
BBX 22 22 2 -4
BITMAP
00FC00
070380
0C00C0
100020
200010
600018
400008
CC20C8
8C30C4
867184
865184
865984
835904
83CF04
C38F08
418E08
618618
200010
100020
0C00C0
070380
01FC00
ENDCHAR
STARTCHAR 24E7
ENCODING 9447
SWIDTH 1000 0
DWIDTH 25 0
BBX 22 22 2 -4
BITMAP
00FC00
070380
0C00C0
100020
200010
600018
400008
C30308
818604
80CC04
807804
803004
803004
807804
C0CC08
418608
630318
200010
100020
0C00C0
070380
01FC00
ENDCHAR
STARTCHAR 24E8
ENCODING 9448
SWIDTH 1000 0
DWIDTH 25 0
BBX 22 22 2 -4
BITMAP
00FC00
070380
0C00C0
100020
200010
600018
400008
C18188
80C304
80C304
80C304
806604
806604
802C04
C03C08
401808
601818
201810
103020
0CF0C0
07E380
01FC00
ENDCHAR
STARTCHAR 24E9
ENCODING 9449
SWIDTH 1000 0
DWIDTH 25 0
BBX 22 22 2 -4
BITMAP
00FC00
070380
0C00C0
100020
200010
600018
400008
C1FF08
81FE04
800404
800804
801004
802004
804004
C08008
41FF08
63FF18
200010
100020
0C00C0
070380
01FC00
ENDCHAR
STARTCHAR 2500
ENCODING 9472
SWIDTH 1000 0
DWIDTH 25 0
BBX 25 1 0 7
BITMAP
FFFFFF80
ENDCHAR
STARTCHAR 2501
ENCODING 9473
SWIDTH 1000 0
DWIDTH 25 0
BBX 25 2 0 6
BITMAP
FFFFFF80
FFFFFF80
ENDCHAR
STARTCHAR 2502
ENCODING 9474
SWIDTH 1000 0
DWIDTH 25 0
BBX 1 25 12 -5
BITMAP
80
80
80
80
80
80
80
80
80
80
80
80
80
80
80
80
80
80
80
80
80
80
80
80
80
ENDCHAR
STARTCHAR 2503
ENCODING 9475
SWIDTH 1000 0
DWIDTH 25 0
BBX 2 25 12 -5
BITMAP
C0
C0
C0
C0
C0
C0
C0
C0
C0
C0
C0
C0
C0
C0
C0
C0
C0
C0
C0
C0
C0
C0
C0
C0
C0
ENDCHAR
STARTCHAR 250C
ENCODING 9484
SWIDTH 1000 0
DWIDTH 25 0
BBX 13 13 12 -5
BITMAP
FFF8
8000
8000
8000
8000
8000
8000
8000
8000
8000
8000
8000
8000
ENDCHAR
STARTCHAR 250D
ENCODING 9485
SWIDTH 1000 0
DWIDTH 25 0
BBX 13 14 12 -6
BITMAP
FFF8
FFF8
8000
8000
8000
8000
8000
8000
8000
8000
8000
8000
8000
8000
ENDCHAR
STARTCHAR 250E
ENCODING 9486
SWIDTH 1000 0
DWIDTH 25 0
BBX 14 13 12 -6
BITMAP
FFFC
C000
C000
C000
C000
C000
C000
C000
C000
C000
C000
C000
C000
ENDCHAR
STARTCHAR 250F
ENCODING 9487
SWIDTH 1000 0
DWIDTH 25 0
BBX 14 14 12 -6
BITMAP
FFFC
FFFC
C000
C000
C000
C000
C000
C000
C000
C000
C000
C000
C000
C000
ENDCHAR
STARTCHAR 2510
ENCODING 9488
SWIDTH 1000 0
DWIDTH 25 0
BBX 13 13 0 -5
BITMAP
FFF8
0008
0008
0008
0008
0008
0008
0008
0008
0008
0008
0008
0008
ENDCHAR
STARTCHAR 2511
ENCODING 9489
SWIDTH 1000 0
DWIDTH 25 0
BBX 13 14 0 -6
BITMAP
FFF8
FFF8
0008
0008
0008
0008
0008
0008
0008
0008
0008
0008
0008
0008
ENDCHAR
STARTCHAR 2512
ENCODING 9490
SWIDTH 1000 0
DWIDTH 25 0
BBX 14 13 0 -6
BITMAP
FFFC
000C
000C
000C
000C
000C
000C
000C
000C
000C
000C
000C
000C
ENDCHAR
STARTCHAR 2513
ENCODING 9491
SWIDTH 1000 0
DWIDTH 25 0
BBX 14 14 0 -6
BITMAP
FFFC
FFFC
000C
000C
000C
000C
000C
000C
000C
000C
000C
000C
000C
000C
ENDCHAR
STARTCHAR 2514
ENCODING 9492
SWIDTH 1000 0
DWIDTH 25 0
BBX 13 13 12 7
BITMAP
8000
8000
8000
8000
8000
8000
8000
8000
8000
8000
8000
8000
FFF8
ENDCHAR
STARTCHAR 2515
ENCODING 9493
SWIDTH 1000 0
DWIDTH 25 0
BBX 13 14 12 6
BITMAP
8000
8000
8000
8000
8000
8000
8000
8000
8000
8000
8000
8000
FFF8
FFF8
ENDCHAR
STARTCHAR 2516
ENCODING 9494
SWIDTH 1000 0
DWIDTH 25 0
BBX 14 13 12 7
BITMAP
C000
C000
C000
C000
C000
C000
C000
C000
C000
C000
C000
C000
FFFC
ENDCHAR
STARTCHAR 2517
ENCODING 9495
SWIDTH 1000 0
DWIDTH 25 0
BBX 14 14 12 6
BITMAP
C000
C000
C000
C000
C000
C000
C000
C000
C000
C000
C000
C000
FFFC
FFFC
ENDCHAR
STARTCHAR 2518
ENCODING 9496
SWIDTH 1000 0
DWIDTH 25 0
BBX 13 13 0 7
BITMAP
0008
0008
0008
0008
0008
0008
0008
0008
0008
0008
0008
0008
FFF8
ENDCHAR
STARTCHAR 2519
ENCODING 9497
SWIDTH 1000 0
DWIDTH 25 0
BBX 13 14 0 6
BITMAP
0008
0008
0008
0008
0008
0008
0008
0008
0008
0008
0008
0008
FFF8
FFF8
ENDCHAR
STARTCHAR 251A
ENCODING 9498
SWIDTH 1000 0
DWIDTH 25 0
BBX 14 13 0 7
BITMAP
000C
000C
000C
000C
000C
000C
000C
000C
000C
000C
000C
000C
FFFC
ENDCHAR
STARTCHAR 251B
ENCODING 9499
SWIDTH 1000 0
DWIDTH 25 0
BBX 14 14 0 6
BITMAP
000C
000C
000C
000C
000C
000C
000C
000C
000C
000C
000C
000C
FFFC
FFFC
ENDCHAR
STARTCHAR 251C
ENCODING 9500
SWIDTH 1000 0
DWIDTH 25 0
BBX 13 25 12 -5
BITMAP
8000
8000
8000
8000
8000
8000
8000
8000
8000
8000
8000
8000
FFF8
8000
8000
8000
8000
8000
8000
8000
8000
8000
8000
8000
8000
ENDCHAR
STARTCHAR 251D
ENCODING 9501
SWIDTH 1000 0
DWIDTH 25 0
BBX 13 25 12 -5
BITMAP
8000
8000
8000
8000
8000
8000
8000
8000
8000
8000
8000
8000
FFF8
FFF8
8000
8000
8000
8000
8000
8000
8000
8000
8000
8000
8000
ENDCHAR
STARTCHAR 251E
ENCODING 9502
SWIDTH 1000 0
DWIDTH 25 0
BBX 13 25 12 -5
BITMAP
C000
C000
C000
C000
C000
C000
C000
C000
C000
C000
C000
C000
FFF8
8000
8000
8000
8000
8000
8000
8000
8000
8000
8000
8000
8000
ENDCHAR
STARTCHAR 251F
ENCODING 9503
SWIDTH 1000 0
DWIDTH 25 0
BBX 14 25 12 -5
BITMAP
8000
8000
8000
8000
8000
8000
8000
8000
8000
8000
8000
8000
FFFC
C000
C000
C000
C000
C000
C000
C000
C000
C000
C000
C000
C000
ENDCHAR
STARTCHAR 2520
ENCODING 9504
SWIDTH 1000 0
DWIDTH 25 0
BBX 14 25 12 -5
BITMAP
C000
C000
C000
C000
C000
C000
C000
C000
C000
C000
C000
C000
FFFC
C000
C000
C000
C000
C000
C000
C000
C000
C000
C000
C000
C000
ENDCHAR
STARTCHAR 2521
ENCODING 9505
SWIDTH 1000 0
DWIDTH 25 0
BBX 13 25 12 -5
BITMAP
C000
C000
C000
C000
C000
C000
C000
C000
C000
C000
C000
C000
FFF8
FFF8
8000
8000
8000
8000
8000
8000
8000
8000
8000
8000
8000
ENDCHAR
STARTCHAR 2522
ENCODING 9506
SWIDTH 1000 0
DWIDTH 25 0
BBX 14 25 12 -5
BITMAP
8000
8000
8000
8000
8000
8000
8000
8000
8000
8000
8000
8000
FFFC
FFFC
C000
C000
C000
C000
C000
C000
C000
C000
C000
C000
C000
ENDCHAR
STARTCHAR 2523
ENCODING 9507
SWIDTH 1000 0
DWIDTH 25 0
BBX 14 25 12 -5
BITMAP
C000
C000
C000
C000
C000
C000
C000
C000
C000
C000
C000
C000
FFFC
FFFC
C000
C000
C000
C000
C000
C000
C000
C000
C000
C000
C000
ENDCHAR
STARTCHAR 2524
ENCODING 9508
SWIDTH 1000 0
DWIDTH 25 0
BBX 13 25 0 -5
BITMAP
0008
0008
0008
0008
0008
0008
0008
0008
0008
0008
0008
0008
FFF8
0008
0008
0008
0008
0008
0008
0008
0008
0008
0008
0008
0008
ENDCHAR
STARTCHAR 2525
ENCODING 9509
SWIDTH 1000 0
DWIDTH 25 0
BBX 13 25 0 -5
BITMAP
0008
0008
0008
0008
0008
0008
0008
0008
0008
0008
0008
0008
FFF8
FFF8
0008
0008
0008
0008
0008
0008
0008
0008
0008
0008
0008
ENDCHAR
STARTCHAR 2526
ENCODING 9510
SWIDTH 1000 0
DWIDTH 25 0
BBX 14 25 0 -5
BITMAP
000C
000C
000C
000C
000C
000C
000C
000C
000C
000C
000C
000C
FFFC
0008
0008
0008
0008
0008
0008
0008
0008
0008
0008
0008
0008
ENDCHAR
STARTCHAR 2527
ENCODING 9511
SWIDTH 1000 0
DWIDTH 25 0
BBX 14 25 0 -5
BITMAP
0008
0008
0008
0008
0008
0008
0008
0008
0008
0008
0008
0008
FFFC
000C
000C
000C
000C
000C
000C
000C
000C
000C
000C
000C
000C
ENDCHAR
STARTCHAR 2528
ENCODING 9512
SWIDTH 1000 0
DWIDTH 25 0
BBX 14 25 0 -5
BITMAP
000C
000C
000C
000C
000C
000C
000C
000C
000C
000C
000C
000C
FFFC
000C
000C
000C
000C
000C
000C
000C
000C
000C
000C
000C
000C
ENDCHAR
STARTCHAR 2529
ENCODING 9513
SWIDTH 1000 0
DWIDTH 25 0
BBX 14 25 0 -5
BITMAP
000C
000C
000C
000C
000C
000C
000C
000C
000C
000C
000C
000C
FFFC
FFFC
0008
0008
0008
0008
0008
0008
0008
0008
0008
0008
0008
ENDCHAR
STARTCHAR 252A
ENCODING 9514
SWIDTH 1000 0
DWIDTH 25 0
BBX 14 25 0 -5
BITMAP
0008
0008
0008
0008
0008
0008
0008
0008
0008
0008
0008
0008
FFFC
FFFC
000C
000C
000C
000C
000C
000C
000C
000C
000C
000C
000C
ENDCHAR
STARTCHAR 252B
ENCODING 9515
SWIDTH 1000 0
DWIDTH 25 0
BBX 14 25 0 -5
BITMAP
000C
000C
000C
000C
000C
000C
000C
000C
000C
000C
000C
000C
FFFC
FFFC
000C
000C
000C
000C
000C
000C
000C
000C
000C
000C
000C
ENDCHAR
STARTCHAR 252C
ENCODING 9516
SWIDTH 1000 0
DWIDTH 25 0
BBX 25 13 0 -5
BITMAP
FFFFFF80
00080000
00080000
00080000
00080000
00080000
00080000
00080000
00080000
00080000
00080000
00080000
00080000
ENDCHAR
STARTCHAR 252D
ENCODING 9517
SWIDTH 1000 0
DWIDTH 25 0
BBX 25 14 0 -6
BITMAP
FFFFFF80
FFF80000
00080000
00080000
00080000
00080000
00080000
00080000
00080000
00080000
00080000
00080000
00080000
00080000
ENDCHAR
STARTCHAR 252E
ENCODING 9518
SWIDTH 1000 0
DWIDTH 25 0
BBX 25 13 0 -5
BITMAP
FFFFFF80
000FFF80
00080000
00080000
00080000
00080000
00080000
00080000
00080000
00080000
00080000
00080000
00080000
ENDCHAR
STARTCHAR 252F
ENCODING 9519
SWIDTH 1000 0
DWIDTH 25 0
BBX 25 14 0 -6
BITMAP
FFFFFF80
FFFFFF80
00080000
00080000
00080000
00080000
00080000
00080000
00080000
00080000
00080000
00080000
00080000
00080000
ENDCHAR
STARTCHAR 2530
ENCODING 9520
SWIDTH 1000 0
DWIDTH 25 0
BBX 25 13 0 -6
BITMAP
FFFFFF80
000C0000
000C0000
000C0000
000C0000
000C0000
000C0000
000C0000
000C0000
000C0000
000C0000
000C0000
000C0000
ENDCHAR
STARTCHAR 2531
ENCODING 9521
SWIDTH 1000 0
DWIDTH 25 0
BBX 25 14 0 -6
BITMAP
FFFFFF80
FFFC0000
000C0000
000C0000
000C0000
000C0000
000C0000
000C0000
000C0000
000C0000
000C0000
000C0000
000C0000
000C0000
ENDCHAR
STARTCHAR 2532
ENCODING 9522
SWIDTH 1000 0
DWIDTH 25 0
BBX 25 13 0 -5
BITMAP
FFFFFF80
000FFF80
000C0000
000C0000
000C0000
000C0000
000C0000
000C0000
000C0000
000C0000
000C0000
000C0000
000C0000
ENDCHAR
STARTCHAR 2533
ENCODING 9523
SWIDTH 1000 0
DWIDTH 25 0
BBX 25 14 0 -6
BITMAP
FFFFFF80
FFFFFF80
000C0000
000C0000
000C0000
000C0000
000C0000
000C0000
000C0000
000C0000
000C0000
000C0000
000C0000
000C0000
ENDCHAR
STARTCHAR 2534
ENCODING 9524
SWIDTH 1000 0
DWIDTH 25 0
BBX 25 13 0 7
BITMAP
00080000
00080000
00080000
00080000
00080000
00080000
00080000
00080000
00080000
00080000
00080000
00080000
FFFFFF80
ENDCHAR
STARTCHAR 2535
ENCODING 9525
SWIDTH 1000 0
DWIDTH 25 0
BBX 25 14 0 6
BITMAP
00080000
00080000
00080000
00080000
00080000
00080000
00080000
00080000
00080000
00080000
00080000
00080000
FFFFFF80
FFF80000
ENDCHAR
STARTCHAR 2536
ENCODING 9526
SWIDTH 1000 0
DWIDTH 25 0
BBX 25 14 0 6
BITMAP
00080000
00080000
00080000
00080000
00080000
00080000
00080000
00080000
00080000
00080000
00080000
00080000
FFFFFF80
000FFF80
ENDCHAR
STARTCHAR 2537
ENCODING 9527
SWIDTH 1000 0
DWIDTH 25 0
BBX 25 14 0 6
BITMAP
00080000
00080000
00080000
00080000
00080000
00080000
00080000
00080000
00080000
00080000
00080000
00080000
FFFFFF80
FFFFFF80
ENDCHAR
STARTCHAR 2538
ENCODING 9528
SWIDTH 1000 0
DWIDTH 25 0
BBX 25 13 0 7
BITMAP
000C0000
000C0000
000C0000
000C0000
000C0000
000C0000
000C0000
000C0000
000C0000
000C0000
000C0000
000C0000
FFFFFF80
ENDCHAR
STARTCHAR 2539
ENCODING 9529
SWIDTH 1000 0
DWIDTH 25 0
BBX 25 14 0 6
BITMAP
000C0000
000C0000
000C0000
000C0000
000C0000
000C0000
000C0000
000C0000
000C0000
000C0000
000C0000
000C0000
FFFFFF80
FFFC0000
ENDCHAR
STARTCHAR 253A
ENCODING 9530
SWIDTH 1000 0
DWIDTH 25 0
BBX 25 14 0 6
BITMAP
000C0000
000C0000
000C0000
000C0000
000C0000
000C0000
000C0000
000C0000
000C0000
000C0000
000C0000
000C0000
FFFFFF80
000FFF80
ENDCHAR
STARTCHAR 253B
ENCODING 9531
SWIDTH 1000 0
DWIDTH 25 0
BBX 25 14 0 6
BITMAP
000C0000
000C0000
000C0000
000C0000
000C0000
000C0000
000C0000
000C0000
000C0000
000C0000
000C0000
000C0000
FFFFFF80
FFFFFF80
ENDCHAR
STARTCHAR 253C
ENCODING 9532
SWIDTH 1000 0
DWIDTH 25 0
BBX 25 25 0 -5
BITMAP
00080000
00080000
00080000
00080000
00080000
00080000
00080000
00080000
00080000
00080000
00080000
00080000
FFFFFF80
00080000
00080000
00080000
00080000
00080000
00080000
00080000
00080000
00080000
00080000
00080000
00080000
ENDCHAR
STARTCHAR 253D
ENCODING 9533
SWIDTH 1000 0
DWIDTH 25 0
BBX 25 25 0 -5
BITMAP
00080000
00080000
00080000
00080000
00080000
00080000
00080000
00080000
00080000
00080000
00080000
00080000
FFFFFF80
FFF80000
00080000
00080000
00080000
00080000
00080000
00080000
00080000
00080000
00080000
00080000
00080000
ENDCHAR
STARTCHAR 253E
ENCODING 9534
SWIDTH 1000 0
DWIDTH 25 0
BBX 25 25 0 -5
BITMAP
00080000
00080000
00080000
00080000
00080000
00080000
00080000
00080000
00080000
00080000
00080000
00080000
FFFFFF80
000FFF80
00080000
00080000
00080000
00080000
00080000
00080000
00080000
00080000
00080000
00080000
00080000
ENDCHAR
STARTCHAR 253F
ENCODING 9535
SWIDTH 1000 0
DWIDTH 25 0
BBX 25 25 0 -5
BITMAP
00080000
00080000
00080000
00080000
00080000
00080000
00080000
00080000
00080000
00080000
00080000
00080000
FFFFFF80
FFFFFF80
00080000
00080000
00080000
00080000
00080000
00080000
00080000
00080000
00080000
00080000
00080000
ENDCHAR
STARTCHAR 2540
ENCODING 9536
SWIDTH 1000 0
DWIDTH 25 0
BBX 25 25 0 -5
BITMAP
000C0000
000C0000
000C0000
000C0000
000C0000
000C0000
000C0000
000C0000
000C0000
000C0000
000C0000
000C0000
FFFFFF80
00080000
00080000
00080000
00080000
00080000
00080000
00080000
00080000
00080000
00080000
00080000
00080000
ENDCHAR
STARTCHAR 2541
ENCODING 9537
SWIDTH 1000 0
DWIDTH 25 0
BBX 25 25 0 -5
BITMAP
00080000
00080000
00080000
00080000
00080000
00080000
00080000
00080000
00080000
00080000
00080000
00080000
FFFFFF80
000C0000
000C0000
000C0000
000C0000
000C0000
000C0000
000C0000
000C0000
000C0000
000C0000
000C0000
000C0000
ENDCHAR
STARTCHAR 2542
ENCODING 9538
SWIDTH 1000 0
DWIDTH 25 0
BBX 25 25 0 -5
BITMAP
000C0000
000C0000
000C0000
000C0000
000C0000
000C0000
000C0000
000C0000
000C0000
000C0000
000C0000
000C0000
FFFFFF80
000C0000
000C0000
000C0000
000C0000
000C0000
000C0000
000C0000
000C0000
000C0000
000C0000
000C0000
000C0000
ENDCHAR
STARTCHAR 2543
ENCODING 9539
SWIDTH 1000 0
DWIDTH 25 0
BBX 25 25 0 -5
BITMAP
000C0000
000C0000
000C0000
000C0000
000C0000
000C0000
000C0000
000C0000
000C0000
000C0000
000C0000
000C0000
FFFFFF80
FFFC0000
00080000
00080000
00080000
00080000
00080000
00080000
00080000
00080000
00080000
00080000
00080000
ENDCHAR
STARTCHAR 2544
ENCODING 9540
SWIDTH 1000 0
DWIDTH 25 0
BBX 25 25 0 -5
BITMAP
000C0000
000C0000
000C0000
000C0000
000C0000
000C0000
000C0000
000C0000
000C0000
000C0000
000C0000
000C0000
FFFFFF80
000FFF80
00080000
00080000
00080000
00080000
00080000
00080000
00080000
00080000
00080000
00080000
00080000
ENDCHAR
STARTCHAR 2545
ENCODING 9541
SWIDTH 1000 0
DWIDTH 25 0
BBX 25 25 0 -5
BITMAP
00080000
00080000
00080000
00080000
00080000
00080000
00080000
00080000
00080000
00080000
00080000
00080000
FFFFFF80
FFFC0000
000C0000
000C0000
000C0000
000C0000
000C0000
000C0000
000C0000
000C0000
000C0000
000C0000
000C0000
ENDCHAR
STARTCHAR 2546
ENCODING 9542
SWIDTH 1000 0
DWIDTH 25 0
BBX 25 25 0 -5
BITMAP
00080000
00080000
00080000
00080000
00080000
00080000
00080000
00080000
00080000
00080000
00080000
00080000
FFFFFF80
000FFF80
000C0000
000C0000
000C0000
000C0000
000C0000
000C0000
000C0000
000C0000
000C0000
000C0000
000C0000
ENDCHAR
STARTCHAR 2547
ENCODING 9543
SWIDTH 1000 0
DWIDTH 25 0
BBX 25 25 0 -5
BITMAP
000C0000
000C0000
000C0000
000C0000
000C0000
000C0000
000C0000
000C0000
000C0000
000C0000
000C0000
000C0000
FFFFFF80
FFFFFF80
00080000
00080000
00080000
00080000
00080000
00080000
00080000
00080000
00080000
00080000
00080000
ENDCHAR
STARTCHAR 2548
ENCODING 9544
SWIDTH 1000 0
DWIDTH 25 0
BBX 25 25 0 -5
BITMAP
00080000
00080000
00080000
00080000
00080000
00080000
00080000
00080000
00080000
00080000
00080000
00080000
FFFFFF80
FFFFFF80
000C0000
000C0000
000C0000
000C0000
000C0000
000C0000
000C0000
000C0000
000C0000
000C0000
000C0000
ENDCHAR
STARTCHAR 2549
ENCODING 9545
SWIDTH 1000 0
DWIDTH 25 0
BBX 25 25 0 -5
BITMAP
000C0000
000C0000
000C0000
000C0000
000C0000
000C0000
000C0000
000C0000
000C0000
000C0000
000C0000
000C0000
FFFFFF80
FFFC0000
000C0000
000C0000
000C0000
000C0000
000C0000
000C0000
000C0000
000C0000
000C0000
000C0000
000C0000
ENDCHAR
STARTCHAR 254A
ENCODING 9546
SWIDTH 1000 0
DWIDTH 25 0
BBX 25 25 0 -5
BITMAP
000C0000
000C0000
000C0000
000C0000
000C0000
000C0000
000C0000
000C0000
000C0000
000C0000
000C0000
000C0000
FFFFFF80
000FFF80
000C0000
000C0000
000C0000
000C0000
000C0000
000C0000
000C0000
000C0000
000C0000
000C0000
000C0000
ENDCHAR
STARTCHAR 254B
ENCODING 9547
SWIDTH 1000 0
DWIDTH 25 0
BBX 25 25 0 -5
BITMAP
000C0000
000C0000
000C0000
000C0000
000C0000
000C0000
000C0000
000C0000
000C0000
000C0000
000C0000
000C0000
FFFFFF80
FFFFFF80
000C0000
000C0000
000C0000
000C0000
000C0000
000C0000
000C0000
000C0000
000C0000
000C0000
000C0000
ENDCHAR
STARTCHAR 2592
ENCODING 9618
SWIDTH 1000 0
DWIDTH 25 0
BBX 23 23 1 -4
BITMAP
C99336
C99336
000000
C99336
C99336
000000
000000
C99336
C99336
000000
C99336
C99336
000000
000000
C99336
C99336
000000
C99336
C99336
000000
000000
C99336
C99336
ENDCHAR
STARTCHAR 25A0
ENCODING 9632
SWIDTH 1000 0
DWIDTH 25 0
BBX 19 19 3 -2
BITMAP
FFFFE0
FFFFE0
FFFFE0
FFFFE0
FFFFE0
FFFFE0
FFFFE0
FFFFE0
FFFFE0
FFFFE0
FFFFE0
FFFFE0
FFFFE0
FFFFE0
FFFFE0
FFFFE0
FFFFE0
FFFFE0
FFFFE0
ENDCHAR
STARTCHAR 25A1
ENCODING 9633
SWIDTH 1000 0
DWIDTH 25 0
BBX 19 19 3 -2
BITMAP
FFFFE0
800020
800020
800020
800020
800020
800020
800020
800020
800020
800020
800020
800020
800020
800020
800020
800020
800020
FFFFE0
ENDCHAR
STARTCHAR 25A3
ENCODING 9635
SWIDTH 1000 0
DWIDTH 25 0
BBX 19 19 3 -2
BITMAP
FFFFE0
800020
800020
800020
8FFE20
8FFE20
8FFE20
8FFE20
8FFE20
8FFE20
8FFE20
8FFE20
8FFE20
8FFE20
8FFE20
800020
800020
800020
FFFFE0
ENDCHAR
STARTCHAR 25A4
ENCODING 9636
SWIDTH 1000 0
DWIDTH 25 0
BBX 19 19 3 -2
BITMAP
FFFFE0
800020
800020
800020
FFFFE0
800020
800020
800020
800020
FFFFE0
800020
800020
800020
800020
FFFFE0
800020
800020
800020
FFFFE0
ENDCHAR
STARTCHAR 25A5
ENCODING 9637
SWIDTH 1000 0
DWIDTH 25 0
BBX 19 19 3 -2
BITMAP
FFFFE0
884220
884220
884220
884220
884220
884220
884220
884220
884220
884220
884220
884220
884220
884220
884220
884220
884220
FFFFE0
ENDCHAR
STARTCHAR 25A6
ENCODING 9638
SWIDTH 1000 0
DWIDTH 25 0
BBX 19 19 3 -2
BITMAP
FFFFE0
884220
884220
884220
884220
FFFFE0
884220
884220
884220
FFFFE0
884220
884220
884220
884220
FFFFE0
884220
884220
884220
FFFFE0
ENDCHAR
STARTCHAR 25A7
ENCODING 9639
SWIDTH 1000 0
DWIDTH 25 0
BBX 19 19 3 -2
BITMAP
FFFFE0
C06020
A03020
901820
880C20
840620
820320
8101A0
8080E0
C04060
C02020
B01020
980820
8C0420
860220
8301A0
8180E0
80C060
FFFFE0
ENDCHAR
STARTCHAR 25A8
ENCODING 9640
SWIDTH 1000 0
DWIDTH 25 0
BBX 19 19 3 -2
BITMAP
FFFFE0
80C060
8180E0
830120
860220
8C0420
980820
B01020
E02020
C04020
808060
8100A0
820120
840220
880420
900820
A01020
C06020
FFFFE0
ENDCHAR
STARTCHAR 25A9
ENCODING 9641
SWIDTH 1000 0
DWIDTH 25 0
BBX 19 19 3 -2
BITMAP
FFFFE0
C0E060
A1B0E0
9319A0
8E0E20
8C0620
920920
A110A0
C0A060
804060
C0A0E0
A111A0
9E0B20
8C0620
9E0E20
B31920
E1B0A0
C0E060
FFFFE0
ENDCHAR
STARTCHAR 25B2
ENCODING 9650
SWIDTH 1000 0
DWIDTH 25 0
BBX 19 16 3 0
BITMAP
004000
006000
00E000
01F000
01F000
03F800
07FC00
07FC00
0FFE00
1FFF00
1FFF00
3FFF80
3FFFC0
7FFFC0
FFFFE0
FFFFE0
ENDCHAR
STARTCHAR 25B3
ENCODING 9651
SWIDTH 1000 0
DWIDTH 25 0
BBX 19 16 3 1
BITMAP
004000
006000
00A000
019000
011800
020800
060400
040400
080200
180300
100100
200080
6000C0
400040
C00060
FFFFE0
ENDCHAR
STARTCHAR 25B6
ENCODING 9654
SWIDTH 1000 0
DWIDTH 25 0
BBX 15 20 5 -2
BITMAP
8000
C000
F000
F800
FE00
FF00
FFC0
FFF0
FFF8
FFFE
FFFE
FFF8
FFF0
FFC0
FF80
FE00
F800
F000
C000
8000
ENDCHAR
STARTCHAR 25B7
ENCODING 9655
SWIDTH 1000 0
DWIDTH 25 0
BBX 16 21 5 -3
BITMAP
8000
C000
B000
9800
8600
8300
80C0
8060
8018
800C
8003
800C
8018
8060
80C0
8300
8600
9800
B000
C000
8000
ENDCHAR
STARTCHAR 25BC
ENCODING 9660
SWIDTH 1000 0
DWIDTH 25 0
BBX 19 16 3 -1
BITMAP
FFFFE0
FFFFE0
7FFFC0
3FFF80
3FFF80
1FFF00
0FFF00
0FFE00
07FC00
07FC00
03F800
01F000
01F000
00E000
006000
004000
ENDCHAR
STARTCHAR 25BD
ENCODING 9661
SWIDTH 1000 0
DWIDTH 25 0
BBX 19 16 3 -2
BITMAP
FFFFE0
C00060
400040
200080
300180
100100
180300
080200
040400
060C00
020800
011800
019000
00A000
00E000
004000
ENDCHAR
STARTCHAR 25C0
ENCODING 9664
SWIDTH 1000 0
DWIDTH 25 0
BBX 15 20 5 -2
BITMAP
0002
0006
001E
003E
00FE
01FE
07FE
1FFE
3FFE
FFFE
FFFE
3FFE
1FFE
07FE
01FE
00FE
003E
001E
0006
0002
ENDCHAR
STARTCHAR 25C1
ENCODING 9665
SWIDTH 1000 0
DWIDTH 25 0
BBX 15 20 5 -2
BITMAP
0002
0006
001A
0032
00C2
0302
0602
1802
3002
C002
C002
3002
1802
0602
0302
00C2
0022
001A
0006
0002
ENDCHAR
STARTCHAR 25C6
ENCODING 9670
SWIDTH 1000 0
DWIDTH 25 0
BBX 23 23 1 -4
BITMAP
001000
003800
007C00
00FE00
01FF00
03FF80
07FFC0
0FFFE0
1FFFF0
3FFFF8
7FFFFC
FFFFFE
7FFFFC
3FFFF8
1FFFF0
0FFFE0
07FFC0
03FF80
01FF00
00FE00
007C00
003800
001000
ENDCHAR
STARTCHAR 25C7
ENCODING 9671
SWIDTH 1000 0
DWIDTH 25 0
BBX 23 23 1 -4
BITMAP
001000
003800
006C00
00C600
018300
030180
0600C0
0C0060
180030
300018
60000C
C00006
60000C
300018
180030
0C0060
0600C0
030180
018300
00C600
006C00
003800
001000
ENDCHAR
STARTCHAR 25C8
ENCODING 9672
SWIDTH 1000 0
DWIDTH 25 0
BBX 23 23 1 -4
BITMAP
001000
003800
006C00
00C200
019100
033880
067C40
0CFE20
19FF10
33FF88
67FFE4
CFFFF2
67FFE4
33FF88
19FF10
0CFE20
067C40
033980
019300
00C600
006C00
003800
001000
ENDCHAR
STARTCHAR 25CB
ENCODING 9675
SWIDTH 1000 0
DWIDTH 25 0
BBX 21 21 2 -3
BITMAP
01FC00
070700
0C0180
100040
200020
600030
400010
400010
C00018
800008
800008
800008
C00018
400010
400010
600030
200020
100040
080180
060700
01FC00
ENDCHAR
STARTCHAR 25CE
ENCODING 9678
SWIDTH 1000 0
DWIDTH 25 0
BBX 21 21 2 -3
BITMAP
01FC00
060300
1800C0
300060
20F820
430610
C40118
880088
880088
980088
900048
9800C8
880088
880088
C40118
430610
20F820
300060
1800C0
060300
01FC00
ENDCHAR
STARTCHAR 25CF
ENCODING 9679
SWIDTH 1000 0
DWIDTH 25 0
BBX 21 21 2 -3
BITMAP
01FC00
07FF00
0FFF80
1FFFC0
3FFFE0
7FFFF0
7FFFF0
7FFFF0
FFFFF8
FFFFF8
FFFFF8
FFFFF8
FFFFF8
7FFFF0
7FFFF0
7FFFF0
3FFFE0
1FFFC0
0FFF80
07FF00
01FC00
ENDCHAR
STARTCHAR 25D0
ENCODING 9680
SWIDTH 1000 0
DWIDTH 25 0
BBX 21 21 2 -3
BITMAP
01FC00
07E700
0FE180
1FE040
3FE060
7FE030
7FE010
7FE010
FFE018
FFE018
FFE018
FFE018
FFE018
7FE010
7FE010
7FE030
3FE060
1FE040
0FE180
07E300
01FC00
ENDCHAR
STARTCHAR 25D1
ENCODING 9681
SWIDTH 1000 0
DWIDTH 25 0
BBX 21 21 2 -3
BITMAP
01FC00
063F00
0C3F80
103FC0
303FE0
603FF0
403FF0
403FF0
C03FF8
C03FF8
C03FF8
C03FF8
C03FF8
403FF0
403FF0
603FF0
203FE0
103FC0
0C3F80
063F00
01FC00
ENDCHAR
STARTCHAR 2605
ENCODING 9733
SWIDTH 1000 0
DWIDTH 25 0
BBX 19 20 3 -3
BITMAP
004000
004000
004000
00E000
00E000
01E000
01F000
FFFFE0
7FFFC0
3FFF80
1FFF00
07FC00
07FC00
07FC00
07FC00
0FBE00
0E1E00
0C0600
180300
200000
ENDCHAR
STARTCHAR 2606
ENCODING 9734
SWIDTH 1000 0
DWIDTH 25 0
BBX 19 20 3 -3
BITMAP
004000
004000
00C000
00A000
00A000
01A000
011000
FF1FE0
4000C0
300180
080300
040C00
040400
040400
0C4400
09B200
0A0A00
0C0600
180300
100100
ENDCHAR
STARTCHAR 260E
ENCODING 9742
SWIDTH 1000 0
DWIDTH 25 0
BBX 23 16 1 -1
BITMAP
03FF80
1FFFF0
3D03F8
7D037C
FD837E
FDFF7E
F3831E
030180
0600C0
0E00E0
1E00E0
1E00F0
1E00F0
3F01F0
3F83F8
3FFFF0
ENDCHAR
STARTCHAR 260F
ENCODING 9743
SWIDTH 1000 0
DWIDTH 25 0
BBX 23 16 1 -1
BITMAP
03FF80
1C0070
63FDC8
858544
857D42
8E7D62
F2871E
030180
060140
0A0120
120120
220110
210110
208610
207C08
3FFFF0
ENDCHAR
STARTCHAR 261C
ENCODING 9756
SWIDTH 1000 0
DWIDTH 25 0
BBX 24 10 0 3
BITMAP
03FFC0
7F07F3
80181D
7FE005
028F05
039B05
01F285
010E45
00F433
000FEC
ENDCHAR
STARTCHAR 261E
ENCODING 9758
SWIDTH 1000 0
DWIDTH 25 0
BBX 23 11 1 2
BITMAP
03FFE0
ECF01E
B00C02
A003FC
A0B140
A0E940
A15780
A27E80
B05F00
EC2400
03F800
ENDCHAR
STARTCHAR 2640
ENCODING 9792
SWIDTH 640 0
DWIDTH 16 0
BBX 11 22 2 -4
BITMAP
1F00
30C0
6040
4020
C020
C020
C020
4020
6060
30C0
1F00
0400
0400
0400
0400
FFE0
0400
0400
0400
0400
0400
0400
ENDCHAR
STARTCHAR 2642
ENCODING 9794
SWIDTH 720 0
DWIDTH 18 0
BBX 14 19 2 -1
BITMAP
0018
00F8
03B8
0628
006C
0044
00C4
0084
1F80
6180
40C0
C060
8060
8020
8060
8040
40C0
6180
1F00
ENDCHAR
STARTCHAR 2660
ENCODING 9824
SWIDTH 1000 0
DWIDTH 25 0
BBX 17 21 4 -3
BITMAP
008000
01C000
03E000
07F000
0FF800
1FF800
1FFC00
3FFE00
7FFF00
7FFF00
FFFF80
FFFF80
FFFF80
FFFF80
FFFF80
7EBF00
3CDE00
01C000
01E000
03E000
03F000
ENDCHAR
STARTCHAR 2661
ENCODING 9825
SWIDTH 1000 0
DWIDTH 25 0
BBX 19 21 3 -4
BITMAP
1E0F80
7F1FC0
61B8E0
C1B060
C0E060
C0E020
C04060
C00060
C00060
400040
6000C0
200080
300180
180300
080600
0C0600
060C00
031800
01B000
00E000
004000
ENDCHAR
STARTCHAR 2663
ENCODING 9827
SWIDTH 1000 0
DWIDTH 25 0
BBX 21 22 2 -3
BITMAP
00F800
01FC00
03FE00
03FE00
03FE00
03FE00
03FE00
03FC00
01FC00
3E73C0
7FFFF0
FFFFF0
FFFFF8
FFFFF8
FFAFF8
FFAFF0
7F27F0
3E63C0
007000
00F000
00F800
01F800
ENDCHAR
STARTCHAR 2664
ENCODING 9828
SWIDTH 1000 0
DWIDTH 25 0
BBX 17 22 4 -3
BITMAP
008000
01C000
034000
062000
043000
081800
180800
100400
300600
600200
400300
400100
C00180
C00180
C00180
C36380
7F7F00
3D7E00
036000
022000
03F000
07F000
ENDCHAR
STARTCHAR 2665
ENCODING 9829
SWIDTH 1000 0
DWIDTH 25 0
BBX 19 21 3 -3
BITMAP
1E0F80
7F1FC0
7FBFE0
FFBFE0
FFFFE0
FFFFE0
FFFFE0
FFFFE0
FFFFE0
7FFFC0
7FFFC0
3FFF80
3FFF80
1FFF00
0FFE00
0FFC00
07FC00
03F800
01F000
00E000
004000
ENDCHAR
STARTCHAR 2667
ENCODING 9831
SWIDTH 1000 0
DWIDTH 25 0
BBX 21 21 2 -3
BITMAP
00F800
01FC00
038E00
030200
020200
020200
030600
018400
1EC9E0
63DE30
41CC18
C00018
C00018
C00018
C0D818
61DE30
7F5BF0
1ED9C0
00C800
00F800
00FC00
ENDCHAR
STARTCHAR 2668
ENCODING 9832
SWIDTH 1000 0
DWIDTH 25 0
BBX 21 21 2 -3
BITMAP
001000
011200
013200
013600
036600
036600
036600
036600
033600
013600
01B200
01B300
0DB300
39B6C0
633630
432618
C26418
624438
7801F0
1FFFE0
03FF00
ENDCHAR
STARTCHAR 2669
ENCODING 9833
SWIDTH 520 0
DWIDTH 13 0
BBX 6 20 2 -2
BITMAP
04
04
04
04
04
04
04
04
04
04
04
04
04
04
04
04
38
78
F0
E0
ENDCHAR
STARTCHAR 266A
ENCODING 9834
SWIDTH 680 0
DWIDTH 17 0
BBX 12 20 2 -1
BITMAP
0800
0400
0600
0700
07C0
05E0
04F0
0430
0410
0410
0410
0410
0420
0440
0480
0400
3C00
7800
F000
E000
ENDCHAR
STARTCHAR 266C
ENCODING 9836
SWIDTH 920 0
DWIDTH 23 0
BBX 17 21 2 -2
BITMAP
000380
003F80
01FF80
07F880
078180
040F80
047F80
07F880
07E080
070080
040080
040080
040080
040380
040780
040F80
0C0F00
780E00
F80000
F00000
E00000
ENDCHAR
STARTCHAR 266D
ENCODING 9837
SWIDTH 560 0
DWIDTH 14 0
BBX 9 16 3 -1
BITMAP
8000
8000
8000
8000
8000
9E00
A300
C380
8380
8380
8300
8300
8600
8C00
9800
E000
ENDCHAR
STARTCHAR 3000
ENCODING 12288
SWIDTH 1000 0
DWIDTH 25 0
BBX 0 0 0 0
BITMAP
ENDCHAR
STARTCHAR 3001
ENCODING 12289
SWIDTH 1000 0
DWIDTH 25 0
BBX 5 5 2 -2
BITMAP
80
60
38
18
08
ENDCHAR
STARTCHAR 3002
ENCODING 12290
SWIDTH 1000 0
DWIDTH 25 0
BBX 6 6 2 -3
BITMAP
70
C8
84
84
C8
70
ENDCHAR
STARTCHAR 3003
ENCODING 12291
SWIDTH 1000 0
DWIDTH 25 0
BBX 8 9 9 3
BITMAP
37
36
66
64
44
4C
88
88
10
ENDCHAR
STARTCHAR 3008
ENCODING 12296
SWIDTH 560 0
DWIDTH 14 0
BBX 10 21 2 -3
BITMAP
0040
0080
0180
0300
0600
0400
0800
1000
3000
6000
C000
6000
2000
1000
0800
0C00
0600
0300
0100
0080
0040
ENDCHAR
STARTCHAR 3009
ENCODING 12297
SWIDTH 560 0
DWIDTH 14 0
BBX 10 21 1 -3
BITMAP
C000
6000
2000
1000
0800
0400
0600
0300
0100
0080
0040
0080
0180
0300
0600
0400
0800
1000
3000
6000
C000
ENDCHAR
STARTCHAR 300A
ENCODING 12298
SWIDTH 600 0
DWIDTH 15 0
BBX 11 21 3 -3
BITMAP
0340
0240
0480
0D80
0900
1200
1600
2400
6800
5800
9000
4800
6800
2400
1600
1200
0900
0580
0480
0240
0360
ENDCHAR
STARTCHAR 300B
ENCODING 12299
SWIDTH 600 0
DWIDTH 15 0
BBX 11 21 1 -3
BITMAP
D000
4800
2400
3400
1200
0B00
0900
0480
06C0
0240
0120
0240
06C0
0480
0900
0B00
1200
3400
2C00
4800
D000
ENDCHAR
STARTCHAR 300C
ENCODING 12300
SWIDTH 560 0
DWIDTH 14 0
BBX 8 12 5 7
BITMAP
FF
80
80
80
80
80
80
80
80
80
80
80
ENDCHAR
STARTCHAR 300D
ENCODING 12301
SWIDTH 560 0
DWIDTH 14 0
BBX 8 12 1 -4
BITMAP
01
01
01
01
01
01
01
01
01
01
01
FF
ENDCHAR
STARTCHAR 300E
ENCODING 12302
SWIDTH 520 0
DWIDTH 13 0
BBX 8 12 4 7
BITMAP
FF
81
BF
A0
A0
A0
A0
A0
A0
A0
A0
E0
ENDCHAR
STARTCHAR 300F
ENCODING 12303
SWIDTH 520 0
DWIDTH 13 0
BBX 8 12 1 -5
BITMAP
07
05
05
05
05
05
05
05
05
FD
81
FF
ENDCHAR
STARTCHAR 3010
ENCODING 12304
SWIDTH 520 0
DWIDTH 13 0
BBX 6 22 5 -4
BITMAP
FC
F8
F8
F0
F0
F0
E0
E0
E0
E0
E0
E0
E0
E0
E0
E0
F0
F0
F0
F8
F8
FC
ENDCHAR
STARTCHAR 3011
ENCODING 12305
SWIDTH 520 0
DWIDTH 13 0
BBX 6 22 2 -4
BITMAP
FC
7C
7C
3C
3C
3C
1C
1C
1C
1C
1C
1C
1C
1C
1C
1C
3C
3C
3C
7C
7C
FC
ENDCHAR
STARTCHAR 3013
ENCODING 12307
SWIDTH 1000 0
DWIDTH 25 0
BBX 23 8 1 4
BITMAP
FFFFFE
000000
000000
000000
000000
000000
000000
FFFFFE
ENDCHAR
STARTCHAR 3014
ENCODING 12308
SWIDTH 480 0
DWIDTH 12 0
BBX 6 23 5 -4
BITMAP
1C
E0
80
80
80
80
80
80
80
80
80
80
80
80
80
80
80
80
80
80
80
E0
1C
ENDCHAR
STARTCHAR 3015
ENCODING 12309
SWIDTH 480 0
DWIDTH 12 0
BBX 7 23 1 -4
BITMAP
F0
1E
02
02
02
02
02
02
02
02
02
02
02
02
02
02
02
02
02
02
02
1E
F0
ENDCHAR
STARTCHAR 3041
ENCODING 12353
SWIDTH 1000 0
DWIDTH 25 0
BBX 13 18 6 -4
BITMAP
0600
0600
0600
0640
7F80
0400
0480
04E0
07F0
1D98
3598
6508
4708
C608
CE08
DE10
E230
00C0
ENDCHAR
STARTCHAR 3042
ENCODING 12354
SWIDTH 1000 0
DWIDTH 25 0
BBX 16 21 5 -3
BITMAP
0300
0300
0300
0310
7E70
7FC0
0600
0660
0770
0FFC
1E7E
3ECE
76C7
66C3
C383
C383
C702
DF06
FB0C
F018
0060
ENDCHAR
STARTCHAR 3043
ENCODING 12355
SWIDTH 1000 0
DWIDTH 25 0
BBX 15 14 6 -3
BITMAP
C000
8030
8010
8018
8008
800C
8004
8006
C406
CC06
7800
7800
3800
1000
ENDCHAR
STARTCHAR 3044
ENCODING 12356
SWIDTH 1000 0
DWIDTH 25 0
BBX 17 17 5 -3
BITMAP
400000
400800
C00C00
C00400
C00600
C00600
C00200
C00300
C00300
C00100
440180
440180
6C0100
680000
380000
380000
180000
ENDCHAR
STARTCHAR 3045
ENCODING 12357
SWIDTH 1000 0
DWIDTH 25 0
BBX 10 16 8 -2
BITMAP
3000
0F00
0000
0000
0000
1F00
FF80
C080
00C0
0080
0080
0180
0300
0700
1C00
1800
ENDCHAR
STARTCHAR 3046
ENCODING 12358
SWIDTH 1000 0
DWIDTH 25 0
BBX 13 21 6 -3
BITMAP
1800
0F00
01E0
0000
0000
0000
0000
0FE0
FFF8
E018
0018
0018
0018
0018
0018
0010
0030
0060
00C0
0180
0600
ENDCHAR
STARTCHAR 3047
ENCODING 12359
SWIDTH 1000 0
DWIDTH 25 0
BBX 12 16 7 -2
BITMAP
3800
0700
0000
0000
0380
FF00
0200
0600
0C00
1800
1800
3E00
7300
6300
C300
81F0
ENDCHAR
STARTCHAR 3048
ENCODING 12360
SWIDTH 1000 0
DWIDTH 25 0
BBX 16 21 5 -3
BITMAP
1C00
0FE0
00E0
0000
0000
01E0
7FE0
7EC0
00C0
0180
0300
0600
0600
0F80
1F80
1880
30C0
70C0
60C2
C0FF
C07C
ENDCHAR
STARTCHAR 3049
ENCODING 12361
SWIDTH 1000 0
DWIDTH 25 0
BBX 14 14 6 -2
BITMAP
1800
1800
9830
7F18
1904
1800
1800
1FE0
3C30
F818
D818
9830
91E0
7000
ENDCHAR
STARTCHAR 304A
ENCODING 12362
SWIDTH 1000 0
DWIDTH 25 0
BBX 16 19 5 -2
BITMAP
0C00
0C00
0C00
0C0C
CCC6
FFC3
3F01
0C00
0C00
0FF8
1E0C
7C06
6C06
CC06
CC06
C804
C80C
F8F0
7000
ENDCHAR
STARTCHAR 304B
ENCODING 12363
SWIDTH 1000 0
DWIDTH 25 0
BBX 17 20 5 -2
BITMAP
0C0000
0C0000
0C0000
080000
080000
0FC600
FC6200
986300
182300
102100
102180
302180
302080
202080
602080
602000
406000
C46000
C7C000
800000
ENDCHAR
STARTCHAR 304C
ENCODING 12364
SWIDTH 1000 0
DWIDTH 25 0
BBX 18 20 5 -2
BITMAP
0C0080
0C02C0
0C0340
0801C0
080080
0FC600
FC6200
986300
182300
102100
102180
302180
302080
202080
602080
602000
406000
C46000
C7C000
800000
ENDCHAR
STARTCHAR 304D
ENCODING 12365
SWIDTH 1000 0
DWIDTH 25 0
BBX 13 21 6 -3
BITMAP
1800
1800
0840
0DC0
FF80
0608
0308
0338
01F0
FFC0
FF80
00C0
0060
0060
1FB0
60F8
4030
C000
C000
6060
1FC0
ENDCHAR
STARTCHAR 304E
ENCODING 12366
SWIDTH 1000 0
DWIDTH 25 0
BBX 16 23 6 -3
BITMAP
0004
0016
181A
1809
0844
0DC4
FF80
0608
0308
0338
01F0
FFC0
FF80
00C0
0060
0060
1FB0
60F8
4030
C000
C000
6060
1FC0
ENDCHAR
STARTCHAR 304F
ENCODING 12367
SWIDTH 1000 0
DWIDTH 25 0
BBX 11 21 6 -4
BITMAP
0080
0180
0180
0300
0600
0C00
3800
7000
E000
C000
C000
C000
6000
3000
1800
0C00
0700
0380
01C0
00C0
0060
ENDCHAR
STARTCHAR 3050
ENCODING 12368
SWIDTH 1000 0
DWIDTH 25 0
BBX 16 21 6 -4
BITMAP
0080
0186
019A
030B
0605
0C04
3800
7000
E000
C000
C000
C000
6000
3000
1800
0C00
0700
0380
01C0
00C0
0060
ENDCHAR
STARTCHAR 3051
ENCODING 12369
SWIDTH 1000 0
DWIDTH 25 0
BBX 16 20 5 -3
BITMAP
C008
C008
C008
C008
C009
801F
87FE
87C8
8008
8008
8008
8008
8008
C008
C008
C018
C018
4038
41F0
61C0
ENDCHAR
STARTCHAR 3052
ENCODING 12370
SWIDTH 1000 0
DWIDTH 25 0
BBX 18 21 5 -3
BITMAP
000080
C009C0
C009C0
C008C0
C00800
C00900
801F00
87FE00
87C800
800800
800800
800800
800800
800800
C00800
C00800
C01800
C01800
403800
41F000
61C000
ENDCHAR
STARTCHAR 3053
ENCODING 12371
SWIDTH 1000 0
DWIDTH 25 0
BBX 14 17 6 0
BITMAP
07F8
3800
0000
0000
0000
0000
0000
0000
0000
0000
6000
4000
C000
C000
C004
6018
1FE0
ENDCHAR
STARTCHAR 3054
ENCODING 12372
SWIDTH 1000 0
DWIDTH 25 0
BBX 17 18 6 1
BITMAP
000100
000380
000280
07F100
380100
000000
000000
000000
000000
000000
000000
C00000
C00000
800000
800000
800400
C01C00
3FF000
ENDCHAR
STARTCHAR 3055
ENCODING 12373
SWIDTH 1000 0
DWIDTH 25 0
BBX 12 21 6 -3
BITMAP
0400
0600
0600
0210
03F0
7FE0
7F80
0180
0080
00C0
0060
1F60
70F0
6030
C010
C000
C000
C000
6000
3020
1FF0
ENDCHAR
STARTCHAR 3056
ENCODING 12374
SWIDTH 1000 0
DWIDTH 25 0
BBX 16 22 6 -3
BITMAP
0002
040F
0605
0607
0212
03F0
7FE0
7F80
0180
0080
00C0
0060
1F60
70F0
6030
C010
C000
C000
C000
6000
3020
1FF0
ENDCHAR
STARTCHAR 3057
ENCODING 12375
SWIDTH 1000 0
DWIDTH 25 0
BBX 13 20 7 -3
BITMAP
C000
C000
C000
C000
C000
C000
C000
C000
C000
C000
C000
C010
C018
C018
C030
C030
6060
70E0
3FC0
1F00
ENDCHAR
STARTCHAR 3058
ENCODING 12376
SWIDTH 1000 0
DWIDTH 25 0
BBX 13 20 7 -3
BITMAP
C000
C000
C040
C160
C1B0
C0E0
C040
C000
C000
C000
C000
C010
C018
C018
C030
C030
6060
70E0
3FC0
1F00
ENDCHAR
STARTCHAR 3059
ENCODING 12377
SWIDTH 1000 0
DWIDTH 25 0
BBX 17 21 4 -2
BITMAP
004000
004000
004000
006780
81FF80
FFE000
006000
006000
076000
0CE000
186000
186000
186000
0CE000
07E000
006000
006000
004000
00C000
030000
0C0000
ENDCHAR
STARTCHAR 305A
ENCODING 12378
SWIDTH 1000 0
DWIDTH 25 0
BBX 17 23 4 -3
BITMAP
000200
004500
004500
004600
006200
006780
81FF80
FFE000
006000
006000
076000
0CE000
186000
186000
186000
0CE000
07E000
006000
006000
004000
00C000
030000
0C0000
ENDCHAR
STARTCHAR 305B
ENCODING 12379
SWIDTH 1000 0
DWIDTH 25 0
BBX 17 18 4 -2
BITMAP
000C00
000C00
180C00
180C00
180C00
19FF80
3FFF80
FE0C00
D80C00
180C00
180C00
188C00
18F800
180000
180000
180000
180200
0FFF00
ENDCHAR
STARTCHAR 305C
ENCODING 12380
SWIDTH 1000 0
DWIDTH 25 0
BBX 19 19 4 -2
BITMAP
000C40
000D60
180DA0
180CE0
180C40
180C00
19FF80
3FFF80
FE0C00
D80C00
180C00
180C00
188C00
18F800
180000
180000
180000
180200
0FFF00
ENDCHAR
STARTCHAR 305D
ENCODING 12381
SWIDTH 1000 0
DWIDTH 25 0
BBX 16 22 5 -3
BITMAP
1FF0
2070
0060
00C0
0180
0200
0400
083E
17FF
3EF8
79C0
E380
4300
0600
0600
0600
0600
0600
0300
03C0
00F8
0018
ENDCHAR
STARTCHAR 305E
ENCODING 12382
SWIDTH 1000 0
DWIDTH 25 0
BBX 18 22 5 -3
BITMAP
1FF180
2070C0
006240
00C340
018100
020000
040000
083E00
17FF00
3EF800
79C000
E38000
430000
060000
060000
060000
060000
060000
030000
03C000
00F800
001800
ENDCHAR
STARTCHAR 305F
ENCODING 12383
SWIDTH 1000 0
DWIDTH 25 0
BBX 17 21 3 -2
BITMAP
080000
080000
080000
080000
080000
098000
FE0F00
C83F80
186000
180000
180000
180000
180000
180000
100000
100000
318000
308000
30E080
303F80
200000
ENDCHAR
STARTCHAR 3060
ENCODING 12384
SWIDTH 1000 0
DWIDTH 25 0
BBX 18 21 3 -2
BITMAP
080180
0806C0
080340
080100
080000
098000
FE0F00
C83F80
186000
180000
180000
180000
180000
180000
100000
100000
318000
308000
30E080
303F80
200000
ENDCHAR
STARTCHAR 3061
ENCODING 12385
SWIDTH 1000 0
DWIDTH 25 0
BBX 14 20 6 -2
BITMAP
0C00
0C00
0800
0800
0860
7FF0
FF80
1800
1800
1800
11E0
3618
3808
300C
300C
600C
0018
0018
0070
0780
ENDCHAR
STARTCHAR 3062
ENCODING 12386
SWIDTH 1000 0
DWIDTH 25 0
BBX 17 21 6 -2
BITMAP
000400
0C0300
0C1900
080480
080200
086000
7FF000
FF8000
180000
180000
100000
13E000
361800
380800
300C00
600C00
000C00
001800
001800
007000
078000
ENDCHAR
STARTCHAR 3063
ENCODING 12387
SWIDTH 1000 0
DWIDTH 25 0
BBX 15 11 5 -2
BITMAP
03F0
1E1C
F804
6004
0006
0004
000C
001C
0078
03F0
0380
ENDCHAR
STARTCHAR 3064
ENCODING 12388
SWIDTH 1000 0
DWIDTH 25 0
BBX 18 15 4 -1
BITMAP
00FC00
07FF00
3F0380
F80180
600080
0000C0
0000C0
0000C0
000180
000180
000300
000700
003E00
01F800
01C000
ENDCHAR
STARTCHAR 3065
ENCODING 12389
SWIDTH 1000 0
DWIDTH 25 0
BBX 20 21 4 -1
BITMAP
000080
000040
000220
000110
000080
000040
00FC00
07FF00
3F0380
F80180
600080
0000C0
0000C0
0000C0
000180
000180
000300
000700
003E00
01F800
01C000
ENDCHAR
STARTCHAR 3066
ENCODING 12390
SWIDTH 1000 0
DWIDTH 25 0
BBX 15 19 5 -3
BITMAP
03FE
FFFE
F0F0
01C0
0180
0300
0300
0600
0600
0600
0600
0600
0600
0600
0700
0380
01C0
00F8
0038
ENDCHAR
STARTCHAR 3067
ENCODING 12391
SWIDTH 1000 0
DWIDTH 25 0
BBX 18 19 5 -3
BITMAP
03FE00
FFFE00
F0F000
01C100
0184C0
030640
030100
060100
060000
060000
060000
060000
060000
060000
070000
038000
01C000
00F800
003800
ENDCHAR
STARTCHAR 3068
ENCODING 12392
SWIDTH 1000 0
DWIDTH 25 0
BBX 13 18 6 -2
BITMAP
0C00
0C00
0C00
0C00
0C00
0C30
0CE0
0F00
1C00
3000
6000
4000
C000
C000
C000
6000
7FF0
1FF8
ENDCHAR
STARTCHAR 3069
ENCODING 12393
SWIDTH 1000 0
DWIDTH 25 0
BBX 17 20 6 -2
BITMAP
000400
000300
0C0900
0C0680
0C0200
0C0000
0C0000
0C3000
0CE000
0F0000
1C0000
300000
600000
400000
C00000
C00000
C00000
600000
7FF000
1FF800
ENDCHAR
STARTCHAR 306A
ENCODING 12394
SWIDTH 1000 0
DWIDTH 25 0
BBX 15 20 5 -2
BITMAP
0200
0200
0600
0620
06E0
7F80
0C3C
0C06
181C
1830
3060
6060
E060
4020
0070
07F8
0C36
0814
0C30
07E0
ENDCHAR
STARTCHAR 306B
ENCODING 12395
SWIDTH 1000 0
DWIDTH 25 0
BBX 15 18 5 -1
BITMAP
4000
6000
43FC
4204
C000
C000
C000
C000
C000
C000
C000
C000
CC00
CC00
C400
4600
47FE
41FE
ENDCHAR
STARTCHAR 306C
ENCODING 12396
SWIDTH 1000 0
DWIDTH 25 0
BBX 19 17 4 0
BITMAP
00C000
20C000
20F800
23C600
37C200
3C8300
388100
308100
718100
718100
D90300
CB3F00
CF4700
C6C780
46C6C0
784C60
003840
ENDCHAR
STARTCHAR 306D
ENCODING 12397
SWIDTH 1000 0
DWIDTH 25 0
BBX 18 21 4 -3
BITMAP
0C0000
0C0000
0C0000
0C0000
0E0000
3E3C00
7EFE00
67C300
0F0300
0E0100
1C0100
1C0100
3C0100
6C0100
6C0100
CC7F00
8CC700
0CC780
0C7C40
0C0000
0C0000
ENDCHAR
STARTCHAR 306E
ENCODING 12398
SWIDTH 1000 0
DWIDTH 25 0
BBX 17 17 4 -1
BITMAP
03F000
0C0C00
184600
204300
60C180
40C180
C08080
C18080
C18080
C30080
C60180
CE0180
7C0300
700700
001E00
007C00
006000
ENDCHAR
STARTCHAR 306F
ENCODING 12399
SWIDTH 1000 0
DWIDTH 25 0
BBX 16 18 5 -1
BITMAP
6018
6018
4018
4018
C019
C7FE
C018
C018
C018
C018
C018
C018
C1F8
C61C
C61E
4613
4631
43E0
ENDCHAR
STARTCHAR 3070
ENCODING 12400
SWIDTH 1000 0
DWIDTH 25 0
BBX 18 22 5 -2
BITMAP
000100
000680
000340
600140
601900
401800
401800
C01900
C7FE00
C01800
C01800
C01800
C01800
C01800
C01800
C1F800
C21C00
C61E00
441300
461100
463000
01E000
ENDCHAR
STARTCHAR 3071
ENCODING 12401
SWIDTH 1000 0
DWIDTH 25 0
BBX 18 20 5 -2
BITMAP
0001C0
001A40
601A40
601A40
4019C0
401900
C7FE00
C01800
C01800
C01800
C01800
C01800
C01800
C01800
C3F800
C61C00
C41A00
463100
43E000
400000
ENDCHAR
STARTCHAR 3072
ENCODING 12402
SWIDTH 1000 0
DWIDTH 25 0
BBX 17 18 4 0
BITMAP
001800
061800
3E1C00
CC0C00
080E00
180A00
300900
300980
300880
200C00
600800
600800
600800
201800
201800
301000
186000
0FC000
ENDCHAR
STARTCHAR 3073
ENCODING 12403
SWIDTH 1000 0
DWIDTH 25 0
BBX 19 20 4 -1
BITMAP
000080
000060
001920
0618C0
3E1C40
CC0C00
080E00
180A00
300900
300980
300880
200C00
600800
600800
600800
201800
201800
301000
186000
0FC000
ENDCHAR
STARTCHAR 3074
ENCODING 12404
SWIDTH 1000 0
DWIDTH 25 0
BBX 19 18 4 0
BITMAP
0019C0
061920
3E1E20
CC0D20
080FC0
180A00
300B00
300900
300880
200C80
600800
600800
600800
201800
201800
301000
187000
0FC000
ENDCHAR
STARTCHAR 3075
ENCODING 12405
SWIDTH 1000 0
DWIDTH 25 0
BBX 16 18 4 -1
BITMAP
0300
01C0
00F0
01C0
0100
0000
0000
0600
0304
01C6
0063
0861
0C31
1830
7030
C030
0420
03C0
ENDCHAR
STARTCHAR 3076
ENCODING 12406
SWIDTH 1000 0
DWIDTH 25 0
BBX 19 18 4 -1
BITMAP
030100
01C180
00F040
00C620
018180
010080
000000
060400
030600
01C300
006300
086100
0C3100
183000
703000
C03000
042000
03C000
ENDCHAR
STARTCHAR 3077
ENCODING 12407
SWIDTH 1000 0
DWIDTH 25 0
BBX 18 18 4 -1
BITMAP
030000
01C000
00F380
01C480
010440
000480
000380
060000
030000
01C400
006600
086300
0C3100
183100
703000
C03000
042000
03C000
ENDCHAR
STARTCHAR 3078
ENCODING 12408
SWIDTH 1000 0
DWIDTH 25 0
BBX 18 13 4 1
BITMAP
030000
078000
06C000
0C4000
186000
303000
401800
800800
000C00
000600
000300
000180
0000C0
ENDCHAR
STARTCHAR 3079
ENCODING 12409
SWIDTH 1000 0
DWIDTH 25 0
BBX 19 15 4 1
BITMAP
000180
0000C0
030260
0781A0
06C080
0C4000
186000
303000
401800
800800
000400
000600
000300
000180
0000C0
ENDCHAR
STARTCHAR 307A
ENCODING 12410
SWIDTH 1000 0
DWIDTH 25 0
BBX 18 14 4 1
BITMAP
000380
030440
078440
0EC440
0C4380
186000
303000
C01800
800800
000400
000600
000300
000180
0000C0
ENDCHAR
STARTCHAR 307B
ENCODING 12411
SWIDTH 1000 0
DWIDTH 25 0
BBX 16 19 5 -1
BITMAP
000C
63F0
6010
4010
4010
C011
C7FF
C7F0
C010
C010
C010
C010
C3F0
C63C
C41E
C413
4631
43E0
4000
ENDCHAR
STARTCHAR 307C
ENCODING 12412
SWIDTH 1000 0
DWIDTH 25 0
BBX 19 20 5 -2
BITMAP
000080
000C40
63F120
601080
401040
401040
C01100
C7FF00
C7F000
C01000
C01000
C01000
C01000
C3F000
C63C00
C41E00
C41300
463100
43E000
400000
ENDCHAR
STARTCHAR 307D
ENCODING 12413
SWIDTH 1000 0
DWIDTH 25 0
BBX 19 19 5 0
BITMAP
000C00
63F0C0
601120
401120
401120
C011C0
C7FF00
C7F000
C01000
C01000
C01000
C01000
C01000
C3F000
C63C00
C41E00
441300
463100
43E000
ENDCHAR
STARTCHAR 307E
ENCODING 12414
SWIDTH 1000 0
DWIDTH 25 0
BBX 13 19 6 -2
BITMAP
0100
0100
0100
0118
FFF8
0100
0100
0118
7FF8
7F00
0100
0100
0100
0100
3F80
6160
4318
6308
3C00
ENDCHAR
STARTCHAR 307F
ENCODING 12415
SWIDTH 1000 0
DWIDTH 25 0
BBX 18 19 4 -1
BITMAP
007000
0FF000
0F3000
002000
006000
006000
00C000
00C200
018300
1F8300
3FFB00
627E00
C60700
CC0780
D806C0
F00C00
600C00
003800
01C000
ENDCHAR
STARTCHAR 3080
ENCODING 12416
SWIDTH 1000 0
DWIDTH 25 0
BBX 15 19 5 -2
BITMAP
0400
0400
0400
0480
FF00
0C00
0C18
0C0E
7C02
4C00
CC00
CC00
4C00
7C04
180C
180C
180C
1818
07F0
ENDCHAR
STARTCHAR 3081
ENCODING 12417
SWIDTH 1000 0
DWIDTH 25 0
BBX 16 19 5 -2
BITMAP
0020
4060
6060
60F0
27FC
3E46
18C2
38C3
7883
4D81
CD81
C701
8701
8703
8D83
DD02
F804
7018
0060
ENDCHAR
STARTCHAR 3082
ENCODING 12418
SWIDTH 1000 0
DWIDTH 25 0
BBX 15 22 5 -3
BITMAP
0200
0200
0600
0600
0600
6600
1FC0
0400
0C00
0C00
CC00
CC00
C804
7F8C
1886
1806
1806
1806
1806
0804
0C0C
03F0
ENDCHAR
STARTCHAR 3083
ENCODING 12419
SWIDTH 1000 0
DWIDTH 25 0
BBX 15 17 5 -4
BITMAP
0100
0100
21BC
61C6
3362
3E42
1806
780E
EC7C
8C70
0600
0600
0200
0300
0300
0100
0100
ENDCHAR
STARTCHAR 3084
ENCODING 12420
SWIDTH 1000 0
DWIDTH 25 0
BBX 18 21 4 -4
BITMAP
008000
00C000
20DF00
607180
30F0C0
31B0C0
1B10C0
1E10C0
1C01C0
7C0380
E61F00
861C00
020000
030000
010000
018000
018000
008000
00C000
00C000
004000
ENDCHAR
STARTCHAR 3085
ENCODING 12421
SWIDTH 1000 0
DWIDTH 25 0
BBX 14 16 7 -3
BITMAP
00C0
C0C0
C3F0
8CF8
98D8
90CC
B0CC
A0CC
ACCC
ECC8
C6D8
C3F0
00C0
0180
0180
0300
ENDCHAR
STARTCHAR 3086
ENCODING 12422
SWIDTH 1000 0
DWIDTH 25 0
BBX 18 20 4 -2
BITMAP
001000
401000
C0FC00
C39F00
C61380
C41180
CC1080
D810C0
D010C0
D010C0
F61080
E61180
E31300
E1FF00
60FC00
403000
003000
002000
006000
008000
ENDCHAR
STARTCHAR 3087
ENCODING 12423
SWIDTH 1000 0
DWIDTH 25 0
BBX 13 15 6 -2
BITMAP
0200
0200
0200
0220
03C0
0200
0200
0200
0200
0200
3F80
7E60
C618
4608
3C00
ENDCHAR
STARTCHAR 3088
ENCODING 12424
SWIDTH 1000 0
DWIDTH 25 0
BBX 16 18 5 -1
BITMAP
0100
0100
0100
0100
010C
01F8
0100
0100
0100
0100
0100
0100
3FE0
7F1C
E107
C101
4300
3E00
ENDCHAR
STARTCHAR 3089
ENCODING 12425
SWIDTH 1000 0
DWIDTH 25 0
BBX 13 21 7 -3
BITMAP
0E00
07E0
00C0
0000
0000
3000
6000
6000
6000
4000
C7C0
D860
F010
E018
C018
0018
0010
0030
0060
01C0
0700
ENDCHAR
STARTCHAR 308A
ENCODING 12426
SWIDTH 1000 0
DWIDTH 25 0
BBX 12 21 7 -3
BITMAP
C000
C380
C440
C860
D860
D020
F020
F020
E030
E030
E030
E020
6020
0020
0060
0060
00C0
0080
0100
0600
0400
ENDCHAR
STARTCHAR 308B
ENCODING 12427
SWIDTH 1000 0
DWIDTH 25 0
BBX 15 21 5 -2
BITMAP
00F0
1FF8
1E30
0060
0080
0100
0200
0400
09F0
0E18
180C
3006
6006
C006
8002
0006
0786
0C44
086C
0C38
07E0
ENDCHAR
STARTCHAR 308C
ENCODING 12428
SWIDTH 1000 0
DWIDTH 25 0
BBX 19 21 4 -3
BITMAP
180000
180000
180000
180000
180000
1E7C00
FCC400
1F8400
1E0600
1C0600
1C0600
380600
380600
780600
580600
D80660
980660
980640
1806C0
180380
180000
ENDCHAR
STARTCHAR 308D
ENCODING 12429
SWIDTH 1000 0
DWIDTH 25 0
BBX 15 22 5 -2
BITMAP
3FF0
0030
0060
00C0
01C0
0380
0300
0600
0C00
1C00
19F0
3E0C
7804
E006
C006
8006
0006
0006
000C
0018
0070
0380
ENDCHAR
STARTCHAR 308E
ENCODING 12430
SWIDTH 1000 0
DWIDTH 25 0
BBX 14 16 6 -1
BITMAP
0800
0800
0C00
FC00
0DE0
0E10
0C08
1C08
180C
380C
6808
4808
C818
8830
0840
0800
ENDCHAR
STARTCHAR 308F
ENCODING 12431
SWIDTH 1000 0
DWIDTH 25 0
BBX 18 21 4 -3
BITMAP
020000
020000
020000
028000
038000
FF8000
7B3E00
034300
078180
070080
0700C0
0E00C0
1A00C0
1A00C0
320080
620180
620180
420300
020600
020C00
020000
ENDCHAR
STARTCHAR 3090
ENCODING 12432
SWIDTH 1000 0
DWIDTH 25 0
BBX 17 22 4 -2
BITMAP
1FE000
186000
006000
006000
004000
00C000
00C000
07F800
0F8600
190300
330100
620100
620180
C60180
C40180
8C0100
880100
98F300
B18B00
F10E00
E18C00
00F800
ENDCHAR
STARTCHAR 3091
ENCODING 12433
SWIDTH 1000 0
DWIDTH 25 0
BBX 20 21 3 -3
BITMAP
003800
07F000
076000
018000
030000
06FC00
0F0600
1C0300
380100
31C100
226100
026300
03C700
01FC00
030000
060080
0800C0
1F0860
399C20
60F830
C07010
ENDCHAR
STARTCHAR 3092
ENCODING 12434
SWIDTH 1000 0
DWIDTH 25 0
BBX 19 22 3 -3
BITMAP
00C000
00C000
008000
018000
618600
FFFF00
03F800
030000
060000
07E000
0F3040
0C1BE0
181F80
307C00
21F800
038C00
070C00
060C00
0C0000
0C0000
0601C0
03FFC0
ENDCHAR
STARTCHAR 3093
ENCODING 12435
SWIDTH 1000 0
DWIDTH 25 0
BBX 17 21 5 -4
BITMAP
010000
030000
030000
020000
060000
060000
040000
0C0000
0C0000
080000
1B8000
1FC000
3CC000
384080
304180
704180
604300
604300
C06600
C07C00
803800
ENDCHAR
STARTCHAR 30A1
ENCODING 12449
SWIDTH 1000 0
DWIDTH 25 0
BBX 12 15 6 -3
BITMAP
FFF0
0010
0030
0070
04E0
07C0
0700
0400
0C00
0C00
0C00
1800
1800
3000
2000
ENDCHAR
STARTCHAR 30A2
ENCODING 12450
SWIDTH 1000 0
DWIDTH 25 0
BBX 15 18 5 -2
BITMAP
FFFC
0006
0006
000C
0018
0370
03E0
0380
0300
0200
0200
0600
0600
0400
0C00
0800
1800
1000
ENDCHAR
STARTCHAR 30A3
ENCODING 12451
SWIDTH 1000 0
DWIDTH 25 0
BBX 10 17 6 -3
BITMAP
0040
00C0
0180
0180
0300
0600
0E00
1E00
3600
6600
C600
0600
0600
0600
0600
0600
0600
ENDCHAR
STARTCHAR 30A4
ENCODING 12452
SWIDTH 1000 0
DWIDTH 25 0
BBX 12 21 5 -3
BITMAP
0020
0030
0060
0060
00C0
0180
0380
0300
0700
0F00
1B00
7300
E300
C300
0300
0300
0300
0300
0300
0300
0300
ENDCHAR
STARTCHAR 30A5
ENCODING 12453
SWIDTH 1000 0
DWIDTH 25 0
BBX 13 15 6 -2
BITMAP
0200
0200
0200
FFF8
C018
C018
C010
C030
0030
0030
0060
0060
00C0
0300
0600
ENDCHAR
STARTCHAR 30A6
ENCODING 12454
SWIDTH 1000 0
DWIDTH 25 0
BBX 15 18 5 -1
BITMAP
0100
0100
0100
FFFE
8006
8006
8006
8006
8006
8004
000C
000C
0018
0018
0030
00E0
0180
0200
ENDCHAR
STARTCHAR 30A7
ENCODING 12455
SWIDTH 1000 0
DWIDTH 25 0
BBX 13 10 6 0
BITMAP
7FF0
0200
0200
0200
0200
0200
0200
0200
0200
FFF8
ENDCHAR
STARTCHAR 30A8
ENCODING 12456
SWIDTH 1000 0
DWIDTH 25 0
BBX 17 12 4 2
BITMAP
7FFF00
008000
008000
008000
008000
008000
008000
008000
008000
008000
008000
FFFF80
ENDCHAR
STARTCHAR 30A9
ENCODING 12457
SWIDTH 1000 0
DWIDTH 25 0
BBX 13 14 6 -2
BITMAP
0180
0180
0180
FFF8
0180
0580
0D80
0D80
1980
3180
6180
C180
8180
0700
ENDCHAR
STARTCHAR 30AA
ENCODING 12458
SWIDTH 1000 0
DWIDTH 25 0
BBX 16 18 4 -2
BITMAP
0060
0060
0060
0060
7FFF
0060
0160
0360
0360
0660
0C60
1860
3060
6060
C060
0060
0060
01C0
ENDCHAR
STARTCHAR 30AB
ENCODING 12459
SWIDTH 1000 0
DWIDTH 25 0
BBX 14 18 5 -1
BITMAP
0600
0600
0600
0600
0600
7FFC
060C
060C
060C
060C
060C
040C
0C0C
0808
1808
3018
6070
80C0
ENDCHAR
STARTCHAR 30AC
ENCODING 12460
SWIDTH 1000 0
DWIDTH 25 0
BBX 18 19 5 -1
BITMAP
000300
000180
0604C0
060640
060300
060100
060000
7FFC00
060C00
060C00
060C00
060C00
040C00
0C0C00
0C0800
180800
301800
607000
80C000
ENDCHAR
STARTCHAR 30AD
ENCODING 12461
SWIDTH 1000 0
DWIDTH 25 0
BBX 15 20 5 -2
BITMAP
0600
0600
0600
0200
0378
0FE0
7F00
6300
0100
0106
01FC
03E0
3F80
F880
C080
00C0
00C0
00C0
00C0
0040
ENDCHAR
STARTCHAR 30AE
ENCODING 12462
SWIDTH 1000 0
DWIDTH 25 0
BBX 18 21 5 -2
BITMAP
000300
060D80
0606C0
060340
020100
021800
03E000
1F0000
7B0000
610000
010600
01FC00
03E000
3F8000
F88000
C08000
00C000
00C000
00C000
00C000
004000
ENDCHAR
STARTCHAR 30AF
ENCODING 12463
SWIDTH 1000 0
DWIDTH 25 0
BBX 14 18 5 -1
BITMAP
0200
0600
0600
0FF8
180C
3008
6018
C018
0010
0030
0060
0060
00C0
0180
0700
0C00
3800
6000
ENDCHAR
STARTCHAR 30B0
ENCODING 12464
SWIDTH 1000 0
DWIDTH 25 0
BBX 18 20 5 -1
BITMAP
000300
000D80
0006C0
020340
060100
07F800
080C00
180800
301800
601800
C01000
003000
006000
006000
00C000
018000
070000
0C0000
380000
600000
ENDCHAR
STARTCHAR 30B1
ENCODING 12465
SWIDTH 1000 0
DWIDTH 25 0
BBX 16 19 4 -2
BITMAP
0400
0600
0C00
0C00
1FFF
3060
6060
C060
8060
0060
0060
0040
00C0
00C0
0080
0180
0300
0600
0C00
ENDCHAR
STARTCHAR 30B2
ENCODING 12466
SWIDTH 1000 0
DWIDTH 25 0
BBX 19 22 4 -2
BITMAP
000180
0000C0
000360
0401A0
0600C0
0C0040
0C0000
1FFF00
306000
606000
C06000
806000
006000
006000
004000
00C000
00C000
008000
018000
030000
060000
0C0000
ENDCHAR
STARTCHAR 30B3
ENCODING 12467
SWIDTH 1000 0
DWIDTH 25 0
BBX 13 14 6 -1
BITMAP
FFF8
0018
0018
0018
0018
0018
0018
0018
0018
0018
0018
0018
FFF8
0018
ENDCHAR
STARTCHAR 30B4
ENCODING 12468
SWIDTH 1000 0
DWIDTH 25 0
BBX 17 19 6 -1
BITMAP
000200
000300
000D80
000680
000300
FFF900
001800
001800
001800
001800
001800
001800
001800
001800
001800
001800
001800
FFF800
001800
ENDCHAR
STARTCHAR 30B5
ENCODING 12469
SWIDTH 1000 0
DWIDTH 25 0
BBX 17 18 4 -2
BITMAP
0C1800
0C1800
0C1800
0C1800
FFFF80
0C1800
0C1800
0C1000
0C1000
0C1000
001000
003000
003000
003000
006000
006000
00C000
008000
ENDCHAR
STARTCHAR 30B6
ENCODING 12470
SWIDTH 1000 0
DWIDTH 25 0
BBX 19 21 4 -2
BITMAP
000080
0002C0
001960
0C18A0
0C1880
0C1800
0C1800
FFFF80
0C1800
0C1800
0C1000
0C1000
0C1000
001000
003000
003000
003000
006000
006000
00C000
008000
ENDCHAR
STARTCHAR 30B7
ENCODING 12471
SWIDTH 1000 0
DWIDTH 25 0
BBX 15 20 5 -2
BITMAP
1000
0C00
0600
0200
0000
0000
8000
6000
3000
1802
0806
000C
0008
0010
0020
00C0
0180
0700
1C00
3000
ENDCHAR
STARTCHAR 30B8
ENCODING 12472
SWIDTH 1000 0
DWIDTH 25 0
BBX 17 20 5 -2
BITMAP
100600
0C0300
060980
020C80
000600
000200
800000
600000
300000
180200
080600
000C00
000800
001000
002000
00C000
018000
070000
1C0000
300000
ENDCHAR
STARTCHAR 30B9
ENCODING 12473
SWIDTH 1000 0
DWIDTH 25 0
BBX 15 16 5 -1
BITMAP
3FF0
0018
0018
0018
0030
0030
0060
0060
00C0
01E0
0330
0618
0C0C
1806
6002
C000
ENDCHAR
STARTCHAR 30BA
ENCODING 12474
SWIDTH 1000 0
DWIDTH 25 0
BBX 18 21 5 -1
BITMAP
000200
000980
0004C0
000240
000200
3FF000
001800
001800
001800
003000
003000
006000
006000
00C000
01E000
033000
061800
0C0C00
180600
600200
C00000
ENDCHAR
STARTCHAR 30BB
ENCODING 12475
SWIDTH 1000 0
DWIDTH 25 0
BBX 16 17 4 0
BITMAP
0200
0200
0200
0200
0200
020F
02F3
0783
7A02
C206
0204
0200
0200
0200
0200
0200
01FE
ENDCHAR
STARTCHAR 30BC
ENCODING 12476
SWIDTH 1000 0
DWIDTH 25 0
BBX 18 20 4 0
BITMAP
000100
000080
000440
020340
020100
020100
020000
020000
020F00
02F300
078300
7A0200
C20600
020400
020000
020000
020000
020000
020000
01FE00
ENDCHAR
STARTCHAR 30BD
ENCODING 12477
SWIDTH 1000 0
DWIDTH 25 0
BBX 15 16 5 -2
BITMAP
C006
6006
3006
180C
100C
000C
0018
0018
0030
0060
0060
00C0
0380
0600
1C00
3000
ENDCHAR
STARTCHAR 30BE
ENCODING 12478
SWIDTH 1000 0
DWIDTH 25 0
BBX 18 22 5 -2
BITMAP
000300
000580
0003C0
0001C0
000100
000000
C00600
600600
300600
180C00
100C00
000C00
001800
001800
003000
006000
006000
00C000
038000
060000
1C0000
300000
ENDCHAR
STARTCHAR 30BF
ENCODING 12479
SWIDTH 1000 0
DWIDTH 25 0
BBX 14 19 5 -2
BITMAP
0200
0200
0600
07F8
0C0C
0818
1818
3018
6230
C1B0
00E0
00E0
00F0
0198
0308
0600
0C00
3000
6000
ENDCHAR
STARTCHAR 30C0
ENCODING 12480
SWIDTH 1000 0
DWIDTH 25 0
BBX 18 21 5 -2
BITMAP
000300
000D80
0206C0
020340
060100
07F800
0C0C00
080800
181800
301800
623000
C1B000
00E000
00E000
00F000
019800
030800
060000
0C0000
380000
600000
ENDCHAR
STARTCHAR 30C1
ENCODING 12481
SWIDTH 1000 0
DWIDTH 25 0
BBX 16 19 4 -2
BITMAP
0018
0070
03C0
3CC0
00C0
00C0
00C0
FFFF
00C0
00C0
00C0
00C0
00C0
0080
0180
0300
0600
0C00
0800
ENDCHAR
STARTCHAR 30C2
ENCODING 12482
SWIDTH 1000 0
DWIDTH 25 0
BBX 19 20 4 -2
BITMAP
000180
0018C0
007360
03C1A0
3CC0C0
00C040
00C000
00C000
FFFF00
00C000
00C000
00C000
00C000
00C000
008000
018000
030000
060000
0C0000
080000
ENDCHAR
STARTCHAR 30C3
ENCODING 12483
SWIDTH 1000 0
DWIDTH 25 0
BBX 13 13 6 -2
BITMAP
0C00
8610
6218
2218
2030
0030
0060
0060
00C0
0180
0300
0E00
0800
ENDCHAR
STARTCHAR 30C4
ENCODING 12484
SWIDTH 1000 0
DWIDTH 25 0
BBX 15 17 5 -2
BITMAP
0600
0302
8106
4106
2004
200C
000C
0018
0018
0030
0060
00C0
01C0
0380
0600
1C00
1800
ENDCHAR
STARTCHAR 30C5
ENCODING 12485
SWIDTH 1000 0
DWIDTH 25 0
BBX 18 22 5 -2
BITMAP
000100
000480
000240
000140
000100
060000
030200
810600
410600
200400
200C00
000C00
001800
001800
003000
006000
00C000
01C000
038000
060000
1C0000
180000
ENDCHAR
STARTCHAR 30C6
ENCODING 12486
SWIDTH 1000 0
DWIDTH 25 0
BBX 15 18 5 -2
BITMAP
3FF8
0000
0000
0000
0000
FFFE
0180
0100
0100
0100
0100
0300
0300
0600
0600
0C00
1800
1000
ENDCHAR
STARTCHAR 30C7
ENCODING 12487
SWIDTH 1000 0
DWIDTH 25 0
BBX 18 21 5 -2
BITMAP
000100
000580
0002C0
000140
3FF900
000000
000000
000000
FFFE00
018000
010000
010000
010000
010000
030000
030000
060000
060000
0C0000
180000
100000
ENDCHAR
STARTCHAR 30C8
ENCODING 12488
SWIDTH 1000 0
DWIDTH 25 0
BBX 8 20 10 -3
BITMAP
80
80
80
80
80
80
80
E0
F8
9C
87
81
80
80
80
80
80
80
80
80
ENDCHAR
STARTCHAR 30C9
ENCODING 12489
SWIDTH 1000 0
DWIDTH 25 0
BBX 10 21 10 -3
BITMAP
8300
8180
84C0
8240
8100
8080
8000
8000
E000
F800
9C00
8700
8100
8000
8000
8000
8000
8000
8000
8000
8000
ENDCHAR
STARTCHAR 30CA
ENCODING 12490
SWIDTH 1000 0
DWIDTH 25 0
BBX 15 20 5 -2
BITMAP
0100
0100
0100
0100
0100
0100
0100
FFFE
0100
0100
0100
0300
0300
0300
0200
0600
0C00
1C00
3800
2000
ENDCHAR
STARTCHAR 30CB
ENCODING 12491
SWIDTH 1000 0
DWIDTH 25 0
BBX 17 11 4 3
BITMAP
1FFC00
000000
000000
000000
000000
000000
000000
000000
000000
000000
FFFF80
ENDCHAR
STARTCHAR 30CC
ENCODING 12492
SWIDTH 1000 0
DWIDTH 25 0
BBX 13 17 6 -1
BITMAP
7FE0
0018
0030
0030
0030
2060
3860
0EC0
03C0
0180
0360
0630
0618
0C08
3800
6000
C000
ENDCHAR
STARTCHAR 30CD
ENCODING 12493
SWIDTH 1000 0
DWIDTH 25 0
BBX 16 22 5 -3
BITMAP
0200
0180
00C0
0040
0000
0000
0000
3FE0
0060
0060
00C0
01A0
0398
078C
0D86
1983
7181
C180
0180
0180
0180
0180
ENDCHAR
STARTCHAR 30CE
ENCODING 12494
SWIDTH 1000 0
DWIDTH 25 0
BBX 13 15 6 0
BITMAP
0018
0018
0030
0030
0060
0060
00C0
00C0
0180
0300
0600
0C00
1800
7000
C000
ENDCHAR
STARTCHAR 30CF
ENCODING 12495
SWIDTH 1000 0
DWIDTH 25 0
BBX 16 10 4 2
BITMAP
0010
0438
0418
0C0C
0C06
0802
1803
3001
6001
C001
ENDCHAR
STARTCHAR 30D0
ENCODING 12496
SWIDTH 1000 0
DWIDTH 25 0
BBX 19 14 4 2
BITMAP
000080
0002C0
000360
0011A0
043080
041800
040C00
0C0600
0C0600
180300
180300
300100
600100
C00100
ENDCHAR
STARTCHAR 30D1
ENCODING 12497
SWIDTH 1000 0
DWIDTH 25 0
BBX 19 15 4 2
BITMAP
0001C0
000240
000220
000240
0011C0
043000
041800
040C00
0C0600
0C0600
180300
180300
300100
600100
C00100
ENDCHAR
STARTCHAR 30D2
ENCODING 12498
SWIDTH 1000 0
DWIDTH 25 0
BBX 13 15 6 0
BITMAP
C000
C000
C010
C060
C0C0
C300
CC00
F000
C000
C000
C000
C000
C000
C000
7FF8
ENDCHAR
STARTCHAR 30D3
ENCODING 12499
SWIDTH 1000 0
DWIDTH 25 0
BBX 16 19 6 0
BITMAP
000C
0016
001B
0005
C004
C000
C010
C030
C040
C180
C200
CC00
F000
C000
C000
C000
C000
C000
7FF8
ENDCHAR
STARTCHAR 30D4
ENCODING 12500
SWIDTH 1000 0
DWIDTH 25 0
BBX 16 19 6 0
BITMAP
000E
0009
0011
0009
C00E
C010
C030
C040
C180
C200
CC00
F000
C000
C000
C000
C000
C000
C000
7FF8
ENDCHAR
STARTCHAR 30D5
ENCODING 12501
SWIDTH 1000 0
DWIDTH 25 0
BBX 13 17 6 -2
BITMAP
FFF0
0008
0018
0018
0018
0010
0030
0030
0060
0060
00C0
0180
0180
0700
0C00
1800
2000
ENDCHAR
STARTCHAR 30D6
ENCODING 12502
SWIDTH 1000 0
DWIDTH 25 0
BBX 17 21 6 -2
BITMAP
000200
000B00
000780
000380
FFF100
000800
001800
001800
001800
001000
003000
003000
006000
006000
00C000
018000
018000
070000
0C0000
180000
200000
ENDCHAR
STARTCHAR 30D7
ENCODING 12503
SWIDTH 1000 0
DWIDTH 25 0
BBX 17 21 6 -2
BITMAP
000700
000480
000880
000480
000700
FFF000
001800
001800
001800
001800
003000
003000
002000
006000
004000
00C000
018000
030000
0E0000
180000
200000
ENDCHAR
STARTCHAR 30D8
ENCODING 12504
SWIDTH 1000 0
DWIDTH 25 0
BBX 17 13 4 1
BITMAP
030000
078000
0CC000
186000
103000
301800
601C00
C00C00
800600
000300
000180
000180
000080
ENDCHAR
STARTCHAR 30D9
ENCODING 12505
SWIDTH 1000 0
DWIDTH 25 0
BBX 19 16 4 1
BITMAP
000300
000180
000440
000320
030180
078080
0CC000
186000
303000
601800
C00C00
800600
000300
000180
000180
000080
ENDCHAR
STARTCHAR 30DA
ENCODING 12506
SWIDTH 1000 0
DWIDTH 25 0
BBX 17 15 4 1
BITMAP
000700
000880
030880
078880
0CC700
186000
103000
301800
601C00
C00C00
800600
000300
000180
000180
000080
ENDCHAR
STARTCHAR 30DB
ENCODING 12507
SWIDTH 1000 0
DWIDTH 25 0
BBX 16 19 4 -3
BITMAP
0080
0080
0080
0080
7FFF
0080
0080
0080
0080
0880
1888
108C
3084
6086
4083
8081
0080
0080
0080
ENDCHAR
STARTCHAR 30DC
ENCODING 12508
SWIDTH 1000 0
DWIDTH 25 0
BBX 19 22 4 -3
BITMAP
000080
000040
000320
0081A0
0080C0
008000
008000
7FFF00
008000
008000
008000
008000
088000
188800
108C00
308400
608600
408300
808100
008000
008000
008000
ENDCHAR
STARTCHAR 30DD
ENCODING 12509
SWIDTH 1000 0
DWIDTH 25 0
BBX 18 21 4 -3
BITMAP
000380
000240
008440
008240
008380
008000
7FFF00
008000
008000
008000
008000
088000
188800
108C00
308400
608600
408300
808100
008000
008000
008000
ENDCHAR
STARTCHAR 30DE
ENCODING 12510
SWIDTH 1000 0
DWIDTH 25 0
BBX 15 12 5 0
BITMAP
FFFE
0006
0006
000C
0018
0030
1860
0FC0
0380
0180
00C0
0040
ENDCHAR
STARTCHAR 30DF
ENCODING 12511
SWIDTH 1000 0
DWIDTH 25 0
BBX 10 19 7 -2
BITMAP
3000
0C00
0300
0180
0040
0000
3000
0C00
0300
0180
0080
0000
0000
C000
3800
0600
0300
0080
0040
ENDCHAR
STARTCHAR 30E0
ENCODING 12512
SWIDTH 1000 0
DWIDTH 25 0
BBX 16 15 5 0
BITMAP
0100
0180
0100
0300
0300
0600
0600
0400
0C08
080C
1804
100E
31FE
FFE3
F803
ENDCHAR
STARTCHAR 30E1
ENCODING 12513
SWIDTH 1000 0
DWIDTH 25 0
BBX 12 17 6 -1
BITMAP
0010
0010
0030
0030
0820
0C60
0360
01C0
01C0
01E0
0320
0630
0C10
1800
3000
E000
8000
ENDCHAR
STARTCHAR 30E2
ENCODING 12514
SWIDTH 1000 0
DWIDTH 25 0
BBX 15 16 5 0
BITMAP
7FFC
0600
0600
0600
0600
0600
FFFE
0600
0600
0600
0600
0600
0600
0600
0200
03FE
ENDCHAR
STARTCHAR 30E3
ENCODING 12515
SWIDTH 1000 0
DWIDTH 25 0
BBX 13 16 6 -3
BITMAP
1800
0800
0800
0C38
0DC8
0E18
3410
C630
0600
0200
0300
0300
0300
0100
0180
0180
ENDCHAR
STARTCHAR 30E4
ENCODING 12516
SWIDTH 1000 0
DWIDTH 25 0
BBX 16 21 4 -3
BITMAP
0400
0400
0600
0600
020F
02F3
0783
7B02
C106
0100
0180
0180
0080
0080
00C0
00C0
00C0
0040
0060
0060
0060
ENDCHAR
STARTCHAR 30E5
ENCODING 12517
SWIDTH 1000 0
DWIDTH 25 0
BBX 15 10 5 0
BITMAP
3FF0
0030
0030
0030
0030
0030
0030
0030
0030
FFFE
ENDCHAR
STARTCHAR 30E6
ENCODING 12518
SWIDTH 1000 0
DWIDTH 25 0
BBX 17 12 4 2
BITMAP
1FF800
000800
000800
000800
000800
000800
000800
000800
000800
000800
000800
FFFF80
ENDCHAR
STARTCHAR 30E7
ENCODING 12519
SWIDTH 1000 0
DWIDTH 25 0
BBX 11 12 7 -1
BITMAP
FFE0
0060
0060
0060
0060
7FE0
0060
0060
0060
0060
FFE0
0060
ENDCHAR
STARTCHAR 30E8
ENCODING 12520
SWIDTH 1000 0
DWIDTH 25 0
BBX 13 16 6 -1
BITMAP
FFF8
0018
0018
0018
0018
0018
0018
7FF8
0018
0018
0018
0018
0018
0018
FFF8
0018
ENDCHAR
STARTCHAR 30E9
ENCODING 12521
SWIDTH 1000 0
DWIDTH 25 0
BBX 13 18 6 -2
BITMAP
3FE0
0000
0000
0000
0000
FFF8
0008
0008
0018
0018
0030
0020
0060
00C0
0180
0700
0C00
1000
ENDCHAR
STARTCHAR 30EA
ENCODING 12522
SWIDTH 1000 0
DWIDTH 25 0
BBX 11 19 7 -2
BITMAP
0060
C060
C060
C060
C060
C060
C060
C060
C060
C040
0040
00C0
00C0
0180
0180
0300
0600
1C00
1800
ENDCHAR
STARTCHAR 30EB
ENCODING 12523
SWIDTH 1000 0
DWIDTH 25 0
BBX 17 17 4 -1
BITMAP
008000
088000
088000
088000
088000
088000
088080
088180
088100
188300
188600
188C00
109800
30B800
60F000
C0C000
800000
ENDCHAR
STARTCHAR 30EC
ENCODING 12524
SWIDTH 1000 0
DWIDTH 25 0
BBX 13 19 7 -3
BITMAP
C000
C000
C000
C000
C000
C000
C000
C008
C018
C030
C060
C040
C080
C100
C700
CC00
D800
F000
6000
ENDCHAR
STARTCHAR 30ED
ENCODING 12525
SWIDTH 1000 0
DWIDTH 25 0
BBX 13 13 6 1
BITMAP
FFF8
8008
8008
8008
8008
8008
8008
8008
8008
8008
8008
FFF8
8008
ENDCHAR
STARTCHAR 30EE
ENCODING 12526
SWIDTH 1000 0
DWIDTH 25 0
BBX 13 12 6 -2
BITMAP
FFF8
C018
C010
C010
C010
0030
0030
0060
0040
0180
0300
0400
ENDCHAR
STARTCHAR 30EF
ENCODING 12527
SWIDTH 1000 0
DWIDTH 25 0
BBX 15 18 5 -2
BITMAP
FFFE
8006
8006
8006
8006
8006
8006
0004
000C
000C
000C
0018
0010
0030
0060
00C0
0300
0600
ENDCHAR
STARTCHAR 30F0
ENCODING 12528
SWIDTH 1000 0
DWIDTH 25 0
BBX 16 20 5 -2
BITMAP
0060
0060
0060
0060
7FFE
1060
1060
1060
1060
1060
1060
FFFF
0060
0060
0060
0060
0060
0060
0060
0060
ENDCHAR
STARTCHAR 30F1
ENCODING 12529
SWIDTH 1000 0
DWIDTH 25 0
BBX 15 13 5 1
BITMAP
7FFC
000C
000C
0038
0370
03C0
0380
0300
0300
0300
0300
FFFE
FFFE
ENDCHAR
STARTCHAR 30F2
ENCODING 12530
SWIDTH 1000 0
DWIDTH 25 0
BBX 14 18 5 -2
BITMAP
7FFC
000C
000C
0008
0008
0018
FFF8
0018
0018
0030
0030
0060
00E0
00C0
0180
0300
0E00
0800
ENDCHAR
STARTCHAR 30F3
ENCODING 12531
SWIDTH 1000 0
DWIDTH 25 0
BBX 14 17 6 -1
BITMAP
4000
3000
1800
0C00
0C00
0004
000C
0018
0030
0020
0040
0180
0300
0600
1C00
3000
C000
ENDCHAR
STARTCHAR 30F4
ENCODING 12532
SWIDTH 1000 0
DWIDTH 25 0
BBX 18 21 5 -1
BITMAP
000100
000180
0006C0
010340
010180
010080
FFFE00
800600
800600
800600
800600
800600
800400
000C00
000C00
001800
001800
003000
00E000
018000
020000
ENDCHAR
STARTCHAR 30F5
ENCODING 12533
SWIDTH 1000 0
DWIDTH 25 0
BBX 13 15 6 -1
BITMAP
0600
0600
0600
0600
7FF8
0618
0618
0618
0618
0418
0C18
1810
3030
6070
C1C0
ENDCHAR
STARTCHAR 30F6
ENCODING 12534
SWIDTH 1000 0
DWIDTH 25 0
BBX 14 15 5 -2
BITMAP
0C00
0C00
1800
3FFC
70C0
E080
C080
0080
0180
0180
0180
0300
0600
0C00
0800
ENDCHAR
STARTCHAR 3131
ENCODING 12593
SWIDTH 1000 0
DWIDTH 25 0
BBX 16 11 4 2
BITMAP
FFFF
FFFF
0003
0003
0003
0003
0003
0003
0003
0003
0003
ENDCHAR
STARTCHAR 3132
ENCODING 12594
SWIDTH 1000 0
DWIDTH 25 0
BBX 18 11 3 2
BITMAP
FFBFC0
FFBFC0
0180C0
0180C0
0180C0
0180C0
0180C0
0180C0
0180C0
0180C0
0180C0
ENDCHAR
STARTCHAR 3133
ENCODING 12595
SWIDTH 1000 0
DWIDTH 25 0
BBX 19 11 4 2
BITMAP
FE0600
FE0600
020600
020600
020600
020E00
020F00
021B00
023180
0260E0
024040
ENDCHAR
STARTCHAR 3134
ENCODING 12596
SWIDTH 1000 0
DWIDTH 25 0
BBX 15 11 5 2
BITMAP
C000
C000
C000
C000
C000
C000
C000
C000
C000
FFFE
FFFE
ENDCHAR
STARTCHAR 3135
ENCODING 12597
SWIDTH 1000 0
DWIDTH 25 0
BBX 19 11 3 2
BITMAP
C07FC0
C07FC0
C00600
C00600
C00600
C00E00
C00B00
C01B00
C031C0
FFE0E0
FF4040
ENDCHAR
STARTCHAR 3136
ENCODING 12598
SWIDTH 1000 0
DWIDTH 25 0
BBX 20 14 3 1
BITMAP
000600
000600
C00600
C0FFF0
C0FFF0
C00000
C01F00
C03F80
C030C0
C060C0
C060C0
FF30C0
FF3F80
001F00
ENDCHAR
STARTCHAR 3137
ENCODING 12599
SWIDTH 1000 0
DWIDTH 25 0
BBX 15 11 5 2
BITMAP
FFFC
FFFC
C000
C000
C000
C000
C000
C000
C000
FFFE
FFFE
ENDCHAR
STARTCHAR 3138
ENCODING 12600
SWIDTH 1000 0
DWIDTH 25 0
BBX 18 11 4 2
BITMAP
FF7FC0
FF7FC0
C06000
C06000
C06000
C06000
C06000
C06000
C36000
FF7FC0
FC7FC0
ENDCHAR
STARTCHAR 3139
ENCODING 12601
SWIDTH 1000 0
DWIDTH 25 0
BBX 15 11 5 2
BITMAP
FFFE
FFFE
0006
0006
FFFE
FFFE
C000
C000
C000
FFFE
FFFE
ENDCHAR
STARTCHAR 313A
ENCODING 12602
SWIDTH 1000 0
DWIDTH 25 0
BBX 17 11 4 2
BITMAP
FF7F80
FF7F80
030180
030180
FF0180
FF0180
800180
800180
800180
FF8180
FF8180
ENDCHAR
STARTCHAR 313B
ENCODING 12603
SWIDTH 1000 0
DWIDTH 25 0
BBX 17 11 4 2
BITMAP
FE7F80
FE7F80
066180
066180
FE6180
FE6180
806180
806180
806180
FF7F80
FF7F80
ENDCHAR
STARTCHAR 313C
ENCODING 12604
SWIDTH 1000 0
DWIDTH 25 0
BBX 17 11 4 2
BITMAP
FE6180
FE6180
066180
066180
FE7F80
FE7F80
806180
806180
806180
FF7F80
FF7F80
ENDCHAR
STARTCHAR 313D
ENCODING 12605
SWIDTH 1000 0
DWIDTH 25 0
BBX 19 11 4 2
BITMAP
FE0600
FE0600
060600
060600
FE0600
FE0E00
800B00
801B80
8031C0
FF60E0
FF4040
ENDCHAR
STARTCHAR 313E
ENCODING 12606
SWIDTH 1000 0
DWIDTH 25 0
BBX 17 11 4 2
BITMAP
FE7F80
FE7F80
066000
066000
FE7F80
FE7F80
806000
806000
806000
FF7F80
FF7F80
ENDCHAR
STARTCHAR 313F
ENCODING 12607
SWIDTH 1000 0
DWIDTH 25 0
BBX 17 11 4 2
BITMAP
FEFF80
FEFF80
063300
063300
FE3300
FE3300
803300
803300
803300
FFFF80
FFFF80
ENDCHAR
STARTCHAR 3140
ENCODING 12608
SWIDTH 1000 0
DWIDTH 25 0
BBX 18 13 4 1
BITMAP
000C00
FE0C00
FE0C00
06FFC0
06FFC0
FE0000
FE1E00
807F00
806180
804180
FF6180
FF7F00
001E00
ENDCHAR
STARTCHAR 3141
ENCODING 12609
SWIDTH 1000 0
DWIDTH 25 0
BBX 15 11 5 2
BITMAP
FFFE
FFFE
C006
C006
C006
C006
C006
C006
C006
FFFE
FFFE
ENDCHAR
STARTCHAR 3142
ENCODING 12610
SWIDTH 1000 0
DWIDTH 25 0
BBX 15 11 5 2
BITMAP
C006
C006
C006
C006
FFFE
FFFE
C006
C006
C006
FFFE
FFFE
ENDCHAR
STARTCHAR 3143
ENCODING 12611
SWIDTH 1000 0
DWIDTH 25 0
BBX 17 11 4 2
BITMAP
C36080
C36080
C36080
C36080
FF7F80
FF7F80
C36080
C36080
C36080
FF7F80
FF7F80
ENDCHAR
STARTCHAR 3144
ENCODING 12612
SWIDTH 1000 0
DWIDTH 25 0
BBX 19 11 4 2
BITMAP
C30600
C30600
C30600
C30600
FF0600
FF0E00
C30F00
C31B00
C33180
FF70E0
FF4040
ENDCHAR
STARTCHAR 3145
ENCODING 12613
SWIDTH 1000 0
DWIDTH 25 0
BBX 17 12 4 2
BITMAP
018000
018000
018000
018000
01C000
03C000
036000
067000
1C3800
381E00
F00780
C00100
ENDCHAR
STARTCHAR 3146
ENCODING 12614
SWIDTH 1000 0
DWIDTH 25 0
BBX 19 12 3 2
BITMAP
0C0600
0C0600
0C0600
0C0600
0C0600
0C0600
1C0E00
160F00
331980
61B180
C070E0
806040
ENDCHAR
STARTCHAR 3147
ENCODING 12615
SWIDTH 1000 0
DWIDTH 25 0
BBX 13 13 6 1
BITMAP
0F80
3FE0
7070
E038
C018
C018
C018
C018
C018
E038
7070
3FE0
0F80
ENDCHAR
STARTCHAR 3148
ENCODING 12616
SWIDTH 1000 0
DWIDTH 25 0
BBX 17 11 4 2
BITMAP
FFFF80
FFFF80
018000
018000
01C000
03C000
066000
0E3800
381E00
F00780
C00100
ENDCHAR
STARTCHAR 3149
ENCODING 12617
SWIDTH 1000 0
DWIDTH 25 0
BBX 19 11 3 2
BITMAP
FFBFE0
FFBFE0
080600
080600
080600
1C0600
140F00
360D80
639880
C130E0
802060
ENDCHAR
STARTCHAR 314A
ENCODING 12618
SWIDTH 1000 0
DWIDTH 25 0
BBX 17 14 4 2
BITMAP
008000
008000
008000
FFFF80
FFFF80
008000
01C000
01C000
036000
077000
0E3800
3C0E00
F00780
400180
ENDCHAR
STARTCHAR 314B
ENCODING 12619
SWIDTH 1000 0
DWIDTH 25 0
BBX 16 11 4 2
BITMAP
FFFF
FFFF
0003
0003
0003
FFFF
FFFF
0003
0003
0003
0003
ENDCHAR
STARTCHAR 314C
ENCODING 12620
SWIDTH 1000 0
DWIDTH 25 0
BBX 15 11 5 2
BITMAP
FFFC
FFFC
C000
C000
FFFC
FFFC
C000
C000
C000
FFFE
FFFE
ENDCHAR
STARTCHAR 314D
ENCODING 12621
SWIDTH 1000 0
DWIDTH 25 0
BBX 17 11 4 2
BITMAP
FFFF00
FFFF00
0C1800
0C1800
0C1800
0C1800
0C1800
0C1800
0C1800
FFFF80
FFFF80
ENDCHAR
STARTCHAR 314E
ENCODING 12622
SWIDTH 1000 0
DWIDTH 25 0
BBX 17 14 4 1
BITMAP
008000
008000
008000
FFFF80
FFFF80
000000
07F000
1FF800
181C00
300600
300600
181C00
1FFC00
07F000
ENDCHAR
ENDFONT
